<?xml version="1.0" encoding="utf-8"?>
<!-- Generator: Adobe Illustrator 25.1.0, SVG Export Plug-In . SVG Version: 6.00 Build 0)  -->
<svg version="1.1" id="Layer_1" xmlns="http://www.w3.org/2000/svg" xmlns:xlink="http://www.w3.org/1999/xlink" x="0px" y="0px"
	 viewBox="0 0 1920 1080" style="enable-background:new 0 0 1920 1080;" xml:space="preserve">
<style type="text/css">
	.st0{fill:#E6DCFD;}
	.st1{fill:#8850F4;}
	.st2{fill:#D9D8D9;}
	.st3{fill:#DABA4E;}
	.st4{fill:#36154C;}
	.st5{fill:#D8C4FA;}
	.st6{fill:#B796F7;}
	.st7{clip-path:url(#SVGID_2_);}
	.st8{clip-path:url(#SVGID_4_);}
	.st9{fill:#EDEDED;}
	.st10{fill:#FFFFFF;}
	.st11{clip-path:url(#SVGID_6_);}
	.st12{fill:#D6D7D8;}
	.st13{fill:#EEEEEE;}
	.st14{clip-path:url(#SVGID_8_);}
	.st15{clip-path:url(#SVGID_10_);}
	.st16{clip-path:url(#SVGID_12_);}
</style>
<rect x="-137.1" y="-118" class="st0" width="2159.5" height="1287.5"/>
<rect x="2545.5" y="308.9" class="st0" width="401.5" height="239.4"/>
<rect x="2545.5" y="597.2" class="st1" width="401.5" height="239.4"/>
<rect x="2545.5" y="889.1" class="st2" width="401.5" height="239.4"/>
<rect x="2545.5" y="1189.7" class="st3" width="401.5" height="239.4"/>
<rect x="2991.7" y="300.9" class="st4" width="401.5" height="239.4"/>
<rect x="2991.7" y="592.8" class="st5" width="401.5" height="239.4"/>
<rect x="2991.7" y="893.4" class="st6" width="401.5" height="239.4"/>
<g>
	<defs>
		
			<rect id="SVGID_1_" x="1338.2" y="-50.6" transform="matrix(0.4241 -0.9056 0.9056 0.4241 857.1714 1522.1145)" width="574.2" height="275.5"/>
	</defs>
	<clipPath id="SVGID_2_">
		<use xlink:href="#SVGID_1_"  style="overflow:visible;"/>
	</clipPath>
	<g class="st7">
		<g>
			<defs>
				
					<rect id="SVGID_3_" x="1338.4" y="-55.4" transform="matrix(0.4241 -0.9056 0.9056 0.4241 856.7649 1523.2816)" width="575.3" height="286.9"/>
			</defs>
			<clipPath id="SVGID_4_">
				<use xlink:href="#SVGID_3_"  style="overflow:visible;"/>
			</clipPath>
			<g class="st8">
				<path class="st5" d="M1595.6,391.4l-183.7-86c-18.8-8.8-27-31.1-18.3-49.8l212.3-453.3c8.7-18.7,31.1-26.7,49.9-17.8l183.7,86
					c18.8,8.8,27,31.1,18.3,49.8l-212.3,453.4C1636.8,392.2,1614.4,400.2,1595.6,391.4z"/>
				
					<ellipse transform="matrix(0.4241 -0.9056 0.9056 0.4241 1118.9257 1445.8154)" class="st0" cx="1696.2" cy="-156.8" rx="6.5" ry="6.6"/>
				<path class="st6" d="M1839.6-129.6l-35.3-16.5c-2.3,0.3-4.6,0.6-6.9,0.9c-60.6,9-120.6,33.9-160.9,79.6
					c-16.2,18.4-28.8,39.7-43.7,59.2c-34.1,44.7-79.8,79.3-127.5,109.2l-71.5,152.7c-8.7,18.7-0.6,40.9,18.3,49.8l183.7,86
					c18.8,8.8,41.2,0.8,49.9-17.8l212.3-453.3C1866.6-98.5,1858.4-120.8,1839.6-129.6z"/>
				
					<ellipse transform="matrix(0.4241 -0.9056 0.9056 0.4241 586.6125 1560.0321)" class="st5" cx="1519.9" cy="318.8" rx="23.2" ry="23.4"/>
				<polygon class="st0" points="1713.2,-151 1758.1,-136.4 1755.6,-128.7 1710.7,-143.3 				"/>
				
					<rect x="1402.8" y="-39.9" transform="matrix(0.4241 -0.9056 0.9056 0.4241 856.4156 1522.9729)" class="st9" width="445.6" height="256.1"/>
				
					<ellipse transform="matrix(0.4241 -0.9056 0.9056 0.4241 589.1389 1556.724)" class="st6" cx="1518.5" cy="315.2" rx="17.7" ry="17.9"/>
				<path class="st6" d="M1749.8-132.2l-34.9-16.3c-0.7-0.3-1-1.1-0.7-1.8c0.3-0.7,1.1-1,1.8-0.7l34.9,16.3c0.7,0.3,1,1.1,0.7,1.8
					C1751.3-132.1,1750.5-131.8,1749.8-132.2L1749.8-132.2L1749.8-132.2z"/>
				
					<ellipse transform="matrix(0.4241 -0.9056 0.9056 0.4241 1119.7925 1445.8817)" class="st6" cx="1696.7" cy="-157.5" rx="4.5" ry="4.5"/>
				<polygon class="st10" points="1696,-168.1 1698.8,-159.2 1689.9,-156.4 1687,-165.3 				"/>
				<polygon class="st6" points="1691.5,-169.3 1693.6,-163 1687.3,-161.1 1685.2,-167.3 				"/>
			</g>
		</g>
	</g>
</g>
<g>
	<defs>
		
			<rect id="SVGID_5_" x="-150.4" y="154.4" transform="matrix(0.9144 -0.4048 0.4048 0.9144 -115.8882 69.8091)" width="515" height="309"/>
	</defs>
	<clipPath id="SVGID_6_">
		<use xlink:href="#SVGID_5_"  style="overflow:visible;"/>
	</clipPath>
	<g class="st11">
		<path class="st2" d="M360.7,365.6l-382,169.2c-24.4,10.8-53.4-0.6-64.4-25.4L-170.9,317c-11-24.8,0-53.9,24.5-64.8l382-169.2
			C260,72.2,289,83.7,300,108.5l85.2,192.4C396.1,325.6,385.1,354.8,360.7,365.6z"/>
		
			<rect x="-175.5" y="222.2" transform="matrix(0.9144 -0.4048 0.4048 0.9144 -95.0555 54.7718)" class="st4" width="515" height="59.9"/>
		
			<rect x="-57.9" y="458.3" transform="matrix(0.9144 -0.4048 0.4048 0.9144 -193.1187 19.7647)" class="st10" width="16.2" height="16.4"/>
		
			<rect x="178.8" y="393" transform="matrix(0.9144 -0.4048 0.4048 0.9144 -146.416 110.0254)" class="st10" width="16.2" height="16.4"/>
		<path class="st3" d="M-4.2,479.5c-10.7,4.9-23.4,0.2-28.3-10.5c-4.9-10.7-0.2-23.4,10.5-28.3c10.7-4.9,23.4-0.2,28.3,10.5
			c0,0.1,0.1,0.2,0.1,0.3C11.2,462.1,6.5,474.7-4.2,479.5z M-18.2,448c-6.7,2.9-9.8,10.6-6.9,17.3c2.9,6.7,10.6,9.8,17.3,6.9
			c6.7-2.9,9.8-10.6,6.9-17.3c0,0,0-0.1-0.1-0.1C-3.9,448.1-11.5,445.1-18.2,448C-18.2,448-18.2,448-18.2,448z"/>
		<path class="st3" d="M220.8,399.7c-10.7,5-23.4,0.3-28.4-10.4c-5-10.7-0.3-23.4,10.4-28.4c10.7-5,23.4-0.3,28.4,10.4
			c0.1,0.1,0.1,0.2,0.2,0.3C236.1,382.3,231.4,394.8,220.8,399.7z M206.8,368.1c-6.7,2.8-9.8,10.6-7,17.2c2.8,6.7,10.6,9.8,17.2,7
			c6.7-2.8,9.8-10.6,7-17.2c0-0.1-0.1-0.1-0.1-0.2C221.1,368.3,213.4,365.2,206.8,368.1L206.8,368.1z"/>
		
			<rect x="1.1" y="482.5" transform="matrix(0.9144 -0.4048 0.4048 0.9144 -195.7142 48.0839)" class="st3" width="29.4" height="8.5"/>
		
			<rect x="82.1" y="396.7" transform="matrix(0.9144 -0.4048 0.4048 0.9144 -153.9534 73.3809)" class="st9" width="28.9" height="8"/>
		
			<rect x="90.1" y="414.9" transform="matrix(0.9144 -0.4048 0.4048 0.9144 -160.6337 78.2028)" class="st12" width="28.9" height="8"/>
		
			<rect x="217.9" y="336.4" transform="matrix(0.9144 -0.4048 0.4048 0.9144 -117.9003 123.3288)" class="st13" width="29.4" height="8"/>
		<path class="st13" d="M52.7,474.1c-7.9,3.4-17-0.2-20.4-8.1L21,440.5c-3.6-7.7-0.4-16.9,7.3-20.5c7.7-3.6,16.9-0.4,20.5,7.3
			c0.1,0.2,0.2,0.5,0.3,0.7l11.3,25.5C64,461.4,60.5,470.6,52.7,474.1z M32.1,427.5c-3.7,1.7-5.3,6-3.7,9.7l11.3,25.5
			c1.6,3.7,5.9,5.4,9.7,3.8l0,0c3.7-1.7,5.3-6,3.7-9.7l-11.3-25.5C40.2,427.6,35.8,425.9,32.1,427.5z"/>
		<path class="st9" d="M145.7,423.9c-3.7,1.7-8,1.8-11.8,0.2c-8-3.2-11.9-12.2-8.9-20.2l10.6-28.1c3-7.9,11.8-11.9,19.7-8.9
			c0.1,0,0.2,0.1,0.2,0.1c8,3.2,11.9,12.1,8.9,20.2l-10.6,28.1C152.3,419.2,149.4,422.3,145.7,423.9z M147,374.9
			c-1.8,0.8-3.2,2.2-3.8,4.1L132.5,407c-1.4,3.8,0.5,8.1,4.2,9.6c3.7,1.5,7.9-0.3,9.4-4.1c0,0,0-0.1,0-0.1l10.6-28
			c1.4-3.8-0.5-8.1-4.2-9.6C150.7,374.1,148.7,374.1,147,374.9z"/>
		
			<rect x="66.2" y="426.7" transform="matrix(0.9144 -0.4048 0.4048 0.9144 -169.6925 67.3213)" class="st10" width="16.2" height="16.4"/>
	</g>
</g>
<g>
	<defs>
		<rect id="SVGID_7_" x="1360.7" y="680.5" width="675.9" height="312.1"/>
	</defs>
	<clipPath id="SVGID_8_">
		<use xlink:href="#SVGID_7_"  style="overflow:visible;"/>
	</clipPath>
	<g class="st14">
		<rect x="1360.7" y="975.8" class="st4" width="304.5" height="16.8"/>
		<polygon class="st4" points="2036.6,680.5 1658.1,680.5 1570.9,992.6 1949.3,992.6 		"/>
		<ellipse class="st3" cx="1815.1" cy="841.9" rx="32.5" ry="32.3"/>
	</g>
</g>
<g>
	<defs>
		
			<rect id="SVGID_9_" x="267.3" y="867.3" transform="matrix(0.8748 -0.4844 0.4844 0.8748 -508.5359 340.7424)" width="275.5" height="574.2"/>
	</defs>
	<clipPath id="SVGID_10_">
		<use xlink:href="#SVGID_9_"  style="overflow:visible;"/>
	</clipPath>
	<g class="st15">
		<g>
			<defs>
				
					<rect id="SVGID_11_" x="262.8" y="866.8" transform="matrix(0.8748 -0.4844 0.4844 0.8748 -508.3684 341.2937)" width="286.9" height="575.3"/>
			</defs>
			<clipPath id="SVGID_12_">
				<use xlink:href="#SVGID_11_"  style="overflow:visible;"/>
			</clipPath>
			<g class="st16">
				<path class="st5" d="M634,1357.1l-177.5,98.3c-18.2,10.1-41,3.6-51-14.4L163.1,1003c-10-18-3.3-40.8,14.8-50.9l177.4-98.3
					c18.2-10.1,41-3.6,51,14.4l242.5,437.9C658.9,1324.2,652.2,1347,634,1357.1z"/>
				
					<ellipse transform="matrix(0.8748 -0.4844 0.4844 0.8748 -430.8971 240.1059)" class="st0" cx="249.2" cy="953.9" rx="6.6" ry="6.5"/>
				<path class="st6" d="M355.4,853.8l-34.1,18.9c-1.2,2-2.3,4.1-3.3,6.2c-28.2,54.3-43.4,117.6-30,177c5.4,24,15.2,46.6,22.3,70.2
					c16.2,53.8,17.3,111.1,13.6,167.4l81.7,147.5c10,18,32.8,24.5,51,14.4l177.4-98.3c18.2-10.1,24.8-32.8,14.8-50.9L406.4,868.2
					C396.4,850.2,373.5,843.7,355.4,853.8z"/>
				
					<ellipse transform="matrix(0.8748 -0.4844 0.4844 0.8748 -600.0334 429.3401)" class="st5" cx="530.8" cy="1375.8" rx="23.4" ry="23.2"/>
				<polygon class="st0" points="263.9,943.5 302.1,915.8 306.8,922.3 268.6,950.1 				"/>
				
					<rect x="278.1" y="932" transform="matrix(0.8748 -0.4844 0.4844 0.8748 -508.5848 341.2733)" class="st9" width="256.1" height="445.6"/>
				
					<ellipse transform="matrix(0.8748 -0.4844 0.4844 0.8748 -599.9905 427.4001)" class="st6" cx="527.1" cy="1374.8" rx="17.9" ry="17.7"/>
				<path class="st6" d="M300.6,925l-33.7,18.6c-0.7,0.4-1.5,0.1-1.9-0.5c-0.4-0.7-0.1-1.5,0.5-1.9l33.7-18.6
					c0.7-0.4,1.5-0.1,1.9,0.5C301.5,923.8,301.3,924.6,300.6,925L300.6,925L300.6,925z"/>
				
					<ellipse transform="matrix(0.8748 -0.4844 0.4844 0.8748 -430.5524 239.8928)" class="st6" cx="248.9" cy="953.1" rx="4.5" ry="4.5"/>
				<polygon class="st10" points="239.9,947.5 248.8,950.4 245.9,959.3 237,956.4 				"/>
				<polygon class="st6" points="236.3,950.3 242.6,952.4 240.5,958.6 234.2,956.6 				"/>
			</g>
		</g>
	</g>
</g>
</svg>
