<?xml version="1.0" encoding="utf-8"?>
<!-- Generator: Adobe Illustrator 25.1.0, SVG Export Plug-In . SVG Version: 6.00 Build 0)  -->
<svg version="1.1" id="Layer_1" xmlns="http://www.w3.org/2000/svg" xmlns:xlink="http://www.w3.org/1999/xlink" x="0px" y="0px"
	 viewBox="0 0 1691.2 1795.1" style="enable-background:new 0 0 1691.2 1795.1;" xml:space="preserve">
<style type="text/css">
	.st0{fill:#D9D8D9;}
	.st1{fill:url(#SVGID_1_);}
	.st2{fill:#36154C;}
	.st3{fill:#B796F7;}
	.st4{opacity:0.86;fill:#FFFFFF;enable-background:new    ;}
	.st5{fill:url(#SVGID_2_);}
	.st6{fill:url(#SVGID_3_);}
	.st7{fill:#FFBEB6;}
	.st8{fill:#DABA4E;}
	.st9{fill:none;}
	.st10{fill:#FFFFFF;}
	.st11{font-family:'Montserrat-BoldItalic';}
	.st12{font-size:63.0751px;}
</style>
<path class="st0" d="M190.6,1195.8l-16.3,599.6h14.9l51.3-600.3L190.6,1195.8z"/>
<path class="st0" d="M767.6,1197.8l-577-2.1L0,622.8h697.2L767.6,1197.8z"/>
<path class="st0" d="M710.1,1147.8l-535.4,1.4l15.9,46.6h519.5V1147.8z"/>
<linearGradient id="SVGID_1_" gradientUnits="userSpaceOnUse" x1="771.1552" y1="1122.2711" x2="794.5552" y2="1221.5012" gradientTransform="matrix(12.25 0 0 -12.21 -8613.5254 14402.6602)">
	<stop  offset="0" style="stop-color:#FFBEB6"/>
	<stop  offset="1" style="stop-color:#F2A19C"/>
</linearGradient>
<path class="st1" d="M955.8,437.9c-2.8-28.3-27-52-27-52s0,30.4,1.4,32.8s-31.5,15-31.5,15s-10.2,59-22.8,67.4s-21.3-15.7-43.4-23.1
	c-22-7.7-28.3-0.7-14.3,8.4c13.7,9.1,61.6,50.7,56.3,92.6c-6.2,49.6-63.3,141.1-79.4,166.3c-3.5,2.8-5.2,4.9-5.2,5.9
	c1,5.6-30.8,65.3-34.3,80s55,114.2,55,114.2c23.1-17.1,41.3-52.1,55.7-90.5l0,0c47.9-129.6,47.6-269.4,65.4-309.9
	S959,465.9,955.8,437.9L955.8,437.9z"/>
<path class="st2" d="M1005.5,498L952,551.4c-2.6,2.7-6.9,2.8-9.6,0.2c-0.1-0.1-0.2-0.2-0.2-0.2L822.8,432.3l0,0l63.7-63.6l0,0
	l119.3,119.1C1008.4,490.8,1008.2,495.2,1005.5,498z"/>
<path class="st2" d="M932.7,1648.4l-52.8,147.1h372.4c0,0-19.2-36.7-82.6-63.9s-122.8-83.2-122.8-83.2H932.7"/>
<path class="st2" d="M714.3,1648.4l-52.5,146.7h372.4c0,0-19.2-36.7-82.6-63.9s-115.5-82.8-115.5-82.8L714.3,1648.4"/>
<path class="st3" d="M924.7,980.5c-110.2-11.5-284.5-16.8-284.5-16.8l-257.6,45.1c0,0-53.2,118.1,157.8,129.3
	c100.5,5.2,315.3,47.9,366.8,26.2c9.4-4.1,20.3,0.2,24.4,9.5c0,0.1,0.1,0.2,0.1,0.3c1.2,2.6,1.7,5.5,1.4,8.4
	c-1,20.3-1,30.7-29.8,108.3c-43.4,118.1-14.7,278.1,29.4,357.7h114.1c6-32.5,77.3-469.5,79.8-540.1
	C1130.1,997.2,1002.3,988.5,924.7,980.5L924.7,980.5z"/>
<path class="st3" d="M318.5,919c0,0-85.7,194.6,117.3,251.9c96.9,27.2,304.5,25.5,359.4,15.7c10.1-1.8,19.8,4.9,21.7,15
	c0.4,2.8,0.3,5.6-0.3,8.4c-5.6,19.6-8,29.7-53.2,99.2c-77,119.1-90.3,248.8-49,339.2h121.4c0,0,175-414,202.3-482.5
	c38.5-97.1-45.8-142.9-154.3-164.9s-304.1-68.8-304.1-68.8L318.5,919z"/>
<path class="st4" d="M435.4,1048.9c0.4,0,0.8-0.1,1-0.3c0.3-0.3,0-0.7-0.3-1c-0.4-0.2-0.9,0-1.1,0.3
	C434.8,1048.3,435,1048.8,435.4,1048.9L435.4,1048.9z M443.1,1031.1c0.3,0,1,0,1-0.3s0-1-0.3-1c-0.3-0.3-0.7,0-1,0.3l0,0
	C442.3,1030.4,442.7,1030.8,443.1,1031.1L443.1,1031.1z M517.3,1048.6c0.2,0.4,0.7,0.5,1,0.4c0.4-0.2,0.5-0.7,0.4-1.1l0,0l0,0
	c-0.1-0.4-0.5-0.6-0.8-0.5c-0.1,0-0.2,0.1-0.2,0.1C517.3,1047.9,516.9,1048.2,517.3,1048.6L517.3,1048.6z M407.4,1017.5
	c0.3,0.3,0.8,0.3,1,0s0.3-0.8,0-1c-0.3-0.3-0.8-0.3-1,0C407,1016.4,407,1017.1,407.4,1017.5z M475.6,1046.1c0,0.4,0.3,0.7,0.7,0.7
	c0.3,0,0.7-0.3,1-0.7s-0.3-0.7-0.7-1l0,0C476.3,1045.5,475.6,1045.8,475.6,1046.1L475.6,1046.1z M329.3,1053.8
	c0.5,0.6,1.4,0.8,2.1,0.3l0,0c0.6-0.4,0.7-1.3,0.3-1.8c-0.1-0.1-0.2-0.2-0.3-0.3c-0.5-0.6-1.4-0.7-2.1-0.3l0,0
	C328.6,1052.1,328.6,1053.1,329.3,1053.8z M357,1029.7c0.6,0.6,1.5,0.6,2.1,0s0.6-1.5,0-2.1s-1.5-0.6-2.1,0
	C356.6,1028.3,356.6,1029.1,357,1029.7z M440.3,1146c0.1,0.8,0.7,1.4,1.4,1.8c0.8,0,1.6-0.6,1.8-1.4l0,0c-0.1-0.8-0.7-1.4-1.4-1.8
	C441.2,1144.6,440.4,1145.2,440.3,1146z M442.7,1109.3c-0.1,0.9,0.5,1.6,1.4,1.7s1.6-0.5,1.7-1.4s-0.5-1.6-1.4-1.7
	C443.6,1107.9,442.8,1108.5,442.7,1109.3z M445.5,1072.7c0.1,0.8,0.7,1.4,1.4,1.7l0,0c0.8,0,1.6-0.6,1.8-1.4l0,0
	c0-0.7-0.7-1.8-1.4-1.8C446.2,1070.9,445.5,1071.6,445.5,1072.7z M448,1035.7c0,0.7,0.7,1.7,1.4,1.7s1.8-0.7,1.8-1.4l0,0
	c-0.1-0.8-0.7-1.4-1.4-1.7l0,0C448.9,1034.2,448.1,1034.8,448,1035.7z M312.5,990.2c0.3,0.9,1.2,1.3,2.1,1s1.3-1.2,1-2.1l0,0
	c-0.4-0.7-1.3-1.1-2.1-1c-0.8,0.1-1.3,0.9-1.2,1.7C312.4,990,312.5,990.2,312.5,990.2L312.5,990.2z M369.9,1110.1
	c0.8,0.4,1.7,0.1,2.1-0.7c0.4-0.8,0.1-1.7-0.7-2.1c-0.8-0.4-1.7-0.1-2.1,0.7l0,0C368.9,1108.7,369.2,1109.6,369.9,1110.1z
	 M386.4,1077.2c0.8,0.4,1.7,0.1,2.1-0.7c0.4-0.8,0.1-1.7-0.7-2.1c-0.8-0.4-1.7-0.1-2.1,0.7l0,0
	C385.3,1075.8,385.7,1076.5,386.4,1077.2L386.4,1077.2z M402.8,1044c0.8,0.4,1.7,0.1,2.1-0.7c0.4-0.8,0.1-1.7-0.7-2.1
	c-0.8-0.4-1.7-0.1-2.1,0.7l0,0C401.8,1042.7,402.1,1043.6,402.8,1044L402.8,1044z M510.3,1120.2c0.4,0.7,1.3,1.2,2.1,1.1
	c0.7-0.3,1.1-1,1.1-1.8c-0.3-0.7-1.1-1.4-1.8-1.1l0,0C510.3,1118.8,510,1119.5,510.3,1120.2L510.3,1120.2z M498.4,1085.3
	c0.3,0.9,1.2,1.3,2.1,1.1c0.9-0.3,1.3-1.2,1.1-2.1c-0.3-0.9-1.2-1.3-2.1-1.1l0,0l0,0C498.8,1083.6,498.4,1084.4,498.4,1085.3z
	 M486.8,1050.3c0.3,0.6,1,1,1.8,1l0,0c0.7-0.3,1.4-1,1-1.8l0,0c-0.4-0.7-1.3-1.1-2.1-1C486.4,1048.6,486.4,1049.6,486.8,1050.3
	L486.8,1050.3z M338.1,1092.9c0.7,0.3,1.4,0.3,1.8-0.3s0.4-1.4-0.4-1.8s-1.4-0.3-1.8,0.3l0,0C337,1091.9,337.4,1092.6,338.1,1092.9z
	 M355.6,1065c0.7,0.3,1.4,0.3,1.8-0.3s0.4-1.4-0.4-1.8s-1.4-0.3-1.8,0.3l0,0C354.5,1063.9,354.9,1064.6,355.6,1065z M372.4,1036.3
	c0,0.4,0.3,0.7,0.7,0.7c0.7,0.3,1.4,0.3,1.8-0.3s0.4-1.4-0.4-1.7c-0.4-0.3-0.7-0.3-1.4,0l0,0c-0.4,0-0.4,0.3-0.7,0.3V1036.3
	L372.4,1036.3z M390.6,1009.4c0.6,0.3,1.4,0,1.7-0.6v-0.1c0.3-0.6,0.1-1.3-0.3-1.7c-0.7-0.3-1.4-0.3-1.8,0.3
	C389.5,1008.1,389.9,1008.7,390.6,1009.4L390.6,1009.4z M474.2,1115c0.3,0.7,1,1.1,1.8,1.1c0.7,0,1-0.7,1-1.4l0,0c0-0.7-0.7-1-1.8-1
	l0,0C474.6,1113.6,474.2,1114.3,474.2,1115L474.2,1115z M466.9,1083.2c0.3,0.6,1,1,1.8,1c0.7,0,1-0.7,1-1.4l0,0c0-0.7-0.7-1-1.8-1
	l0,0C467.2,1081.4,466.9,1082.1,466.9,1083.2z M459.5,1051c0,0.7,0.7,1,1.8,1l0,0c0.7,0,1-0.7,1-1.4l0,0c0-0.7-0.7-1-1.8-1l0,0
	C459.9,1049.3,459.5,1050.3,459.5,1051L459.5,1051z M324.1,1014.3c0.4,0.6,1.1,0.8,1.7,0.4c0,0,0,0,0.1,0l0,0c0.7-0.3,0.7-1,0.4-1.7
	l0,0c-0.4-0.6-1.1-0.8-1.7-0.4c0,0,0,0-0.1,0l0,0C323.7,1013,323.7,1013.6,324.1,1014.3z M351,995.1c0.4,0.6,1.2,0.7,1.7,0.3
	c0.6-0.4,0.7-1.2,0.3-1.7c-0.4-0.6-1.2-0.7-1.7-0.3C350.7,993.7,350.7,994.4,351,995.1z M403.5,1099.9c0,0.7,0.3,1.4,1,1.4
	s1.4-0.3,1.4-1l0,0c0-0.7-0.4-1.4-1-1.8C404.6,1098.9,403.5,1099.3,403.5,1099.9L403.5,1099.9z M409.1,1067.5c0,0.7,0.3,1.4,1,1.4
	l0,0c0.7,0,1.4-0.3,1.4-1l0,0c0-0.7-0.4-1.4-1-1.8C409.9,1066.4,409.2,1066.8,409.1,1067.5L409.1,1067.5z M414.4,1035
	c0,0.7,0.3,1.4,1,1.4s1.4-0.3,1.4-1l0,0c0-0.7-0.3-1.4-1-1.4C415.2,1034,414.7,1034.4,414.4,1035L414.4,1035z M527.1,1073.7
	c0.3,0.7,1,0.7,1.8,0.3l0,0c0.6-0.3,0.7-1.1,0.4-1.7c0,0,0-0.1-0.1-0.1l0,0c-0.4-0.6-1.1-0.8-1.7-0.4c0,0,0,0-0.1,0
	C526.7,1072.3,526.7,1073,527.1,1073.7z M507.8,1046.8c0.3,0.7,1.4,0.7,2.1,0.3s0.7-1.4,0.3-2.1c-0.4-0.6-1.1-0.8-1.7-0.4
	c0,0,0,0-0.1,0C507.5,1045.4,507.5,1046.1,507.8,1046.8L507.8,1046.8z M340.2,1011.5c0.3,0.3,0.7,0.3,1,0s0.3-0.7,0-1s-0.7-0.3-1,0
	l0,0l0,0C339.8,1010.5,339.8,1011.2,340.2,1011.5z M353.5,997.2c0.3,0.3,0.8,0.3,1,0c0.3-0.3,0.3-0.8,0-1c-0.3-0.3-0.8-0.3-1,0l0,0
	c-0.3,0.2-0.3,0.6-0.1,0.9C353.4,997.1,353.4,997.2,353.5,997.2z M416.5,1039.5c0,0.4,0.3,0.7,0.7,0.7s0.7-0.3,0.7-0.7
	c0-0.4-0.3-0.7-0.7-0.7l0,0l0,0C416.8,1038.8,416.5,1039.1,416.5,1039.5z M415.8,1020.3c0,0.3,0.3,0.7,1,0.7c0.4,0,0.7-0.3,0.7-0.7
	l0,0c0-0.4-0.3-0.7-0.7-0.7l0,0C416.1,1019.2,415.8,1019.6,415.8,1020.3z M378.7,1023.4c0.4,0.2,0.9,0,1.1-0.3s0-0.9-0.4-1.1l0,0
	l0,0c-0.4,0-0.8,0.1-1,0.3l0,0C378.3,1022.7,378.3,1023.4,378.7,1023.4L378.7,1023.4z M385.7,1005.3c0.4,0,0.7-0.1,1-0.3
	c0-0.3,0-1-0.4-1c-0.4-0.3-0.7,0-1,0.3l0,0C384.9,1004.6,385.3,1005,385.7,1005.3L385.7,1005.3z M326.2,1030.8
	c0.3,0.2,0.7,0.1,0.9-0.2c0,0,0.1-0.1,0.1-0.2l0,0c0.3-0.4,0.3-0.9-0.1-1.2c-0.1-0.1-0.2-0.1-0.3-0.2l0,0c-0.3-0.2-0.7-0.2-0.9,0.1
	c-0.1,0.1-0.1,0.1-0.1,0.2l0,0C325.8,1029.9,325.9,1030.4,326.2,1030.8z M338.1,1011.9c0.4,0.3,1,0,1.4-0.3s0-1-0.4-1.4
	c-0.3-0.2-0.7-0.2-0.9,0.1c-0.1,0.1-0.1,0.1-0.1,0.2l0,0C337.7,1011.2,337.7,1011.5,338.1,1011.9z M350,993.4c0.4,0.3,0.7,0,1,0l0,0
	c0.4-0.3,0-1-0.4-1.4s-1,0-1.4,0.3C349.6,992.7,349.6,993,350,993.4L350,993.4z M417.9,1046.5c0,0.3,0.3,0.7,1,0.7l0,0
	c0.3,0,0.7-0.7,0.7-1s-0.7-0.7-1-0.7S417.9,1046.2,417.9,1046.5L417.9,1046.5z M413,1024.8c0,0.3,0.7,0.7,1,0.7l0,0
	c0.3,0,0.7-0.7,0.7-1s-0.7-0.7-1-0.7S413,1024.5,413,1024.8L413,1024.8z M319.2,977.3c0.4,0.3,0.7,0.3,1.4,0.3
	c0.4-0.3,0.7-0.7,0.4-1.4l0,0c-0.4-0.4-1-0.4-1.4,0C318.8,976.3,318.8,977,319.2,977.3z M372.4,1036.3L372.4,1036.3
	c0.7,0.3,1.4,0,1.4-0.7l0,0c0-0.3-0.4-1-0.7-1l0,0c-0.4,0-1,0.3-1,0.7l0,0C372,1036,372,1036.3,372.4,1036.3z M375.9,1013.6
	c0,0.3,0.4,1,0.7,1s1-0.3,1-0.7s-0.4-1-0.7-1S375.9,1013.3,375.9,1013.6z M343.3,1090.5c0,0.7,0.4,1.8,1.4,1.8
	c0.7,0,1.8-0.3,1.8-1.4c0-0.7-0.4-1.7-1.4-1.7S343.3,1089.5,343.3,1090.5z M348.9,1052.8c0,0.7,0.4,1.8,1.4,1.8
	c0.7,0,1.8-0.3,1.8-1.4c0-0.7-0.4-1.7-1.4-1.7C349.9,1051.5,349.2,1052,348.9,1052.8z M354.9,1015.4c0,0.7,0.4,1.8,1.4,1.8
	c0.7,0,1.8-0.3,1.8-1.4c0-0.7-0.4-1.8-1.4-1.8C355.8,1014,355.1,1014.6,354.9,1015.4z M493.5,1091.5c0.5,0.6,1.4,0.8,2.1,0.3
	c0.7-0.3,0.7-1.4,0.3-2.1s-1.4-0.7-2.1-0.3l0,0c-0.6,0.3-0.9,1.1-0.6,1.8C493.3,1091.3,493.4,1091.4,493.5,1091.5L493.5,1091.5z
	 M471.1,1060.8c0.3,0.7,1.4,0.7,2.1,0.3c0.6-0.5,0.8-1.4,0.3-2.1c-0.3-0.7-1.4-0.7-2.1-0.3c-0.7,0.3-0.9,1.1-0.6,1.8
	C470.9,1060.6,471,1060.7,471.1,1060.8z M308.7,1021c0.8,0.4,1.7,0.1,2.1-0.7s0.1-1.7-0.7-2.1l0,0c-0.7-0.3-1.8-0.3-2.1,0.3
	C307.8,1019.4,308.1,1020.3,308.7,1021L308.7,1021z M328.6,988.5c0.7,0.3,1.8,0.3,2.1-0.3l0,0c0.4-0.7,0.4-1.7-0.4-2.1
	s-1.8-0.3-2.1,0.3l0,0C327.6,987.1,327.9,987.8,328.6,988.5z M412.3,1108.7c0.3,0.8,1.2,1.3,2.1,1c0.7-0.3,1.4-1,1-1.8s-1-1.4-1.8-1
	l0,0C412.7,1106.9,412,1107.6,412.3,1108.7L412.3,1108.7z M403.2,1071.7c0.3,0.7,1,1.4,1.8,1l0,0c0.7-0.3,1.4-1,1-1.8s-1-1.4-1.8-1
	C403.5,1070.2,403.1,1070.9,403.2,1071.7z M394.5,1034.7c0.3,0.7,1,1.4,1.8,1l0,0c0.7-0.3,1.3-1,1.4-1.7c-0.3-0.7-1-1.3-1.8-1.4
	C394.9,1032.9,394.1,1033.9,394.5,1034.7L394.5,1034.7z M389.2,1121c0.4,0.7,1,1.4,1.8,1s1.4-1,1-1.8s-1-1.4-1.8-1
	c-0.7,0-1.2,0.6-1.1,1.3C389.1,1120.6,389.1,1120.8,389.2,1121L389.2,1121z M381.9,1083.6c0.1,0.9,0.9,1.5,1.7,1.4
	c0.9-0.1,1.5-0.9,1.4-1.7c-0.1-0.9-0.9-1.5-1.7-1.4C382.3,1082.2,381.5,1082.8,381.9,1083.6z M374.5,1046.6c0.3,0.7,1,1.3,1.8,1.4
	c0.7,0,1.4-1,1.4-1.7s-1-1.4-1.8-1.4l0,0C374.9,1044.8,374.2,1045.8,374.5,1046.6z M367.2,1009.6c0,0.7,1,1.4,1.8,1.4l0,0
	c0.7,0,1.4-1,1.4-1.8s-1-1.4-1.8-1.4C367.5,1007.8,366.8,1008.5,367.2,1009.6z M317.8,1062.7c0,0.7,0.4,1.7,1.4,1.7
	c0.7,0.2,1.5-0.1,1.7-0.8c0-0.1,0-0.1,0-0.2c0-0.7-0.4-1.7-1.4-1.7c-0.6-0.3-1.3-0.1-1.7,0.5c-0.1,0.1-0.1,0.3-0.1,0.4L317.8,1062.7
	z M325.2,1025.7c-0.2,0.7,0.1,1.5,0.8,1.7c0.1,0,0.1,0,0.2,0.1c0.7,0,1.8-0.3,1.8-1.1l0,0c0-0.7-0.4-1.7-1.4-1.7
	C326.2,1024.3,325.2,1024.6,325.2,1025.7L325.2,1025.7z M332.5,988.3c0,0.7,0.4,1.8,1.4,1.8c0.7,0,1.8-0.3,1.8-1.4s-0.4-1.8-1.4-1.8
	C333.5,987,332.8,987.6,332.5,988.3z M453.3,1074.2c0.5,0.7,1.4,0.8,2.1,0.4c0.7-0.5,0.8-1.4,0.4-2.1c-0.5-0.7-1.4-0.8-2.1-0.4l0,0
	l0,0C452.9,1072.5,452.6,1073.2,453.3,1074.2z M431.9,1042.5c0.5,0.7,1.4,0.8,2.1,0.4c0.7-0.5,0.8-1.4,0.4-2.1
	c-0.5-0.7-1.4-0.8-2.1-0.4l0,0l0,0C431.8,1040.9,431.7,1041.7,431.9,1042.5z M389.9,1055.7c0.2,0.6,0.9,0.8,1.5,0.6
	c0.5-0.2,0.8-0.8,0.6-1.3c-0.3-0.7-1-1-1.4-0.7l0,0C389.9,1054.3,389.6,1055,389.9,1055.7L389.9,1055.7z M378.7,1029.5
	c0.4,0.7,1,0.7,1.8,0.7c0.5-0.3,0.8-0.8,0.7-1.4c-0.4-0.7-1-1-1.4-0.7l0,0C378.8,1028.1,378.4,1028.8,378.7,1029.5L378.7,1029.5z
	 M367.5,1003c0.3,0.5,0.8,0.8,1.4,0.7c0.4,0,0.7-1,0.7-1.4c-0.3-0.5-0.8-0.8-1.4-0.7c-0.8,0.2-1.1,0.9-0.8,1.2L367.5,1003z
	 M329.3,1052.4c0,0.6,0.4,1.1,1,1.1s1.1-0.4,1.1-1s-0.4-1.1-1-1.1l0,0l0,0c-0.5-0.1-1,0.3-1,0.8
	C329.3,1052.3,329.3,1052.3,329.3,1052.4z M329,1024.1c0,0.6,0.5,1.1,1.1,1.1s1-0.5,1-1.1l0,0c0-0.5-0.3-1-0.8-1c-0.1,0-0.1,0-0.2,0
	l0,0C329.3,1022.8,329,1023.5,329,1024.1L329,1024.1z M328.6,995.5c0,0.5,0.3,1,0.8,1c0.1,0,0.1,0,0.2,0l0,0c0.5,0,1-0.3,1-0.9v-0.1
	l0,0c0-0.5-0.5-1-1-1.1C329,994.1,328.6,994.8,328.6,995.5z M322,989.5c0,0.4,0.3,0.7,0.7,0.7s0.7-0.3,0.7-0.7s-0.3-0.7-0.7-0.7l0,0
	l0,0C322.3,988.9,322,989.2,322,989.5z M340.5,1014.7c0.4,0.3,1,0.7,1.4,0.3l0,0c0.4-0.3,0.7-0.7,0.4-1.4l0,0
	c-0.4-0.3-0.7-0.7-1.4-0.3l0,0c-0.4,0.2-0.7,0.6-0.5,1.1C340.4,1014.5,340.5,1014.6,340.5,1014.7z M326.5,993
	c0.4,0.3,0.7,0.7,1.4,0.3l0,0c0.4-0.3,0.7-1,0.4-1.4l0,0c-0.4-0.3-1-0.7-1.4-0.3C326.5,991.6,326.2,992.3,326.5,993z M312.9,971
	c0.4,0.3,1,0.7,1.4,0.3s0.7-1,0.4-1.4l0,0c-0.4-0.3-1-0.7-1.4-0.3c-0.4,0.2-0.7,0.6-0.5,1.1C312.8,970.8,312.8,970.9,312.9,971z"/>
<path class="st2" d="M723.1,702.7c-13.3-33.5-12.6-37-14.3-53.8c-5.2-48.2,80.5-73.4,80.5-73.4l-71.4-71.3
	c-169.8,45.8-218.5,144.7-237.4,201c-23.1,69.2-11.5,115.6,27,155.8c29.4,30.4,65.4,32.8,122.5,95.7
	c50.4,55.9,155.7,67.8,155.7,67.8l5.2-274.2C791,749.9,758.1,753.7,723.1,702.7z"/>
<linearGradient id="SVGID_2_" gradientUnits="userSpaceOnUse" x1="730.5015" y1="1042.1931" x2="633.7515" y2="975.0231" gradientTransform="matrix(9.08 8.23 8.2 -9.04 -14257.6367 4463.3594)">
	<stop  offset="0" style="stop-color:#FFBEB6"/>
	<stop  offset="0.65" style="stop-color:#F7ABA5"/>
	<stop  offset="1" style="stop-color:#F2A19C"/>
</linearGradient>
<path class="st5" d="M1013.6,1107.3c0,0-54.9-26.2-59.8-40.2s20.6-16.8,33.6-35.6c13-19.2,8-26.9-4.2-16.1s-64.7,46.5-103.9,30.4
	c-54.2-22-145.9-125.4-145.9-125.4l-93.1,105.2c37.5,28.3,203,49.3,237.3,77.2c34.3,27.9,83.3,64.3,111.3,68.8
	c24.2,3.8,53.9-16.4,61.2-22C1082.9,1131,1013.6,1107.3,1013.6,1107.3L1013.6,1107.3z"/>
<path class="st2" d="M789.2,575.2l-71.4-70.9c-47.4,6-93.4,20.3-135.8,42.3c-23.3,12.2-45.6,26.1-66.8,41.6
	c-97.6,71.3-97.6,113.2-152.6,156.5l-0.4,0.3c-54.6,43-126.7,94-102.5,193.5c24.5,14.3,47.6,26.9,69.6,38.1
	c72.8,36.7,134,58,184.8,68.8l0,0c30.5,7,61.8,10.5,93.1,10.5c24.7,0,49.4-3.5,73.1-10.5c9.3-2.8,18.3-6.4,27-10.8
	c24.5-3.5,48.6-9.1,72.1-16.8C654.1,833.4,789.2,575.2,789.2,575.2L789.2,575.2z"/>
<path class="st2" d="M789.2,575.2c0,0-151.9,95.4-117.2,228.5c10.2,38.8,35.3,58.3,81.2,72.7c54.9,17.5,69.3,16.8,69.3,16.8
	l-15.4,248.7c0,0-115.5,2.1-165.9-53.8c-56.3-62.9-102.5-70.6-136.8-95c-52.5-37-66.2-99.9-62.7-172.6
	c6.3-137,106.7-270.4,276.5-316.5"/>
<linearGradient id="SVGID_3_" gradientUnits="userSpaceOnUse" x1="761.0743" y1="1130.4564" x2="779.9842" y2="1156.3364" gradientTransform="matrix(12.25 0 0 -12.21 -8613.5254 14402.6602)">
	<stop  offset="0" style="stop-color:#FFBEB6"/>
	<stop  offset="1" style="stop-color:#F2A19C"/>
</linearGradient>
<path class="st6" d="M852.9,473.9c0,0-30.5,34.9-63.7,101.7c0,0-58.4,13.6-71.4-71.3c0,0,61.6-28,63.7-57.6L852.9,473.9z"/>
<path class="st7" d="M935.5,387.9v8.4c-1.4,25.2,13.3,47.9,11.9,54.5s-15.4,9.1-22,8.4s-20,29.7-49.3,43.3
	c-27.7,12.9-63.7,4.2-85.4-13.6c0-54.8,8.4-91.9,64.1-106.2c60.9-15.7,68.9-39.5,68.9-39.5C930.9,357.1,935,372.4,935.5,387.9
	L935.5,387.9z"/>
<ellipse class="st0" cx="773.3" cy="224.6" rx="63.9" ry="63.6"/>
<path class="st2" d="M972.6,415.5c5.2-14,1.8-29.3-7.3-34.2s-21,2.4-26.2,16.4c-0.6,1.6-1.1,3.2-1.4,4.9c-6.3-1.8-12.2,1.4-17.5,5.2
	c0.1-0.8-0.1-1.7-0.3-2.5c-1-6.6-4.9-12.5-10.5-16.1c-10.8-5.6-24.2,2.8-30.1,19.2c-2.8,7.6-3.5,15.8-2.1,23.8
	c1,5.3,3.6,10.2,7.3,14c1,0.8,2,1.5,3.2,2.1c5.5,2.7,12.1,2.2,17.2-1.4c6.3-4.3,11-10.6,13.3-17.8c2-5.4,2.9-11.1,2.8-16.8
	c4.9-3.5,10.8-7.3,16.4-5.6c-1,9.8,1.4,18.9,7,23.4c0.8,0.8,1.8,1.4,2.8,1.7C955.8,436.9,967.3,429.5,972.6,415.5z M902.6,442.8
	c-4.2,3.1-9.7,3.6-14.3,1.4c-4.8-3-8-8-8.8-13.6c-1.4-7-0.8-14.3,1.8-21c5.2-14.3,16.8-21.7,25.9-17.1c0.9,0.4,1.8,1,2.4,1.7
	c3.2,3.1,5.4,7.1,6.3,11.5c1.4,7,0.8,14.3-1.8,21C912.4,433.3,908.3,439,902.6,442.8L902.6,442.8z M947.8,428.1
	c-7.7-4.2-10.2-17.1-6-29s14-18.5,21.7-14.3s10.1,17.1,5.9,29S955.5,432.3,947.8,428.1L947.8,428.1z"/>
<path class="st0" d="M825.6,260.4c-32.9-6.6-58.8-1-77.7,10.1c-22.6-1.2-41.1-18.4-44.1-40.9c-0.3-2.1-3.8-1.4-3.5,1
	c3.1,22.3,20.7,39.9,43,43c-12.6,8.4-22.8,19.9-29.4,33.5l-4.2,6.3c-13,19.6-25.6,34.2-46.9,45.1c-28.3,14.3-65.1,27.6-65.5,65
	c0,1,0.8,1.8,1.8,1.8s1.8-0.8,1.8-1.8c0.3-45.8,55.7-52,84-74.4c7.4-6.3,13.9-13.6,19.2-21.7c-8.4,16.4-21.3,36.3-43.4,44
	c-41.7,14.7-49,63.9-49,63.9c72.5,68.8,203,72.3,203,72.3c27.3-59.4-5.6-87.7,44.8-111.1c57-26.5,64.4-53.1,64.4-53.1
	c7.5,14.2,11.4,30,11.6,46.1C959.6,307.9,886.8,273,825.6,260.4L825.6,260.4z"/>
<path class="st8" d="M1685.8,229.9c36.9,105.4-116.9,231.7-380.8,206c-63.3-6.1-123.2-13.1-175.2-31.2l-11,2.9
	c-19.8,10.6-146.6,74.6-148.8,76.2c-1.3,0.9,48.9-66.7,64.2-125.5c-61.2-40.9-172-130-61-239.7c83-81.5,191.1-118.4,346-118.6
	C1541.7-0.5,1645.7,115.5,1685.8,229.9z"/>
<rect x="1108.8" y="101" class="st9" width="649.4" height="187.2"/>
<text transform="matrix(1 0 0 1 1055.7454 198.9001)" class="st10 st11 st12">Hi Grandma,</text>
<text transform="matrix(1 0 0 1 1055.7454 266.9001)" class="st10 st11 st12">I need your help...</text>
</svg>
