<?xml version="1.0" encoding="utf-8"?>
<!-- Generator: Adobe Illustrator 25.1.0, SVG Export Plug-In . SVG Version: 6.00 Build 0)  -->
<svg version="1.1" id="Layer_1" xmlns="http://www.w3.org/2000/svg" xmlns:xlink="http://www.w3.org/1999/xlink" x="0px" y="0px"
	 viewBox="0 0 922.8 1071.4" style="enable-background:new 0 0 922.8 1071.4;" xml:space="preserve">
<style type="text/css">
	.st0{clip-path:url(#SVGID_2_);}
	.st1{fill:#B796F7;}
	.st2{fill:url(#SVGID_3_);}
	.st3{fill:#FFFFFF;}
	.st4{clip-path:url(#SVGID_5_);}
	.st5{fill:#36154C;}
	.st6{fill:none;}
	.st7{fill:#FFBEB6;}
	.st8{fill:#1C2868;}
</style>
<g>
	<defs>
		
			<rect id="SVGID_1_" x="340.7" y="84.1" transform="matrix(0.5564 -0.8309 0.8309 0.5564 -101.4667 579.3293)" width="302.3" height="601.2"/>
	</defs>
	<clipPath id="SVGID_2_">
		<use xlink:href="#SVGID_1_"  style="overflow:visible;"/>
	</clipPath>
	<g class="st0">
		<path class="st1" d="M733.8,512.6c0.2,0.2,0.5,0.3,0.7,0.5c12.9,8.9,16.1,26.6,7.2,39.4s-26.6,16.1-39.4,7.2L371.3,338.1
			c-0.2-0.2-0.5-0.3-0.7-0.5c-12.9-8.9-16.1-26.6-7.2-39.4c8.9-12.9,26.6-16.1,39.4-7.2L733.8,512.6L733.8,512.6z"/>
		
			<ellipse transform="matrix(0.5564 -0.8309 0.8309 0.5564 -87.5129 439.8052)" class="st1" cx="368.2" cy="301.9" rx="151.1" ry="151.7"/>
		
			<linearGradient id="SVGID_3_" gradientUnits="userSpaceOnUse" x1="-835.1371" y1="-30.7151" x2="-796.937" y2="-30.7151" gradientTransform="matrix(4.6197 3.0938 3.0827 -4.6031 4232.4712 2684.9712)">
			<stop  offset="0" style="stop-color:#EEEEEE"/>
			<stop  offset="1" style="stop-color:#E7E8E9"/>
		</linearGradient>
		<path class="st2" d="M456.4,361c-32.5,48.6-98.4,61.5-147.1,28.8s-61.9-98.4-29.4-147S378.3,181.3,427,214S488.9,312.4,456.4,361z
			"/>
		
			<ellipse transform="matrix(0.5564 -0.8309 0.8309 0.5564 -116.6502 397.3985)" class="st3" cx="313.9" cy="308" rx="21.4" ry="21.5"/>
	</g>
</g>
<g>
	<defs>
		<rect id="SVGID_4_" x="497" y="63" width="425.8" height="827"/>
	</defs>
	<clipPath id="SVGID_5_">
		<use xlink:href="#SVGID_4_"  style="overflow:visible;"/>
	</clipPath>
	<g class="st4">
		<g id="L_trousers-i2">
			<path class="st5" d="M696.6,506.6c6.4-20.5,18.5-43.6,25.2-55.8l19.1,23.3c0,0,34.4-9.2,45.6-45c1.6-5.1,2.8-9.5,4.4-13.6
				c-4.2,39.1-9.9,104-10.8,158.9v11.7c-7.5,9.8-15.6,53.8-38.6,72.7c-42.8,35-30,84.1-52.8,116c-20.3,28.1-41.6,46.2-41.6,46.2
				h-53.1C594.1,820.8,687.5,536,696.6,506.6z"/>
		</g>
		<g id="shoe-i2">
			<path id="R_shoe-i2" class="st1" d="M839.2,820.8h-53.4c0,0-28.1,26.4-57.9,39.1C698,872.7,689,890,689,890h175L839.2,820.8"/>
			<path id="R_shoe_1_-i2" class="st1" d="M647.2,820.8h-53.4c0,0-28.1,26.4-57.9,39.1C505.9,872.7,497,890,497,890h175L647.2,820.8
				"/>
		</g>
		<g id="trousers-i2">
			<path id="R_trousers_1_-i2" class="st5" d="M779.9,574.4c0.9-55.2,6.6-119.7,10.8-158.9c8.6-25,14.5-34.5,25.9-45.9
				c11.1-11,28.3-38.9,12.5-76.5c19.3-9.9,42.5-30.3,59.7-47c2.4,2.8,50,58.2,28.5,152.7c-22.1,96.9-23.9,83.3-20.4,151.4
				c3.6,67.9-7.6,45.1-10.9,116.5c-3.4,71.7-0.8,109-46.7,154.1h-53.5C785.7,820.8,779.1,636,779.9,574.4z"/>
		</g>
		<g id="_6_17_-i2">
			<path id="_1_98_-i2" class="st6" d="M856.8,267.7l3.1,1.4l3.1-7.5C860.8,263.5,858.7,265.5,856.8,267.7z"/>
		</g>
		<path id="texture_1_-i2" class="st3" d="M836.8,304c-0.2,0.2-0.2,0.2-0.5,0.2c-0.2-0.2-0.2-0.2-0.2-0.5c0.2-0.2,0.2-0.2,0.5-0.2
			C836.8,303.5,836.8,303.7,836.8,304z M843,306.1c-0.2,0-0.5,0-0.5,0.2s0,0.5,0.2,0.5s0.5,0,0.5-0.2
			C843.2,306.4,843.1,306.2,843,306.1z M835.3,292.7C835.3,292.7,835.3,292.7,835.3,292.7c-0.1,0-0.2,0.1-0.2,0.2
			c0,0.1,0.1,0.2,0.2,0.2c0.1,0,0.3-0.1,0.3-0.2C835.5,292.7,835.5,292.6,835.3,292.7z M842.5,292.9c0-0.1-0.1-0.2-0.2-0.2l-0.2,0.2
			c0,0.1,0.1,0.2,0.2,0.2C842.3,293.1,842.5,293.1,842.5,292.9C842.5,292.9,842.5,292.9,842.5,292.9z M849.6,293.2
			C849.6,293.2,849.6,293.2,849.6,293.2c0-0.1-0.1-0.3-0.2-0.3c0,0-0.1,0-0.1,0c-0.1,0-0.2,0.1-0.2,0.3c0,0.1,0.1,0.2,0.3,0.2
			c0,0,0,0,0,0C849.5,293.4,849.6,293.3,849.6,293.2L849.6,293.2z M837.7,319.7h-0.5v0.5c0.2,0,0.2,0.2,0.5,0V319.7z M834.4,301.1
			c0-0.2-0.1-0.5-0.2-0.6c-0.2,0-0.5,0.1-0.6,0.2l0,0c-0.1,0.2,0,0.5,0.2,0.6S834.3,301.3,834.4,301.1L834.4,301.1z M842.5,306.3
			c0.2-0.2,0.2-0.4-0.2-0.6c-0.2,0-0.5,0.1-0.6,0.2c0,0.2,0.1,0.5,0.2,0.6C842.1,306.6,842.3,306.5,842.5,306.3L842.5,306.3z
			 M850.6,310.7c-0.2,0-0.5,0.1-0.6,0.2c-0.1,0.2,0,0.5,0.2,0.6s0.5,0,0.6-0.2C851.1,311.2,851.1,311,850.6,310.7z M859.2,316.5
			c0.2,0,0.2-0.5-0.2-0.7c-0.2,0-0.5,0.1-0.6,0.2c0,0.2,0.1,0.5,0.2,0.6C858.8,316.7,859,316.6,859.2,316.5L859.2,316.5z M846.5,284
			c0-0.2-0.2-0.5-0.5-0.3c-0.2,0-0.2,0.2-0.2,0.5s0.2,0.2,0.5,0.2S846.5,284.2,846.5,284L846.5,284z M856.1,281.5
			c0-0.2-0.2-0.3-0.5-0.3s-0.2,0.2-0.2,0.5s0.2,0.2,0.5,0.2S856.1,281.7,856.1,281.5L856.1,281.5z M865.5,279.3c0-0.1,0-0.2-0.1-0.2
			c-0.1-0.1-0.3-0.1-0.4,0c-0.2,0-0.2,0.2-0.2,0.5s0.2,0.2,0.5,0.2S865.5,279.5,865.5,279.3L865.5,279.3z M841.9,294.7
			c0-0.2-0.2-0.4-0.5-0.5c-0.2,0-0.4,0.2-0.4,0.4c0,0.3,0.2,0.5,0.4,0.5C841.6,295.1,841.8,294.9,841.9,294.7L841.9,294.7z
			 M851.5,296.3c0-0.3-0.2-0.5-0.5-0.5c-0.2,0-0.4,0.2-0.4,0.4c0,0.3,0.2,0.5,0.4,0.5C851.3,296.7,851.5,296.5,851.5,296.3
			L851.5,296.3z M861.1,297.8c0,0,0-0.1,0-0.1c0-0.3-0.3-0.4-0.5-0.4c-0.3,0-0.5,0.2-0.5,0.5c0,0.3,0.2,0.5,0.5,0.5
			C860.9,298.3,861.1,298.1,861.1,297.8L861.1,297.8z M870.3,298.9c-0.3,0-0.5,0.2-0.5,0.5c0,0.3,0.2,0.5,0.5,0.5
			c0.3,0,0.5-0.2,0.5-0.5C870.8,299.1,870.6,298.9,870.3,298.9z M837.7,291.4c0-0.2-0.1-0.3-0.2-0.5c-0.2,0-0.5,0-0.5,0.2
			s0,0.5,0.2,0.5C837.5,291.7,837.7,291.7,837.7,291.4L837.7,291.4z M844.9,293.2c-0.1-0.1-0.2-0.3-0.2-0.5c-0.2,0-0.5,0-0.5,0.2
			s0,0.5,0.2,0.5S844.9,293.4,844.9,293.2L844.9,293.2z M852.2,294.9c-0.1-0.1-0.2-0.3-0.2-0.5c-0.2,0-0.5,0-0.5,0.2
			c0,0.2,0,0.5,0.2,0.5S852.2,295.2,852.2,294.9L852.2,294.9z M859.4,296.7c0-0.2-0.2-0.2-0.2-0.5c-0.2,0-0.5,0-0.5,0.2
			s0,0.5,0.2,0.5S859.4,297,859.4,296.7L859.4,296.7z M834.6,306.6h-0.5v0.5h0.5V306.6z M838.3,312.9h-0.5v0.5h0.5
			C838.6,313.4,838.6,313.2,838.3,312.9z M842.3,319.7c0,0,0.2-0.2,0-0.5h-0.5v0.5L842.3,319.7L842.3,319.7z M848.6,283.5
			c-0.2,0.2-0.2,0.2-0.2,0.5c0.2,0.2,0.2,0.2,0.5,0.2c0.2-0.2,0.2-0.2,0.2-0.5C849,283.6,848.8,283.5,848.6,283.5z M856.6,282.6
			c0-0.2-0.2-0.2-0.5-0.2c-0.2,0.2-0.2,0.2-0.2,0.5c0.2,0.2,0.2,0.2,0.5,0.2C856.6,282.9,856.6,282.9,856.6,282.6L856.6,282.6z
			 M863.8,281.5c0-0.2-0.2-0.2-0.5-0.2c-0.2,0.2-0.2,0.2-0.2,0.5c0.2,0.2,0.2,0.2,0.5,0.2C863.8,281.8,863.8,281.8,863.8,281.5
			L863.8,281.5z M838.3,298.6c-0.2-0.2-0.5-0.2-0.5,0c-0.2,0.2-0.2,0.5,0,0.5c0.2,0.2,0.5,0.2,0.5,0
			C838.6,298.9,838.6,298.7,838.3,298.6z M844.5,303c-0.2-0.2-0.5-0.2-0.5,0c-0.2,0.2-0.2,0.5,0,0.5c0.2,0.2,0.5,0.2,0.5,0V303z
			 M850.5,307.5c-0.2-0.2-0.5-0.2-0.5,0c-0.2,0.2-0.2,0.5,0,0.5c0.2,0.2,0.5,0.2,0.5,0V307.5z M856.3,312.1c0.2,0,0.3-0.2,0-0.5
			c-0.2-0.2-0.5-0.2-0.5,0c-0.2,0.2-0.2,0.5,0,0.5C856.1,312.3,856.3,312.3,856.3,312.1L856.3,312.1z M839.7,288.2
			c-0.2,0.2,0,0.2,0.2,0.2l0,0L839.7,288.2z M843.6,289.4c-0.2,0.2,0,0.2,0.2,0.2l0,0C843.6,289.4,843.4,289.7,843.6,289.4z
			 M847.3,291c-0.2,0.2,0,0.2,0.2,0.2l0,0C847.4,291,847.4,291,847.3,291z M833.3,295.4c0,0,0.2-0.2,0-0.2h-0.2v0.2L833.3,295.4
			L833.3,295.4z M835,298.8h-0.2v0.2h0.3L835,298.8z M836.8,302.6h-0.2v0.2h0.2V302.6z M847.1,283.1
			C847.1,282.9,846.9,282.9,847.1,283.1c-0.5-0.3-0.5-0.3-0.5,0c0,0,0,0,0,0C846.8,283.2,847,283.2,847.1,283.1L847.1,283.1
			L847.1,283.1z M850.6,282.8C850.6,282.8,850.6,282.9,850.6,282.8c0.1,0.1,0.4,0.1,0.5,0l0,0C850.8,282.6,850.8,282.8,850.6,282.8z
			 M839,293.7c0.2,0,0.2,0,0-0.3h-0.2v0.2L839,293.7L839,293.7z M842.1,296.2h-0.2v0.2h0.2V296.2z M845.1,299.1h-0.2v0.2h0.2V299.1z
			 M848.6,282.4c0-0.2-0.2-0.2-0.3-0.5c-0.2,0-0.5,0-0.5,0.2s0,0.5,0.2,0.5S848.6,282.6,848.6,282.4L848.6,282.4z M856.1,283.7
			c0.2-0.2,0-0.5-0.3-0.5s-0.5,0-0.5,0.2s0,0.5,0.2,0.5S856.1,284,856.1,283.7L856.1,283.7z M863.8,284.8c0-0.2,0-0.2-0.3-0.5
			c-0.2,0-0.5,0-0.5,0.2s0,0.5,0.2,0.5S863.8,285.1,863.8,284.8L863.8,284.8z M871.5,286.2c0-0.2-0.1-0.3-0.3-0.4
			c-0.2,0-0.5,0-0.5,0.2s0,0.5,0.2,0.5C871.2,286.4,871.5,286.4,871.5,286.2L871.5,286.2z M842.1,292.6c0.2,0,0.2-0.2,0-0.4h-0.5
			v0.5L842.1,292.6L842.1,292.6z M846.7,298.9c0-0.2,0.2-0.4,0-0.5h-0.5v0.5L846.7,298.9L846.7,298.9z M851.1,305.1
			c0.2,0,0.2-0.2,0-0.4h-0.5v0.5L851.1,305.1L851.1,305.1z M855.7,311.2c0.2,0,0.2-0.2,0-0.4h-0.5v0.5L855.7,311.2L855.7,311.2z
			 M859.4,273.2c-0.2,0-0.2,0.2-0.2,0.5s0.2,0.2,0.5,0.2s0.2-0.2,0.2-0.5C859.9,273.2,859.6,273.2,859.4,273.2z M867,271.4
			c-0.2,0-0.2,0.2-0.2,0.5s0.2,0.2,0.5,0.2s0.2-0.2,0.2-0.5C867.3,271.4,867.3,271.2,867,271.4z M875,269.6c-0.2,0-0.2-0.2-0.4-0.2
			s-0.2,0.2-0.2,0.5s0.2,0.2,0.5,0.2S875,269.9,875,269.6L875,269.6z M843.6,285.5c-0.2-0.2-0.5-0.2-0.5,0c-0.2,0.2-0.2,0.5,0,0.5
			c0.2,0.2,0.5,0.2,0.5,0V285.5z M850.2,289.4c-0.2-0.2-0.5-0.2-0.5,0c-0.2,0.2-0.2,0.5,0,0.5c0.2,0.2,0.5,0.2,0.5,0V289.4z
			 M856.8,293.6c-0.2-0.2-0.5-0.2-0.5,0c-0.2,0.2-0.2,0.5,0,0.5c0.2,0.2,0.5,0.2,0.5,0V293.6z M863.2,298
			C863.2,298,863.2,298,863.2,298c0.2-0.2,0.1-0.4,0-0.5c-0.2-0.2-0.5-0.2-0.5,0c-0.2,0.2-0.2,0.5,0,0.5
			C862.9,298.2,863.2,298.2,863.2,298L863.2,298z M869.7,302c0.2,0,0.2-0.2,0-0.5c-0.2-0.2-0.5-0.2-0.5,0c-0.2,0.2-0.2,0.5,0,0.5
			C869.4,302.2,869.7,302.2,869.7,302L869.7,302z M838.4,298.2c0-0.2-0.2-0.2-0.5-0.2c-0.2,0-0.2,0.2-0.2,0.5s0.2,0.2,0.5,0.2
			C838.3,298.6,838.4,298.4,838.4,298.2z M839.9,306.2c0.1-0.1,0.2-0.3,0.2-0.4c0-0.2-0.2-0.2-0.5-0.2c-0.2,0-0.2,0.2-0.2,0.5
			S839.7,306.2,839.9,306.2L839.9,306.2z M841.6,313.8c0.2-0.2,0.2-0.2,0.2-0.5s-0.2-0.2-0.5-0.2s-0.2,0.2-0.2,0.5
			S841.4,313.8,841.6,313.8L841.6,313.8z M843.4,321.3c0.2-0.2,0.2-0.2,0.2-0.4s-0.2-0.2-0.5-0.2s-0.2,0.2-0.2,0.5
			S843.1,321.4,843.4,321.3L843.4,321.3z M862.5,268.5c0-0.2,0-0.2-0.2-0.2c0,0,0,0,0,0c-0.1,0-0.2,0.1-0.2,0.2c0,0,0,0.1,0,0.1
			c0,0.1,0.1,0.2,0.3,0.2C862.4,268.8,862.5,268.7,862.5,268.5L862.5,268.5z M851.7,282.7c0-0.2-0.2,0-0.2,0c-0.2,0,0,0,0,0.2
			s0.2,0,0.2,0V282.7z M856.1,285c0-0.2-0.2,0-0.2,0c-0.2,0,0,0.2,0,0.2c0,0.2,0.2,0,0.2,0V285z M860.5,287.5c0-0.2-0.2,0-0.2,0
			c-0.2,0,0,0.2,0,0.2c0,0.2,0.2,0,0.2,0V287.5z M842.6,290.2c0.1,0,0.2-0.1,0.2-0.3c0-0.1-0.1-0.2-0.3-0.2c-0.2,0-0.2,0-0.2,0.2
			c0,0,0,0,0,0C842.3,290.1,842.4,290.2,842.6,290.2C842.5,290.2,842.6,290.2,842.6,290.2z M844.1,294.9
			C844.1,294.9,844.1,294.9,844.1,294.9c0-0.1,0.1-0.2,0.2-0.2c0,0,0,0,0,0c0-0.1-0.1-0.2-0.2-0.2c0,0-0.1,0-0.1,0
			c-0.1,0-0.2,0.1-0.2,0.3C843.8,294.9,843.9,294.9,844.1,294.9L844.1,294.9z M845.4,299.8c0.2-0.2,0.2-0.2,0.3-0.2
			c0-0.1-0.1-0.2-0.2-0.2c-0.1,0-0.3,0.1-0.3,0.2c0,0,0,0,0,0C845.2,299.7,845.3,299.8,845.4,299.8L845.4,299.8z M856.1,277.3
			c0-0.1-0.1-0.2-0.2-0.2c0,0-0.1,0-0.1,0c-0.1,0-0.2,0.1-0.2,0.3c0,0.1,0.1,0.2,0.3,0.2c0,0,0,0,0,0
			C856,277.6,856.1,277.5,856.1,277.3L856.1,277.3z M861.1,278c0-0.2-0.2-0.2-0.2-0.2c0,0-0.1,0-0.1,0c-0.1,0-0.2,0.1-0.2,0.3
			s0.1,0.2,0.3,0.2c0,0,0,0,0,0C861.1,278.2,861.2,278.1,861.1,278L861.1,278z M866,278.4c0-0.1-0.1-0.2-0.3-0.2
			c-0.1,0-0.2,0.1-0.2,0.3c0,0.1,0.1,0.2,0.2,0.2C865.9,278.7,866,278.6,866,278.4C866,278.4,866,278.4,866,278.4z M846.7,285.2
			h-0.2v0.2h0.2V285.2z M849.8,289h-0.2v0.2h0.2V289z M852.8,293.2c0.2,0,0.2-0.3,0-0.3h-0.2v0.3L852.8,293.2L852.8,293.2z
			 M855.9,296.9h-0.2v0.2h0.2C856.1,296.9,856.1,296.9,855.9,296.9z M836.9,293.2c0.1,0,0.2-0.1,0.2-0.3s-0.1-0.2-0.3-0.2
			c-0.1,0-0.2,0.1-0.2,0.2C836.6,293,836.7,293.2,836.9,293.2C836.8,293.2,836.9,293.2,836.9,293.2z M836.6,298
			C836.6,298,836.6,298,836.6,298c0-0.1-0.1-0.2-0.2-0.2c-0.1,0-0.2,0.1-0.2,0.2c0,0.1,0.1,0.3,0.2,0.3L836.6,298z M835.7,303
			c0.2,0,0.2,0,0.2-0.3c0,0,0-0.1,0-0.1c0-0.1-0.1-0.2-0.3-0.2c-0.1,0-0.2,0.1-0.2,0.3c0,0,0,0,0,0C835.5,302.9,835.6,303,835.7,303
			L835.7,303z M865,263.7c-0.2,0-0.2,0.2-0.2,0.5s0.2,0.2,0.5,0.2s0.2-0.2,0.2-0.5C865.5,263.7,865.3,263.7,865,263.7z M872.3,261
			c-0.2,0-0.2,0.2-0.2,0.5s0.2,0.2,0.5,0.2s0.2-0.2,0.2-0.5C872.8,261.1,872.5,261,872.3,261z M879.5,258.4c-0.2,0-0.2,0.2-0.2,0.5
			s0.2,0.2,0.5,0.2s0.2-0.2,0.2-0.5C880,258.4,879.8,258.2,879.5,258.4z M857.7,278.7c0.2-0.2,0-0.5-0.2-0.5s-0.5,0-0.5,0.2
			s0,0.5,0.2,0.5S857.7,278.9,857.7,278.7L857.7,278.7z M864.7,281.8c0.2,0,0-0.2-0.2-0.5c-0.2,0-0.5,0-0.5,0.2s0,0.5,0.2,0.5
			S864.7,282,864.7,281.8L864.7,281.8z M871.7,285.1c0-0.2,0-0.5-0.2-0.5s-0.5,0-0.5,0.2s0,0.5,0.2,0.5S871.7,285.3,871.7,285.1
			L871.7,285.1z M878.5,287.7c-0.2,0-0.5,0-0.5,0.2s0,0.5,0.2,0.5s0.5,0,0.5-0.2C878.7,288,878.6,287.8,878.5,287.7z M848.9,286.6
			c0.1-0.1,0.2-0.3,0.2-0.5c0-0.2-0.2-0.2-0.5-0.2s-0.2,0.2-0.2,0.5S848.6,286.6,848.9,286.6L848.9,286.6z M851.5,293.8
			c0.2,0,0.2-0.2,0.2-0.5c0-0.2-0.2-0.2-0.5-0.2c-0.2,0-0.2,0.2-0.2,0.5S851.3,293.8,851.5,293.8L851.5,293.8z M854.1,301.1
			c0.2-0.2,0.2-0.2,0.2-0.5s-0.2-0.2-0.5-0.2s-0.2,0.2-0.2,0.5S853.9,301.1,854.1,301.1L854.1,301.1z M857,307.7
			c0-0.2-0.2-0.2-0.5-0.2s-0.2,0.2-0.2,0.5s0.2,0.2,0.5,0.2C857,308.2,857,307.9,857,307.7z M863.3,272.3c0-0.3-0.2-0.5-0.5-0.4
			c0,0,0,0,0,0c-0.1,0-0.2,0.1-0.2,0.2c0,0.2,0,0.5,0.2,0.5S863.3,272.5,863.3,272.3C863.3,272.3,863.3,272.3,863.3,272.3z
			 M870.5,272.1C870.5,272.1,870.5,272.1,870.5,272.1c-0.1,0-0.2,0.1-0.2,0.2c0,0.2,0,0.5,0.2,0.5s0.5,0,0.5-0.2
			C871,272.3,870.8,272.1,870.5,272.1z M878.5,272.7c0.2-0.2,0-0.2-0.2-0.5c-0.2,0-0.5,0-0.5,0.2s0,0.5,0.2,0.5
			S878.5,272.9,878.5,272.7L878.5,272.7z M886.1,272.7c-0.2,0-0.5,0-0.5,0.2c0,0,0,0,0,0c0,0.1,0.1,0.2,0.2,0.2c0,0,0,0,0,0
			c0.1,0,0.2-0.1,0.2-0.2V272.7z M851.7,280.2c0.2-0.2,0.2-0.4,0-0.5c0-0.2-0.2-0.2-0.5,0c-0.2,0-0.2,0.2,0,0.5
			C851.3,280.4,851.5,280.4,851.7,280.2L851.7,280.2z M857,285.9c0.2-0.2,0.2-0.5,0-0.5c-0.2-0.2-0.2-0.2-0.5,0s-0.2,0.2,0,0.5
			C856.5,286.2,856.8,286.2,857,285.9L857,285.9z M862.2,291.4c0.2,0,0.2-0.2,0-0.5c0-0.2-0.2-0.2-0.5,0s-0.2,0.2,0,0.5
			C861.8,291.7,862,291.7,862.2,291.4L862.2,291.4z M867.5,296.6c0-0.2-0.2-0.2-0.5,0c-0.2,0-0.2,0.2,0,0.5c0,0.2,0.2,0.2,0.5,0
			C867.7,296.9,867.7,296.7,867.5,296.6z M872.8,302.2c0-0.2-0.2-0.2-0.5,0s-0.2,0.2,0,0.5c0,0.2,0.2,0.2,0.5,0V302.2z M843.2,291
			h0.2c0-0.2,0-0.5-0.2-0.5c-0.1,0-0.2,0.1-0.2,0.2C843,290.8,843.1,291,843.2,291L843.2,291z M842.7,298.7c0.2,0,0.5,0,0.3-0.5
			c0,0,0,0,0,0c0-0.1-0.1-0.2-0.2-0.2c0,0,0,0,0,0c-0.1,0-0.2,0.1-0.2,0.2C842.5,298.5,842.5,298.7,842.7,298.7L842.7,298.7z
			 M842.5,306.3c0.2,0,0.2,0,0.5-0.2c0-0.2,0-0.5-0.2-0.5s-0.5,0-0.5,0.2S842.3,306.3,842.5,306.3L842.5,306.3z M842.8,314.1
			c0-0.2,0-0.5-0.2-0.5s-0.5,0-0.5,0.2c0,0,0,0,0,0c0,0.1,0.1,0.2,0.2,0.2L842.8,314.1z M861.8,267.7
			C861.8,267.7,861.8,267.7,861.8,267.7c0.1,0.1,0.4,0.1,0.5,0l0,0C862.1,267.5,861.8,267.5,861.8,267.7z M866.4,267.7
			C866.4,267.7,866.4,267.7,866.4,267.7c0.1,0.1,0.4,0.1,0.5,0l0,0C866.6,267.5,866.6,267.7,866.4,267.7z M871,267.9
			C871,267.9,871,267.9,871,267.9c0.1,0.1,0.4,0.1,0.5,0l0,0C871.2,267.7,871.2,267.7,871,267.9z M857.7,277.3c0.2,0,0.2-0.2,0-0.2
			h-0.2v0.2L857.7,277.3L857.7,277.3z M861,280.6h-0.3v0.3h0.2L861,280.6z M864,284.2c0.2,0,0.2-0.2,0-0.2h-0.2v0.2L864,284.2
			L864,284.2z M847.5,280.6C847.5,280.6,847.5,280.6,847.5,280.6c-0.1,0.1-0.1,0.4,0,0.5l0,0C847.7,280.9,847.7,280.9,847.5,280.6z
			 M847.5,285.5C847.5,285.5,847.5,285.5,847.5,285.5c-0.1,0.1-0.1,0.4,0,0.5c-0.2-0.2-0.2,0,0,0V285.5z M847.3,290
			C847.3,290.1,847.3,290.1,847.3,290c-0.1,0.1-0.1,0.4,0,0.5c-0.2-0.2-0.2,0,0,0C847.5,290.1,847.3,290,847.3,290z M872.4,257.6
			c-0.1,0-0.2-0.1-0.2-0.2c0,0-0.1,0-0.1,0c-0.1,0-0.2,0.1-0.2,0.3s0.1,0.2,0.3,0.2c0,0,0,0,0,0
			C872.3,257.8,872.4,257.7,872.4,257.6C872.4,257.6,872.4,257.6,872.4,257.6z M859.2,271.7c0,0-0.2-0.2,0-0.2c0-0.2-0.2,0-0.2,0
			c-0.2,0,0,0.2,0,0.2C858.9,271.9,859.2,271.7,859.2,271.7L859.2,271.7z M863.3,273.4c0-0.2-0.2,0-0.2,0c-0.2,0,0,0.2,0,0.2
			c0,0.2,0.2,0,0.2,0V273.4z M867.5,275.4c0-0.2-0.2,0-0.2,0c-0.2,0,0,0.2,0,0.2c0,0.2,0.2,0,0.2,0V275.4z M871.9,277.1
			c0-0.2-0.2,0-0.2,0c-0.2,0,0,0.2,0,0.2c0,0.2,0.2,0,0.2,0V277.1z M852.6,278c0-0.2,0-0.2,0.3-0.2c0,0,0-0.1,0-0.1
			c0-0.1-0.1-0.2-0.3-0.2c-0.1,0-0.2,0.1-0.2,0.3c0,0,0,0,0,0C852.4,277.9,852.5,278,852.6,278L852.6,278z M854.1,282.2
			c0.2,0,0.2,0,0.3-0.2c0,0,0-0.1,0-0.1c0-0.1-0.1-0.2-0.3-0.2c-0.1,0-0.2,0.1-0.2,0.3c0,0,0,0,0,0
			C853.9,282.1,854,282.2,854.1,282.2L854.1,282.2z M856.1,286.3c0-0.1-0.1-0.2-0.2-0.2c-0.1,0-0.3,0.1-0.3,0.2c0,0,0,0,0,0
			c0,0.1,0.1,0.2,0.2,0.2L856.1,286.3z M857.6,290.8c0-0.1-0.1-0.3-0.2-0.3c0,0-0.1,0-0.1,0c-0.1,0-0.2,0.1-0.2,0.3
			c0,0.1,0.1,0.2,0.3,0.2C857.5,291,857.6,290.9,857.6,290.8z M862.9,270.6C863.2,270.6,862.9,270.3,862.9,270.6
			C862.9,270.6,862.9,270.6,862.9,270.6c0-0.1-0.1-0.2-0.3-0.2c0,0,0,0,0,0C862.7,270.5,862.8,270.6,862.9,270.6L862.9,270.6
			L862.9,270.6z M865.7,272.7C865.7,272.7,865.7,272.7,865.7,272.7c0,0.1,0.1,0.2,0.2,0.2l0,0C865.7,272.5,865.7,272.5,865.7,272.7z
			 M852.8,275.8c-0.2,0-0.2,0,0,0.2l0,0V275.8z M853.2,279.6c-0.2,0-0.2,0,0,0.2l0,0V279.6z M867.8,265.7c-0.2-0.2-0.2-0.2-0.2,0
			H867.8C867.5,265.9,867.7,265.9,867.8,265.7L867.8,265.7z M871.3,266.8C871.5,266.8,871.3,266.6,871.3,266.8c0-0.2-0.2-0.2-0.2,0
			H871.3L871.3,266.8z M857.7,272.5l0.2,0.2l0,0C857.9,272.5,857.7,272.3,857.7,272.5z M859.4,275.8l0.2,0.2l0,0
			C859.6,275.6,859.4,275.6,859.4,275.8z M861.1,279.1l0.2,0.2l0,0C861.4,278.9,861.4,278.9,861.1,279.1z M865.1,265.7
			c0.2,0,0.2,0,0-0.3h-0.2v0.2L865.1,265.7L865.1,265.7z M867.1,269.9c0.2,0,0.2-0.2,0-0.3h-0.2v0.2L867.1,269.9L867.1,269.9z
			 M858.8,274c-0.2,0-0.2,0.2,0,0.5l0,0C859,274.3,859,274.3,858.8,274z"/>
		<g id="sweater_2_-i2">
			<path id="sweater_3_-i2" class="st1" d="M644.7,194.7l181.8,99.8c36.4-17.2,87.7-74.5,87.7-74.5c-11.2-41.3-48-43.3-77-46.6
				s-37.5-18.3-87.7-22c-50.2-3.7-87.9,11.4-87.9,11.4C661.9,186.1,644.7,194.7,644.7,194.7z"/>
		</g>
		<path id="R_hand-i2" class="st7" d="M695.8,419.5c-16.5,1.8-49.4,5.3-91.3,33.9c-41.8,28.4-61.4,20.2-79.8,3.1
			c-18.3-17.1-9.4-18.9,7-21.5c16.4-2.4,38-8.1,43-15.1c5.1-6.8-11.4-10.1-15.1-20.9c-3.7-11,3.3-12.1,6.4-8.4
			c3.3,3.8,14.5,15.4,24.1,22.2c9.7,6.9,11.4,8.1,30.5-2.6c19.1-10.7,40.6-32.9,40.6-32.9L695.8,419.5z"/>
		<path id="R_sleeve_1_-i2" class="st1" d="M661.6,162.7L661.6,162.7c79.4,27.6,118.9,58.5,154.6,107.5c35.7,49,13.8,86.2,0.6,99.3
			c-13.4,13.1-19.3,23.7-30.5,59.5s-45.6,45-45.6,45l-82.5-100.4c0,0,6.5-3.5,30.9-27.3c24.4-23.8,28.3-33,12.5-69.5
			s-57-82.2-57-82.2"/>
		<path id="neck_1_-i2" class="st7" d="M621.5,175.2l5.7-28.8l34.4,16.2c0.2,29.1-16.9,31.9-16.9,31.9
			C632.6,181.6,621.5,175.2,621.5,175.2"/>
		<path id="face_2_-i2" class="st7" d="M544.3,128.2c0,0,9.2,15.2,38.4,9.9c26.7-5,37.1,2.6,48,26.2c-5.9,12.2-19.7,23.1-34,23.1
			c-15.3,0-27.2-10.4-29.8-8.8c-2.8,1.3-9.2,3.2-11.2,0.6s-0.2-15.4-5.9-25.9c-0.6-0.9-1.1-1.8-1.6-2.8l0,0
			c-0.1-0.1-0.2-0.3-0.2-0.5C547,147.5,543.2,138.2,544.3,128.2z"/>
		<g id="hair-i2">
			<path id="hair_6_-i2" class="st5" d="M548.4,150.4c-26.7-30.1-2.6-59.8,21.3-77.6c23.9-17.6,51.6-7.3,57.7-2s25.1,24.4,41.2,26.4
				c16,2.2,24.4,11.7,24.4,11.7c-17.3,44.1-59.4,62.4-59.4,62.4c-12.3-28.7-21.9-38.2-51.1-32.9c-29.4,5.4-38.4-9.9-38.4-9.9
				C543.2,139.8,548.2,150.5,548.4,150.4z"/>
			<path id="hair_5_-i2" class="st5" d="M560.1,131.2c-0.6,0-1.1,0.5-1.1,1.1c0,0.6,0.5,1.1,1.1,1.1c28.9,0.2,66.9,6.4,65.5,43.7
				c0,1.4,2.2,1.4,2.2,0C629.4,138.7,590.4,131.4,560.1,131.2C560.1,131.2,560.1,131.2,560.1,131.2z"/>
			<path id="hair_4_-i2" class="st5" d="M696.5,105.7c-14.7-23.9-50.2-2-64.9-24.8c-0.9-1.1-2.6,0-2,1.1
				c14.9,23.4,50.5,1.5,64.9,24.8C695.2,108.2,697.1,107.1,696.5,105.7z"/>
		</g>
		<path id="eye-i2" class="st8" d="M566.9,154.1c0-1.3-2.2-1.3-2.2-0.2c-0.5,5.9-6.8,8.4-11.4,5c-1.1-0.6-2.2,1.1-1.1,2
			C558.4,165.5,566.3,161.3,566.9,154.1L566.9,154.1z"/>
	</g>
</g>
</svg>
