<?xml version="1.0" encoding="utf-8"?>
<!-- Generator: Adobe Illustrator 25.1.0, SVG Export Plug-In . SVG Version: 6.00 Build 0)  -->
<svg version="1.1" id="Layer_1" xmlns="http://www.w3.org/2000/svg" xmlns:xlink="http://www.w3.org/1999/xlink" x="0px" y="0px"
	 viewBox="0 0 1131.1 978.8" style="enable-background:new 0 0 1131.1 978.8;" xml:space="preserve">
<style type="text/css">
	.st0{fill:#DABA4E;}
	.st1{enable-background:new    ;}
	.st2{fill:#FFFFFF;}
	.st3{font-family:'Montserrat-BoldItalic';}
	.st4{font-size:41.3759px;}
	.st5{clip-path:url(#SVGID_2_);fill:#D9D8D9;}
	.st6{clip-path:url(#SVGID_4_);fill:#D9D8D9;}
	.st7{clip-path:url(#SVGID_6_);fill:#D9D8D9;}
	.st8{clip-path:url(#SVGID_8_);fill:#D9D8D9;}
	.st9{clip-path:url(#SVGID_10_);fill:#D9D8D9;}
	.st10{clip-path:url(#SVGID_12_);fill:#D9D8D9;}
	.st11{clip-path:url(#SVGID_14_);fill:#D9D8D9;}
	.st12{clip-path:url(#SVGID_16_);}
	.st13{fill:#D6D7D8;}
	.st14{clip-path:url(#SVGID_18_);}
	.st15{fill:#B796F7;}
	.st16{fill:#36154C;}
	.st17{fill:#996C68;}
	.st18{fill:#D9D8D9;}
	.st19{opacity:0.51;fill:#FFFFFF;enable-background:new    ;}
	.st20{clip-path:url(#SVGID_20_);}
	.st21{clip-path:url(#SVGID_22_);}
	.st22{fill:#D8C4FA;}
	.st23{clip-path:url(#SVGID_24_);}
	.st24{fill:#E6DCFD;}
</style>
<path class="st0" d="M330.8,157.7c-25.2,72.3,79.5,159,258.9,141.3c43-4.2,83.7-9,119.1-21.4l7.5,2c13.5,7.3,99.6,51.1,101.2,52.3
	c0.9,0.6-33.2-45.8-43.6-86.1c41.7-28.1,116.9-89.2,41.5-164.3C758.9,25.4,685.4,0.2,580.1,0C428.8-0.3,358.1,79.2,330.8,157.7z"/>
<text transform="matrix(1 0 0 1 434.185 109.5716)" class="st1"><tspan x="0" y="0" class="st2 st3 st4">Your bank </tspan><tspan x="0" y="44.6" class="st2 st3 st4">password will </tspan><tspan x="0" y="89.2" class="st2 st3 st4">expire in 24 hrs</tspan></text>
<g>
	<g>
		<defs>
			<rect id="SVGID_1_" y="427.8" width="480" height="551"/>
		</defs>
		<clipPath id="SVGID_2_">
			<use xlink:href="#SVGID_1_"  style="overflow:visible;"/>
		</clipPath>
		<polygon id="chair_leg-i1" class="st5" points="58.3,978.8 69.2,978.8 94.6,697.6 83.8,697.6 83.8,697.2 		"/>
	</g>
	<g>
		<defs>
			<rect id="SVGID_3_" y="427.8" width="480" height="551"/>
		</defs>
		<clipPath id="SVGID_4_">
			<use xlink:href="#SVGID_3_"  style="overflow:visible;"/>
		</clipPath>
		<polygon id="chair_leg_3_-i1" class="st6" points="179.4,978.8 190.3,978.8 215.7,697.6 204.9,697.6 204.9,697.2 		"/>
	</g>
	<g>
		<defs>
			<rect id="SVGID_5_" y="427.8" width="480" height="551"/>
		</defs>
		<clipPath id="SVGID_6_">
			<use xlink:href="#SVGID_5_"  style="overflow:visible;"/>
		</clipPath>
		<polygon id="chair_leg_1_-i1" class="st7" points="363.6,978.8 352.7,978.8 327.3,697.6 338,697.6 338.1,697.2 		"/>
	</g>
	<g>
		<defs>
			<rect id="SVGID_7_" y="427.8" width="480" height="551"/>
		</defs>
		<clipPath id="SVGID_8_">
			<use xlink:href="#SVGID_7_"  style="overflow:visible;"/>
		</clipPath>
		<polygon id="chair_leg_2_-i1" class="st8" points="480,978.8 469.1,978.8 443.7,697.6 454.5,697.6 454.5,697.2 		"/>
	</g>
	<g>
		<defs>
			<rect id="SVGID_9_" y="427.8" width="480" height="551"/>
		</defs>
		<clipPath id="SVGID_10_">
			<use xlink:href="#SVGID_9_"  style="overflow:visible;"/>
		</clipPath>
		<polygon id="chair_bottom-i1" class="st9" points="338.1,697.5 83.8,697.6 76,671.7 338.1,671.7 		"/>
	</g>
	<g>
		<defs>
			<rect id="SVGID_11_" y="427.8" width="480" height="551"/>
		</defs>
		<clipPath id="SVGID_12_">
			<use xlink:href="#SVGID_11_"  style="overflow:visible;"/>
		</clipPath>
		<polygon id="chair_back-i1" class="st10" points="76,671.7 220.4,671.7 144.4,427.8 0,427.8 		"/>
	</g>
	<g>
		<defs>
			<rect id="SVGID_13_" y="427.8" width="480" height="551"/>
		</defs>
		<clipPath id="SVGID_14_">
			<use xlink:href="#SVGID_13_"  style="overflow:visible;"/>
		</clipPath>
		<polygon id="chair_bottom_1_-i1" class="st11" points="338.1,697.5 454.7,697.8 454.7,671.7 338.1,671.7 		"/>
	</g>
</g>
<g>
	<g>
		<defs>
			<rect id="SVGID_15_" x="578.9" y="482.8" width="375" height="433"/>
		</defs>
		<clipPath id="SVGID_16_">
			<use xlink:href="#SVGID_15_"  style="overflow:visible;"/>
		</clipPath>
		<g class="st12">
			<polygon class="st13" points="953.9,992.3 938.7,992.3 938.7,574.4 578.9,574.4 578.9,559.3 953.9,559.3 			"/>
		</g>
	</g>
</g>
<g>
	<g>
		<defs>
			<rect id="SVGID_17_" x="132" y="209.8" width="600" height="750"/>
		</defs>
		<clipPath id="SVGID_18_">
			<use xlink:href="#SVGID_17_"  style="overflow:visible;"/>
		</clipPath>
		<g class="st14">
			<path class="st15" d="M554.2,865c-5,20.7-18.3,82.3-11.2,84.2c16.4,0.7,156.4,1.6,187,1.6c2.9-4.8,2.3-9,0.7-13.8
				c-4.3-12.9-19.1-23.6-31.5-28.3s-20.2-5.5-32.3-10.8c-13.8-6-29.6-31.5-44.8-34C615.9,863.1,570.9,864.3,554.2,865z"/>
			<path class="st16" d="M281.3,585c16.9-9.6,49.9-6.8,69.1-5.9c17.5,0.8,35.8,1.2,52.9,4.4c24.5,4.6,73.4,9.3,89.6,30.2
				c25.6,32.9,25.3,76,48.5,111.1c24.2,36.6,40,73.2,67.3,107.5c8.8,11.1,40.2,50.6,40.2,50.6L548.8,884c0,0-38.6-20.4-45.9-33.4
				c-8-14.1-5.6-28.1-11.3-41.2c-5.2-12-25.5-23.7-34.3-33.1c-9.7-10.4-20-22.3-23.9-36.8c-3.7-13.3-3.4-35.9-9.1-48.6
				c-6.8-15.3-19.1-18.4-32.7-22.1c-14.2-3.8-27-7.9-41.2-12.1c-14.5-4.4-30.7-8.8-45.5-11.4c-14.3-2.5-29.5-0.2-43.5-3.2
				c2.8-13.2,0.9-24.5,8.1-36.9c3.7-6.3,9.7-11.5,14.9-16.3c3.7-3.4,9.2-12.5,8.8-7"/>
			<path class="st17" d="M482.1,366.5c-5.3-7.5-3.9-17.5-7.6-26.8c-2.2-5.4-6.9-4.2-7.6,2.3c-0.4,3.6,3.4,9.5,4.9,13.2
				c1.6,4,3.4,11.8-4.2,10.9c-4.3-0.5-6.7-7.5-8.2-10.8c-1.7-3.8-5.6-8.8-5.5-12.8c0.2-4.8,5.5-9.9,7.5-14.3c2.3-5.3,2.6-6.6,8.4-8
				c4.5-1.1,21.8-4.6,29.6-4.6c8.4,0,16.7-3.5,18.1,18.8c1.7,26.6-0.1,35.7,3.5,45.3c-10-3.8-27.4-4.8-37.6-7.3
				C483.2,371.8,481.3,367.1,482.1,366.5z"/>
			<path class="st15" d="M479,359.7c-0.3,20.7,0.2,102.7,0.2,102.7s-25-7.8-34.2-13.7c-32-20.9-117.6-138.7-135.4-72.9
				c-5.8,21.5,0.6,57,23.5,76.7c23.7,20.3,78.8,72.3,140.7,73.9c30.3,0.8,49.4,3.3,54.4-31.2c7.1-48.3-3-89.9-6.2-138.2
				C514.2,358,478.5,361.1,479,359.7z"/>
			<path class="st15" d="M294,845.1c-10.6,18.5-35.5,56.9-29.3,60.8c15.5,5.3,149.8,45.3,179.1,53.9c4.1-3.8,4.7-8,4.5-13
				c-0.5-13.6-11.8-28-22.3-35.9s-17.9-11-28-19.4c-11.6-9.6-19.7-38.6-33.6-45.2C358.7,843.6,310.2,849.1,294,845.1z"/>
			<path class="st18" d="M382,245.1c-6-6.3,10.4-14.3,17.6-15.9c13.1-2.8,17.5,5.9,27.9,7.2c15.2,1.8,14.5-12.7,26.5-16.7
				c11.4-3.8,14.9,7,23.2,9.5c1.7,0.5,2.7,2.3,2.2,4c-0.1,0.3-0.3,0.7-0.5,1c-3.8,5.3-3.6,9.1-5.8,16.8c-3.2,11-5.8,10.8-11.8,19.1
				c-10,13.7-10.1,29-30.8,33.8c-13.5,3.1-35.5,1.9-45.6-10.3c-9.1-10.9-5.3-33.8-6-47.5C380.1,245.3,381.1,242.9,382,245.1z"/>
			<path class="st16" d="M138,552.7c-13.1,37.6-7,116.8,41.6,129.1c41.4,10.5,90.8,1.5,132.7-2.6c18.5-1.8,38.1-6.8,56.9-5.3
				c-12,10.2-24.2,29.3-28.2,44.4c-2.3,8.5,0.1,16.3-2.2,24.7c-2.5,8.8-9.3,16.9-15,23.4c-15.6,18-25.2,29.9-31,53.3
				c-4.4,17.6-11.5,46.4-11.5,46.4l99.3,1c0,0,11.7-30.7,15.3-38c23.3-47,76.8-168.5,83.7-191.2c16.2-53-20.3-70.7-44.1-70.7
				c-55.8,0-92.9-1.5-139.8-1.5c-27.6,0-53.8,2.6-81,1.3C196.2,566.2,150.4,568.5,138,552.7z"/>
			<path class="st17" d="M433,338.7c-8.1,3.7-34.7,20-42.1,24.9c-15.9,10.8-27.6,24.5-32.8,32.9c-4.5,7.2-10.4-51.5-14.7-59
				c23.3-12.3,44.5-26.1,60.1-39.3c10.6,11.9,21.4,22.7,29.6,36.8C432.1,336.9,435.1,337.7,433,338.7z"/>
			<path id="texure_5_-i3" class="st19" d="M213.4,606.2c0.2,0.1,0.5,0,0.6-0.3s0-0.5-0.3-0.6c-0.2-0.1-0.5,0-0.6,0.2l0,0
				C213,605.9,213.1,606.1,213.4,606.2z M217.2,596c0.2,0.1,0.5,0,0.6-0.3c0.1-0.2,0-0.5-0.3-0.6c-0.2-0.1-0.5,0-0.6,0.2l0,0l0,0
				C216.9,595.7,217,595.9,217.2,596L217.2,596L217.2,596z M258.9,604.6c0.1,0.2,0.4,0.3,0.6,0.2l0,0l0,0c0.2-0.1,0.3-0.3,0.2-0.5
				l0,0l0,0c-0.1-0.2-0.3-0.3-0.6-0.2C258.9,604.1,258.8,604.4,258.9,604.6L258.9,604.6z M197.1,589.1c0.2,0.2,0.4,0.2,0.6,0
				c0.2-0.2,0.2-0.4,0-0.6c-0.2-0.2-0.4-0.2-0.6,0C197,588.6,197,588.9,197.1,589.1C197.1,589,197.1,589,197.1,589.1L197.1,589.1z
				 M235.8,603.9c0,0.2,0.2,0.4,0.5,0.5c0.3,0,0.4-0.2,0.4-0.5s-0.2-0.5-0.5-0.5l0,0C236,603.5,235.8,603.7,235.8,603.9L235.8,603.9
				z M235.5,593c0,0.2,0.2,0.4,0.5,0.4l0,0l0,0c0.2,0,0.4-0.2,0.4-0.4l0,0l0,0c0-0.3-0.2-0.4-0.5-0.4
				C235.7,592.6,235.5,592.8,235.5,593L235.5,593z M154.2,610.8c0.3,0.3,0.8,0.4,1.2,0.1l0,0l0,0c0.3-0.3,0.4-0.8,0-1.2l0,0
				c-0.3-0.3-0.9-0.3-1.2,0l0,0l0,0C153.9,610,153.9,610.5,154.2,610.8C154.2,610.9,154.2,610.9,154.2,610.8L154.2,610.8z
				 M169.3,596.8c0.3,0.4,0.9,0.4,1.2,0.1c0.3-0.3,0.4-0.9,0-1.2l0,0c-0.3-0.3-0.9-0.3-1.2,0l0,0C169,596,169,596.5,169.3,596.8
				L169.3,596.8z M217.8,660.7c0,0.5,0.4,0.9,0.8,0.9c0.4,0,0.8-0.3,0.9-0.7l0,0l0,0c0-0.5-0.4-0.9-0.8-0.9
				C218.2,659.9,217.8,660.3,217.8,660.7L217.8,660.7z M219.3,619.3c0,0.5,0.3,0.9,0.8,0.9l0,0l0,0c0.5,0,0.8-0.3,0.9-0.8l0,0l0,0
				c0-0.5-0.4-0.9-0.8-0.9C219.7,618.5,219.3,618.9,219.3,619.3L219.3,619.3z M220.1,598.7c-0.1,0.5,0.3,0.9,0.7,1s0.9-0.3,1-0.7
				c0-0.1,0-0.1,0-0.2c0-0.5-0.3-0.9-0.8-0.9l0,0C220.5,597.8,220.1,598.2,220.1,598.7L220.1,598.7L220.1,598.7z M177.9,641.7
				c0.4,0.2,0.9,0,1.1-0.4l0,0c0.2-0.4,0-0.9-0.5-1.1c-0.4-0.2-0.9,0-1.1,0.4C177.3,641,177.5,641.5,177.9,641.7z M186.5,622.9
				c0.4,0.2,0.9,0,1.1-0.5c0.2-0.4,0-0.9-0.5-1.1c-0.4-0.2-0.9,0-1.1,0.4C185.9,622.2,186.1,622.7,186.5,622.9z M195.1,604.1
				c0.4,0.2,0.9,0,1.1-0.5l0,0c0.2-0.4,0-0.9-0.5-1.1c-0.4-0.2-0.9,0-1.1,0.5C194.5,603.4,194.7,603.9,195.1,604.1L195.1,604.1z
				 M256.3,644.9c0.2,0.4,0.7,0.7,1.1,0.5s0.7-0.6,0.5-1.1l0,0l0,0c-0.1-0.4-0.6-0.7-1-0.5h-0.1
				C256.4,643.9,256.2,644.4,256.3,644.9z M242,606c0.1,0.4,0.6,0.6,1,0.5l0,0c0.4-0.1,0.7-0.6,0.5-1.1l0,0l0,0
				c-0.2-0.4-0.7-0.7-1.1-0.5S241.8,605.6,242,606L242,606z M159.8,632.8c0.4,0.2,0.8,0.1,1-0.3c0.2-0.4,0.1-0.8-0.3-1
				c-0.4-0.2-0.8-0.1-1,0.3l0,0C159.3,632.1,159.5,632.6,159.8,632.8L159.8,632.8z M169,616.8c0.4,0.2,0.8,0.1,1.1-0.3
				c0.2-0.4,0.1-0.8-0.3-1.1c-0.4-0.2-0.8-0.1-1,0.2l0,0C168.6,616.1,168.7,616.5,169,616.8L169,616.8z M177.9,600.4
				c0,0.2,0.2,0.4,0.3,0.4c0.4,0.2,0.8,0.1,1-0.3c0.2-0.4,0.1-0.8-0.3-1.1l0,0l0,0c-0.2-0.1-0.5-0.1-0.7,0l0,0
				c-0.1,0.1-0.2,0.2-0.3,0.3C177.8,600,177.8,600.2,177.9,600.4L177.9,600.4z M236.2,642.6c0.1,0.4,0.6,0.7,1,0.6l0,0
				c0.4-0.1,0.6-0.5,0.5-0.9l0,0c-0.1-0.4-0.5-0.7-0.9-0.6l0,0l0,0C236.4,641.8,236.2,642.2,236.2,642.6L236.2,642.6z M226.8,606.9
				c0.1,0.4,0.5,0.7,0.9,0.6l0,0l0,0c0.4-0.1,0.6-0.5,0.5-0.9c0,0,0,0,0-0.1c-0.1-0.4-0.5-0.7-0.9-0.6l0,0l0,0
				C226.9,606.1,226.7,606.5,226.8,606.9L226.8,606.9z M222.1,589.1c0.1,0.4,0.5,0.6,0.9,0.5l0,0c0.4-0.1,0.6-0.5,0.5-0.9
				s-0.5-0.6-0.9-0.5C222.2,588.2,221.9,588.7,222.1,589.1L222.1,589.1z M196.5,635.5c0,0.4,0.3,0.8,0.7,0.8
				c0.4,0.1,0.8-0.2,0.8-0.6l0,0c0-0.4-0.2-0.8-0.6-0.9C196.9,634.8,196.6,635.1,196.5,635.5L196.5,635.5z M199,617.1
				c-0.1,0.4,0.2,0.8,0.6,0.8l0,0c0.4,0.1,0.8-0.2,0.8-0.6l0,0c0-0.4-0.2-0.8-0.6-0.9C199.4,616.5,199.1,616.8,199,617.1z
				 M201.4,598.8c-0.1,0.4,0.2,0.8,0.7,0.8c0.4,0.1,0.8-0.2,0.8-0.7c0.1-0.4-0.2-0.8-0.6-0.8C201.8,598.1,201.5,598.4,201.4,598.8
				L201.4,598.8z M253.7,603.7c0.3,0.3,0.7,0.4,1.1,0.1c0.3-0.3,0.4-0.7,0.1-1.1c-0.3-0.3-0.7-0.4-1-0.1
				C253.6,602.9,253.5,603.3,253.7,603.7L253.7,603.7z M202.7,601.3c0,0.2,0.2,0.5,0.4,0.5s0.5-0.2,0.5-0.4v-0.1
				c0-0.2-0.2-0.4-0.5-0.4l0,0C202.8,600.9,202.6,601.1,202.7,601.3z M201.9,590.4c0,0.2,0.3,0.4,0.5,0.4s0.4-0.2,0.4-0.5l0,0l0,0
				c0-0.2-0.2-0.4-0.4-0.4l0,0l0,0C202.1,590,201.9,590.2,201.9,590.4L201.9,590.4z M181.3,593c0.2,0.1,0.5-0.1,0.6-0.3
				s0-0.5-0.3-0.6l0,0c-0.2-0.1-0.5,0-0.5,0.2l0,0l0,0C181,592.6,181.1,592.9,181.3,593L181.3,593z M222.5,590.3
				c0.1,0.2,0.4,0.3,0.6,0.2c0.2-0.1,0.3-0.4,0.2-0.6c-0.1-0.2-0.3-0.3-0.5-0.2l0,0l0,0C222.5,589.7,222.4,590,222.5,590.3
				L222.5,590.3L222.5,590.3z M152.1,598c0.2,0.1,0.5,0.1,0.7-0.2l0,0c0.2-0.2,0.1-0.5-0.1-0.7l0,0c-0.2-0.1-0.5-0.1-0.7,0.2l0,0
				C151.8,597.6,151.9,597.9,152.1,598L152.1,598z M203.5,605.2c0.1,0.3,0.3,0.4,0.6,0.4h0.1c0.3-0.1,0.4-0.3,0.4-0.6
				c-0.1-0.3-0.4-0.4-0.6-0.4C203.6,604.7,203.4,605,203.5,605.2L203.5,605.2z M200.4,593.2c0.1,0.3,0.4,0.4,0.6,0.4l0,0l0,0
				c0.3-0.1,0.4-0.4,0.4-0.6c-0.1-0.3-0.3-0.4-0.6-0.4C200.5,592.6,200.3,592.9,200.4,593.2L200.4,593.2z M177.9,600.4
				c0.1,0,0.1,0.1,0.2,0.1c0.3,0,0.5-0.1,0.6-0.4l0,0c0-0.3-0.1-0.5-0.4-0.6l0,0c-0.3,0-0.5,0.2-0.6,0.4l0,0l0,0
				C177.7,600.1,177.8,600.3,177.9,600.4L177.9,600.4z M223.9,588.9c0.2,0.2,0.5,0.3,0.7,0.1l0,0l0,0c0.2-0.2,0.3-0.5,0.1-0.7
				c-0.1-0.2-0.4-0.3-0.7-0.2l0,0l0,0C223.8,588.4,223.7,588.7,223.9,588.9L223.9,588.9z M160,652.4c-0.1,0.5,0.3,0.9,0.8,1
				s0.9-0.2,1-0.7l0,0c0.1-0.5-0.3-0.9-0.8-1C160.5,651.6,160.1,651.9,160,652.4L160,652.4L160,652.4z M162.6,631.2
				c-0.1,0.5,0.2,0.9,0.7,1l0,0c0.5,0.1,0.9-0.3,1-0.8s-0.3-0.9-0.8-1C163.1,630.4,162.7,630.7,162.6,631.2z M165.2,610
				c-0.1,0.5,0.3,0.9,0.8,1s0.9-0.3,1-0.7c0,0,0,0,0-0.1c0-0.5-0.3-0.9-0.8-0.9l0,0C165.7,609.2,165.3,609.6,165.2,610
				C165.3,610,165.3,610,165.2,610L165.2,610z M233.4,612.3c0.3,0.4,0.9,0.5,1.2,0.2c0.4-0.3,0.5-0.9,0.2-1.2
				c-0.3-0.4-0.8-0.5-1.2-0.2l0,0C233.2,611.4,233.1,611.9,233.4,612.3z M220.3,595.5c0.3,0.4,0.9,0.5,1.2,0.2
				c0.4-0.3,0.4-0.9,0.1-1.3c-0.3-0.4-0.9-0.4-1.3-0.1C220.1,594.6,220.1,595.1,220.3,595.5L220.3,595.5z M195.8,619.5
				c0.1,0.5,0.6,0.7,1.1,0.6l0,0l0,0c0.5-0.1,0.7-0.6,0.6-1.1l0,0c-0.1-0.5-0.6-0.7-1.1-0.6l0,0C196,618.6,195.7,619,195.8,619.5
				L195.8,619.5L195.8,619.5z M190.1,599c0.1,0.5,0.6,0.7,1,0.6l0,0c0.5-0.1,0.8-0.6,0.7-1.1s-0.6-0.8-1.1-0.7
				C190.3,598,190,598.5,190.1,599C190.1,598.9,190.1,598.9,190.1,599L190.1,599z M184,626.7c0.1,0.5,0.6,0.8,1.1,0.7
				c0.4-0.1,0.7-0.5,0.7-1c-0.1-0.5-0.5-0.8-1-0.7C184.2,625.7,183.9,626.1,184,626.7L184,626.7L184,626.7z M179.2,606
				c0.1,0.5,0.6,0.8,1.1,0.7s0.8-0.5,0.7-1s-0.5-0.8-1-0.7h-0.1l0,0C179.5,605,179.2,605.5,179.2,606L179.2,606z M147.8,616
				c-0.1,0.5,0.2,0.9,0.7,1l0,0l0,0c0.5,0.1,0.9-0.2,1-0.7s-0.3-0.9-0.7-1C148.4,615.3,147.9,615.6,147.8,616L147.8,616z M151.3,595
				c-0.1,0.5,0.2,0.9,0.7,1s0.9-0.2,1-0.7l0,0c0.1-0.5-0.3-0.9-0.7-1C151.9,594.3,151.4,594.6,151.3,595L151.3,595z M223.6,619.9
				c0.3,0.4,0.9,0.4,1.2,0.1c0.3-0.3,0.4-0.7,0.2-1.1c-0.3-0.4-0.8-0.5-1.2-0.2l0,0l0,0C223.5,619,223.4,619.5,223.6,619.9
				C223.7,619.9,223.7,619.9,223.6,619.9L223.6,619.9z M211.3,602.6c0.3,0.4,0.8,0.5,1.2,0.2s0.5-0.8,0.2-1.2s-0.8-0.5-1.2-0.2l0,0
				l0,0C211.2,601.6,211.1,602.2,211.3,602.6L211.3,602.6L211.3,602.6L211.3,602.6z M188.1,610.6c0.2,0.3,0.5,0.5,0.9,0.3l0,0
				c0.3-0.2,0.5-0.5,0.3-0.9c-0.1-0.3-0.5-0.5-0.8-0.3h-0.1C188,609.9,187.9,610.3,188.1,610.6C188,610.6,188,610.7,188.1,610.6
				L188.1,610.6z M181.3,596.1c0.2,0.3,0.5,0.5,0.9,0.3l0,0c0.3-0.2,0.5-0.6,0.3-0.9c-0.2-0.3-0.5-0.5-0.9-0.3l0,0
				C181.3,595.4,181.2,595.8,181.3,596.1L181.3,596.1z M154.2,610.1c0,0.4,0.3,0.6,0.7,0.6l0,0c0.4,0,0.6-0.3,0.6-0.7
				s-0.3-0.6-0.7-0.6l0,0l0,0C154.4,609.4,154.2,609.7,154.2,610.1C154.2,610.1,154.2,610.2,154.2,610.1
				C154.2,610.2,154.2,610.2,154.2,610.1L154.2,610.1z M153.4,594.1c0,0.4,0.3,0.7,0.7,0.7s0.6-0.3,0.6-0.7l0,0l0,0
				c0-0.3-0.3-0.6-0.6-0.6l0,0l0,0C153.7,593.5,153.4,593.8,153.4,594.1L153.4,594.1z"/>
			<path class="st15" d="M360.5,327.7c-18.8,7.8-38.1,14.4-57.7,20c-35.2,9.7-60.1,28.5-85.6,55.1c-23.1,24.1-45.2,53.6-57.6,85.1
				c-10.3,26-25.6,61.6-27.1,89.3c20.4,0.5,135,2.1,167.3,1.3c2.3-48.2,4.6-95,30.4-137.1c5.9-9.5,11.9-19.4,18.4-28.8
				c5.4-7.9,23.2-32.8,23.2-32.8S338.1,360.6,360.5,327.7z"/>
			<path class="st17" d="M464.9,265.9c-5.7-9.8-14.3-17.6-24.7-22.2c-23.7-11-64.7-2-66.2,29.9c-8.7,7.7-4.3,15.6-1.5,24.9
				c7.2,24.6,20.7,41.9,47,45.2c23.1,2.9,49-6,52.8-32c0.9-6.1,1.1-12.2,0.7-18.3C490,283.4,478.1,274.3,464.9,265.9z"/>
			<path class="st18" d="M404,220.8c-4.4-0.2-19.6-5-29.2-1c-12,5-17.3,15.8-31.9,13c-10.7-2-20.6-13-31.9-8.1
				c-8.7,3.7-10.9,22-21.1,17.7c-1.1-0.5-2.4,0-2.9,1.1c-0.1,0.2-0.2,0.5-0.2,0.7c-0.5,9.1,7.8,9.1,12,15.5
				c6.5,9.8,0.5,10.3,0.5,19.6c0,10.2,2.4,14.3,11.7,17.3c11.6,3.8,11-3.3,14.3,9.3c2.4,9-4.1,13.2,9.6,17.3
				c6.4,2,12.8,1.7,18.7,8.6c5.6,6.6,3.3,8.2,7.9,15.1c3.4,5.1,12.9,8.7,20.2,10.1c2.4,0.4,4.7-1.2,5.1-3.6c0-0.1,0-0.1,0-0.2
				c1.7-10.5,10.7-16.7,18.5-23.4c14.4-12.3,7.9-15.8,6.6-32c-1.3-15.6,12-18.7,14.8-30.6c2.4-10.5-10.2-17.5,4.2-27.3
				C427.9,232.4,419.4,221.3,404,220.8z"/>
			<path class="st17" d="M472.9,494.7c-0.2,0-0.5,0-0.8,0c9.3-3.1,14-9,20.8-15.6c1.1-1,6.1-5.5,9.9-6.1c6-0.9,15.5,2.6,17.6,3.3
				c8.8,3,15,6.9,23.7,9.4c0.2,4.7-11.3,8.4-16.6,9c-6.4,0.7-12.9-2.9-19.4-2.8c-3.1,0.1-4.3,1-6.7,2.8c-5.5,4.2-12.2,6.8-18.1,10.7
				c-2.7,1.8-7,5.7-10.5,5s-3.5-4.2-2.8-7C470.5,501.7,472.8,494.7,472.9,494.7z"/>
			<path class="st17" d="M538.6,496.7c6.5-5.1,12.1-20.7,1.8-20.4c-7.6,0.1-15.2,1.3-22.5,3.7c-18.5,5.5-37,13.6-60.2,16.6
				c-32.3,10.6-21.9,31.6-24.8,43.6c11.4,4.3,24.9-1.5,36.6-2s20,4.8,31.6,1.4c2,0,4-0.1,6-0.5c3.9-0.8,7.6-3.5,9.9-6.6
				c2.1-2.8,3-2.4,6.2-3.1s4.5-2.6,5.3-5.8c0.7-2.7-0.2-5.2,0.2-7.8c0.4-2.9,2.7-4,5-5.4c4.7-2.8,8.4-5.5,6.5-11.4
				C539.8,498.2,539.3,497.4,538.6,496.7z"/>
			<path class="st15" d="M355.7,408.2c-12.2,26.1-13.7,32.8-18.2,46.2c-6,17.8-9.2,35.5-12.4,53c33.6,2.1,148.2-13.4,148.2-13.4
				l0.2,45.4c0,0-15.6,6.5-27,10.6c-21.5,7.8-49.1,19.4-71.6,23.9c-33.1,6.6-91.1,17.6-117.9-17.6c-24.7-32.6-5.5-92.9,6.9-125
				c7.7-20,21.5-48.8,38.3-62.1c9.2-7.3,28.3-16.1,49.9-2.3C358.9,371.2,367.9,382.8,355.7,408.2z"/>
		</g>
	</g>
</g>
<g>
	<g>
		<defs>
			<rect id="SVGID_19_" x="510.1" y="516.8" width="467.9" height="456"/>
		</defs>
		<clipPath id="SVGID_20_">
			<use xlink:href="#SVGID_19_"  style="overflow:visible;"/>
		</clipPath>
		<g class="st20">
			<rect x="510.1" y="516.8" class="st18" width="20.5" height="456"/>
			<rect x="510.1" y="516.8" class="st18" width="467.9" height="149.2"/>
		</g>
	</g>
</g>
<g>
	<g>
		<defs>
			<rect id="SVGID_21_" x="525.9" y="318.8" width="431" height="199"/>
		</defs>
		<clipPath id="SVGID_22_">
			<use xlink:href="#SVGID_21_"  style="overflow:visible;"/>
		</clipPath>
		<g class="st21">
			<rect x="525.9" y="503.7" class="st16" width="194.2" height="14.1"/>
			<polygon class="st16" points="956.9,318.8 715.6,318.8 659.9,517.8 901.3,517.8 			"/>
			<ellipse class="st22" cx="815.6" cy="421.7" rx="20.7" ry="20.6"/>
		</g>
	</g>
</g>
<g>
	<g>
		<defs>
			<rect id="SVGID_23_" x="762" y="337.8" width="373" height="636"/>
		</defs>
		<clipPath id="SVGID_24_">
			<use xlink:href="#SVGID_23_"  style="overflow:visible;"/>
		</clipPath>
		<g class="st23">
			<path class="st15" d="M942.1,445.9c0.5-0.5,0.9-1.1,1.4-1.6h-0.9c4.3-17.7-4.2-36.5-16.2-50.2c-5.3-6.2-11.6-11.8-19.3-14.2
				c-8.1-2.5-16.8-1.3-25,0.8c-24.1,6.2-45.9,19-63,37.1c-5.5,5.8-10.8,13.4-9.2,21.2c1.7,8.8,11.7,16.8,7.6,24.8
				c-4.2,8.2-18.5,5.2-23.6,12.9c-7.9,11.8,16.6,26,10.3,38.8c-3.2,6.5-12.1,7.1-18.8,10c-12.8,5.6-18,23.9-9.9,35.4
				c7.1,10.2,22.9,17.5,20,29.6c-1,4.2-4.4,7.5-7.4,10.6c-10,10.2-18.9,22.1-23.2,35.8s-3.7,29.4,4,41.5c4,6.2,9.6,11.2,15.2,15.8
				c28.4,23.1,39.4,47.4,62.2,76.1c14.2,17.9,45.9,132.8,53.6,165c5.9-47,19.4-186.8,25.1-194.6s8.6-18.7,3.8-27
				c-3.5-6.1-10.2-9.3-16-13.4s-11.1-10.4-9.7-17.3c0.6-3.2,2.7-5.9,4.7-8.4c6.5-8,14.1-15.2,18.8-24.4s6.1-21,0-29.3
				c-5.7-7.8-16.6-11.2-25.2-16c7.3-5.6,18-9.4,24-16.6c4.6-5.6,6.3-13.2,4.4-20.2c-2-7.3-7.6-12.9-12-19.1c1-3.5,0.5-7.4-1.5-10.5
				c-1.2-1.7-2.7-3.2-4.4-4.3c-0.4-3.6,0.7-7.2,3-10c3.7-4.3,9.9-5.4,14-9.3c6.5-6.2,4.3-18.8-3.9-22.4c-4.7-2.1-11.7-2.6-12.4-7.7
				c-0.1-0.6-0.1-1.2,0-1.7C924.6,471.9,937.6,461.3,942.1,445.9z"/>
			<path class="st24" d="M1005.1,715.3c-3.4-8.4-11.2-14.9-12.7-23.8c-2.3-13,9.1-23.7,16.5-34.6c19.3-28.7,11.6-67.5-17-86.8
				c-5.7-3.9-12.1-6.7-18.8-8.5c-12.2-3.2-25.6-2.9-36.4-9.3c-14.8-8.8-26.5-29.9-42.7-24.2c-11.3,4-14,19.4-10.2,30.8
				s11.7,21.1,15.2,32.6c6.7,22-4.1,44.9-12.6,66.2s-14.4,47.6-0.2,65.6c6.9,8.8,18,14.5,22.1,24.9c5.5,14.2-4.5,29.1-9.4,43.5
				c-9.2,26.8,1.3,59.1,24.4,75.4c1-34.6,16.4-67.1,42.6-89.8c10-8.6,21.5-15.6,30.1-25.6S1010,727.6,1005.1,715.3z"/>
			<path class="st16" d="M886.7,919h-0.2c-0.8-0.1-1.4-0.9-1.3-1.7l0,0c7.4-52.4,18.5-101.5,33-146c0.3-0.8,1.2-1.2,2-1s1.2,1.2,1,2
				c-14.5,44.4-25.5,93.3-32.9,145.5C888.1,918.5,887.4,919,886.7,919z"/>
			<path class="st22" d="M901.5,750.3c4.4-6.5,16.6-6,27.1,1.1s15.4,18.2,11,24.8s-16.6,6.1-27.1-1.1S897,756.8,901.5,750.3z"/>
			<path class="st16" d="M922.9,763.3c-0.2,0-0.3,0-0.5-0.1c-0.8-0.3-1.3-1.1-1-2l0,0c7.3-21.4,15.7-42.4,25.2-63
				c0.3-0.8,1.2-1.2,2-0.9s1.2,1.2,0.9,2c0,0,0,0.1-0.1,0.1c-9.4,20.4-17.8,41.4-25.1,62.7C924.2,762.9,923.6,763.3,922.9,763.3z"/>
			<path class="st22" d="M923.1,671.4c4.4-6.5,20.9-3.1,36.8,7.7s25.2,24.8,20.7,31.4s-20.9,3.1-36.8-7.7S918.7,677.9,923.1,671.4z"
				/>
			<path class="st16" d="M951.3,693.6c-0.9,0-1.5-0.7-1.5-1.6c0-0.2,0.1-0.5,0.2-0.7c2.8-5.8,5.7-11.7,8.7-17.3
				c8.1-15.6,16.9-30.8,26.3-45.3c0.5-0.7,1.5-0.8,2.2-0.3c0.6,0.5,0.8,1.3,0.4,2c-9.3,14.4-18.1,29.6-26.1,45
				c-2.9,5.6-5.8,11.4-8.6,17.3C952.4,693.3,951.9,693.6,951.3,693.6z"/>
			<path class="st22" d="M959.9,595c5.2-5.2,21.9,2.9,37.1,18.2s23.4,32,18.1,37.2s-21.9-2.9-37.1-18.2S954.7,600.3,959.9,595z"/>
			<path class="st16" d="M991,623.8c-0.9,0-1.5-0.7-1.5-1.6c0-0.3,0.1-0.6,0.3-0.9c12.4-18.5,26-36.2,40.7-52.9
				c0.6-0.6,1.6-0.5,2.2,0.1c0.5,0.5,0.5,1.3,0.1,1.9c-14.6,16.6-28.1,34.2-40.4,52.6C992,623.5,991.5,623.8,991,623.8z"/>
			<path class="st22" d="M1016.6,515.3c9.3-4,26.3,14.6,38.1,41.6s13.8,52.2,4.5,56.3s-26.3-14.6-38.1-41.6
				C1009.3,544.6,1007.3,519.4,1016.6,515.3z"/>
			<path class="st16" d="M1039.1,562.6c-0.9,0-1.5-0.7-1.5-1.6c0-0.4,0.1-0.8,0.4-1c14.6-15.9,30.4-30.7,47.1-44.3
				c0.6-0.6,1.6-0.6,2.2,0.1c0.6,0.6,0.6,1.6-0.1,2.2c-0.1,0-0.1,0.1-0.2,0.1c-16.6,13.5-32.3,28.2-46.8,44
				C1040,562.4,1039.6,562.6,1039.1,562.6z"/>
			<path class="st22" d="M1049.4,462.7c7.8-6.4,31.8,9.8,53.7,36.2s33.2,53.1,25.4,59.6s-31.8-9.8-53.7-36.2
				S1041.7,469.2,1049.4,462.7z"/>
			<path class="st16" d="M1094.3,511.9c-0.9,0-1.5-0.7-1.5-1.6c0-0.5,0.2-0.9,0.6-1.2c10.8-8.4,22.1-16.2,33.5-23.3
				c0.7-0.4,1.7-0.2,2.1,0.5s0.2,1.6-0.5,2.1c-11.3,7.1-22.5,14.8-33.2,23.2C1094.9,511.8,1094.6,511.9,1094.3,511.9z"/>
			<path class="st16" d="M914.1,948.6l-5.6-17c-0.3-0.8,0.2-1.7,1-1.9c0.2-0.1,0.4-0.1,0.6-0.1c-3.7-82.4-5.7-179,5.3-277.2
				c0.5-4.7,1.1-9.4,1.7-14c0.2-0.8,1-1.4,1.8-1.2c0.8,0.1,1.3,0.8,1.3,1.6c-0.6,4.6-1.1,9.3-1.7,13.9
				c-11.3,101.1-8.8,200.6-4.9,284.5L914.1,948.6z"/>
			<path class="st16" d="M898,639.1c-1.2-4.2,7-10.2,18.3-13.3s21.3-2.2,22.5,2s-7,10.2-18.3,13.3S899.1,643.3,898,639.1z"/>
			<path class="st16" d="M919.5,633.4h-0.2c-0.8-0.1-1.4-0.9-1.3-1.7l0,0c3.8-28.8,8.6-56.9,14.5-83.7c0.3-0.8,1.2-1.2,2-0.9
				c0.7,0.2,1.1,0.9,1,1.6c-5.8,26.7-10.7,54.7-14.4,83.4C920.9,632.8,920.3,633.4,919.5,633.4z"/>
			<path class="st16" d="M907.2,550.9c-1.2-4.2,9.4-10.8,23.6-14.8s26.7-3.7,27.8,0.5s-9.4,10.8-23.6,14.7S908.4,555.1,907.2,550.9z
				"/>
			<path class="st16" d="M935.4,543.3c-0.1,0-0.2,0-0.3,0c-0.8-0.2-1.3-1-1.2-1.8l0,0c5.5-24.3,12-48.2,19.3-70.9
				c0.3-0.8,1.1-1.3,1.9-1s1.3,1.1,1,1.9c-7.2,22.6-13.7,46.4-19.2,70.6C936.8,542.8,936.1,543.3,935.4,543.3z"/>
			
				<ellipse transform="matrix(8.593864e-02 -0.9963 0.9963 8.593864e-02 409.0351 1375.9005)" class="st16" cx="954.4" cy="465" rx="12.6" ry="33.7"/>
			<path class="st16" d="M957.6,463.7c-0.2,0-0.3,0-0.5-0.1c-0.8-0.2-1.3-1.1-1-1.9v-0.1c5.4-16.2,11.4-32.2,17.7-47.5
				c0.3-0.8,1.2-1.2,2-1c0.8,0.3,1.2,1.2,1,2c0,0.1,0,0.1-0.1,0.2c-6.3,15.3-12.2,31.2-17.6,47.3
				C958.8,463.2,958.2,463.7,957.6,463.7z"/>
			<path class="st16" d="M941.9,402.4c1-6.3,17.3-8.9,36.5-5.9s33.9,10.6,32.9,16.9s-17.3,8.9-36.5,5.9S940.9,408.7,941.9,402.4z"/>
			<path class="st16" d="M978.4,408.8c-0.2,0-0.4,0-0.6-0.1c-0.8-0.3-1.1-1.2-0.8-2c4.1-9.7,8.5-19.2,12.9-28.5
				c1.3-2.8,2.7-5.6,4.1-8.4c0.3-0.8,1.2-1.2,2-0.8c0.8,0.3,1.2,1.2,0.8,2c0,0.1-0.1,0.1-0.1,0.2c-1.4,2.8-2.8,5.6-4.1,8.4
				c-4.4,9.2-8.8,18.8-12.9,28.4C979.5,408.4,979,408.8,978.4,408.8z"/>
			<path class="st16" d="M956.2,357.1c1.2-7.6,19.9-10.9,41.8-7.5s38.6,12.5,37.4,20s-19.9,10.9-41.8,7.5S955,364.7,956.2,357.1z"/>
			<path class="st16" d="M1000.8,361.4c-0.3,0-0.5-0.1-0.7-0.2c-0.8-0.4-1-1.3-0.7-2.1l0,0c3.7-7,7.4-13.9,11.3-20.6
				c0.4-0.8,1.3-1.1,2.1-0.7c0.8,0.4,1.1,1.3,0.7,2.1l-0.1,0.1c-3.8,6.6-7.6,13.5-11.2,20.5C1001.8,361.1,1001.3,361.4,1000.8,361.4
				z"/>
			<rect x="842.9" y="820.6" class="st16" width="121.3" height="153.3"/>
		</g>
	</g>
</g>
<g>
	<text transform="matrix(1 0 0 1 1467.1605 175.5841)" class="st2" style="font-family:'Poppins-Light'; font-size:43.6927px;">Insert text here</text>
</g>
</svg>
