<?xml version="1.0" encoding="utf-8"?>
<!-- Generator: Adobe Illustrator 25.1.0, SVG Export Plug-In . SVG Version: 6.00 Build 0)  -->
<svg version="1.1" id="Layer_1" xmlns="http://www.w3.org/2000/svg" xmlns:xlink="http://www.w3.org/1999/xlink" x="0px" y="0px"
	 viewBox="0 0 1038 1115" style="enable-background:new 0 0 1038 1115;" xml:space="preserve">
<style type="text/css">
	.st0{clip-path:url(#SVGID_2_);}
	.st1{clip-path:url(#SVGID_4_);}
	.st2{fill:#D8C4FA;}
	.st3{fill:#E6DCFD;}
	.st4{fill:#B796F7;}
	.st5{fill:#DABA4E;}
	.st6{fill:#FFFFFF;}
	.st7{clip-path:url(#SVGID_6_);}
	.st8{fill:#D9D8D9;}
	.st9{fill:#36154C;}
	.st10{fill:#EDEDED;}
	.st11{fill:#D6D7D8;}
	.st12{fill:#EEEEEE;}
	.st13{clip-path:url(#SVGID_8_);}
	.st14{opacity:0.86;fill:#FFFFFF;enable-background:new    ;}
	.st15{fill:#996C68;}
	.st16{fill:url(#hair-2-i5_1_);}
	.st17{font-family:'Montserrat-BoldItalic';}
	.st18{font-size:43.7095px;}
</style>
<g>
	<g>
		<g>
			<defs>
				<rect id="SVGID_1_" x="472.4" y="49.1" width="501.4" height="1045"/>
			</defs>
			<clipPath id="SVGID_2_">
				<use xlink:href="#SVGID_1_"  style="overflow:visible;"/>
			</clipPath>
			<g class="st0">
				<g>
					<g>
						<g>
							<defs>
								<rect id="SVGID_3_" x="463.9" y="49.1" width="522" height="1046.9"/>
							</defs>
							<clipPath id="SVGID_4_">
								<use xlink:href="#SVGID_3_"  style="overflow:visible;"/>
							</clipPath>
							<g class="st1">
								<path class="st2" d="M908.9,1096H539.8c-37.8,0-68.5-30.4-68.5-67.9V117c0-37.5,30.6-67.9,68.5-67.9h369.2
									c37.9,0,68.5,30.5,68.5,67.9v911.1C977.4,1065.6,946.8,1096,908.9,1096z"/>
								<ellipse class="st3" cx="651.7" cy="114.8" rx="12" ry="11.9"/>
								<path class="st4" d="M908.9,49.1h-70.9c-3.7,2.2-7.2,4.5-10.7,6.8c-92.9,61.7-172.7,148.9-203.8,255.4
									c-12.6,42.9-16.9,87.7-26.4,131.4c-21.7,100-70.4,192.2-125.9,278.5V1028c0,37.5,30.6,67.9,68.5,67.9H909
									c37.8,0,68.5-30.4,68.5-67.9V117C977.4,79.4,946.8,49.1,908.9,49.1z"/>
								<ellipse class="st2" cx="728" cy="1034.9" rx="42.6" ry="42.2"/>
								<polygon class="st3" points="684.2,111.3 769.5,100.8 771.3,115.3 686.1,125.8 								"/>
								<rect x="491.3" y="167.5" class="st5" width="466" height="810.9"/>
								<ellipse class="st4" cx="723.1" cy="1029.9" rx="32.5" ry="32.2"/>
								<path class="st4" d="M759,114.1h-70c-1.4,0-2.5-1.1-2.5-2.5c0-1.4,1.1-2.5,2.5-2.5h70c1.4,0,2.5,1.1,2.5,2.5
									C761.5,113,760.4,114.1,759,114.1L759,114.1L759,114.1z"/>
								<ellipse class="st4" cx="651.9" cy="113.4" rx="8.2" ry="8.2"/>
								<polygon class="st6" points="642.6,96.5 654.2,108.9 641.6,120.4 630,107.9 								"/>
								<polygon class="st4" points="634.3,97.8 642.5,106.6 633.7,114.8 625.4,106 								"/>
							</g>
						</g>
					</g>
				</g>
			</g>
		</g>
	</g>
</g>
<g>
	<g>
		<g>
			<defs>
				<rect id="SVGID_5_" x="194.9" y="577.7" width="482.7" height="289.6"/>
			</defs>
			<clipPath id="SVGID_6_">
				<use xlink:href="#SVGID_5_"  style="overflow:visible;"/>
			</clipPath>
			<g class="st7">
				<path class="st8" d="M632.1,867.3H240.5c-25,0-45.5-20.8-45.5-46.2V623.9c0-25.4,20.5-46.2,45.5-46.2h391.6
					c25,0,45.5,20.8,45.5,46.2v197.2C677.6,846.5,657.1,867.3,632.1,867.3z"/>
				<rect x="194.9" y="636.2" class="st9" width="482.7" height="56.1"/>
				<rect x="234.4" y="790.2" class="st6" width="15.2" height="15.4"/>
				<rect x="462.1" y="824.2" class="st6" width="15.2" height="15.4"/>
				<path class="st5" d="M276.1,826.5c-11.1,0.2-20.2-8.7-20.3-19.8c-0.2-11.1,8.7-20.2,19.8-20.3c11.1-0.2,20.2,8.7,20.3,19.8
					c0,0.1,0,0.2,0,0.3C296,817.4,287.1,826.4,276.1,826.5z M276.1,794.1c-6.8-0.1-12.4,5.3-12.5,12.2s5.3,12.4,12.2,12.5
					s12.4-5.3,12.5-12.2c0-0.1,0-0.1,0-0.2C288.4,799.7,283,794.2,276.1,794.1C276.2,794.1,276.1,794.1,276.1,794.1z"/>
				<path class="st5" d="M499.3,843.4c-11.1,0.2-20.2-8.6-20.3-19.7c-0.2-11.1,8.6-20.2,19.7-20.3c11.1-0.2,20.2,8.6,20.3,19.7
					c0,0.1,0,0.2,0,0.4C519,834.3,510.2,843.3,499.3,843.4z M499.3,811c-6.8-0.1-12.4,5.3-12.5,12.1c-0.1,6.8,5.3,12.4,12.1,12.5
					c6.8,0.1,12.4-5.3,12.5-12.1c0-0.1,0-0.1,0-0.2C511.5,816.7,506,811.1,499.3,811L499.3,811z"/>
				<rect x="276.8" y="836.3" class="st5" width="27.6" height="8"/>
				<rect x="378.8" y="793.4" class="st10" width="27.1" height="7.5"/>
				<rect x="378.8" y="812.1" class="st11" width="27.1" height="7.5"/>
				<rect x="518.1" y="793.4" class="st12" width="27.6" height="7.5"/>
				<path class="st12" d="M327,843.4c-8.1-0.1-14.4-6.7-14.4-14.6v-26.1c-0.2-8,6.1-14.6,14.1-14.8c8-0.2,14.6,6.1,14.8,14.1
					c0,0.3,0,0.5,0,0.7v26.1C341.4,836.8,335,843.4,327,843.4z M327,795.7c-3.8,0-6.8,3.1-6.8,6.9v26.1c0,3.8,3,6.9,6.8,6.9l0,0
					c3.8,0,6.8-3.1,6.8-6.9v-26.1C333.8,798.8,330.8,795.7,327,795.7z"/>
				<path class="st10" d="M425.7,835.7c-3.8,0-7.5-1.5-10.2-4.3c-5.6-5.7-5.6-14.9,0-20.7l19.8-20.1c5.5-5.6,14.6-5.7,20.2-0.2
					c0.1,0.1,0.1,0.1,0.2,0.2c5.6,5.7,5.6,14.9,0,20.7l-19.9,20.1C433.2,834.2,429.5,835.7,425.7,835.7z M445.4,794.1
					c-1.8,0-3.6,0.7-4.9,2.1l-19.7,20.1c-2.6,2.7-2.6,7.1,0,9.8c2.6,2.6,6.9,2.7,9.6,0.1l0.1-0.1l19.7-20.1c2.6-2.7,2.6-7.1,0-9.8
					C448.9,794.8,447.2,794.1,445.4,794.1z"/>
				<rect x="352.8" y="810.3" class="st6" width="15.2" height="15.4"/>
			</g>
		</g>
	</g>
</g>
<g>
	<g>
		<g>
			<defs>
				<rect id="SVGID_7_" y="277.8" width="403" height="816.3"/>
			</defs>
			<clipPath id="SVGID_8_">
				<use xlink:href="#SVGID_7_"  style="overflow:visible;"/>
			</clipPath>
			<g class="st13">
				<path id="R_shoe-2-i5" class="st9" d="M365.6,1064.3c-25.9-11.4-50.2-33.6-54.8-38h-52.4l-23.6,67.8H403
					C403,1094.1,394.4,1077,365.6,1064.3z"/>
				<path id="L_shoe-2-i5" class="st9" d="M147.1,1064.3c-25.9-11.4-48.9-33.6-53-37.8H39.9l-23.6,67.6h168.1
					C184.5,1094.1,175.9,1077,147.1,1064.3z"/>
				<path id="L_trousers-2-i5" class="st3" d="M91.9,534.6l-5.6,21.4c-14.6,39.3-17.5,82-8.5,123c22.1,102.6,0.6,95.6-12.9,124.6
					s-21,46.7-21.5,75.3c-0.5,28.6-11.7,19.9-21.9,55.9c-8.9,31.8-8.9,81-8.5,91.9H94c18.8-36.2,72.7-189.7,80.1-227.5
					c6.7-34.1,9.3-74,9.4-110.6l0.4-111.1L91.9,534.6z"/>
				<path id="R_trousers-2-i5" class="st3" d="M221.1,1026.4c0.3,0,0.6,0,0.8,0h88.9c-8.3-30.4-47.1-172.9-63.6-223.3
					s-43-125.1-57.7-160c-14.7-20.6-14.4-21-24.2-32.7c-17.6-21.2-35.4-25.6-41.7-52c-19.8-3.3-45.8-15.1-65.7-25.2
					C56.5,536.3,31,602,76.9,682.8c47.1,82.9,44.7,69.7,61.3,133.7s3.9,23.7,27.4,88.7C183.3,954.2,182.8,992.3,221.1,1026.4z"/>
				<path id="texture-2-i5" class="st14" d="M88.8,591.3c0.1,0.2,0.3,0.3,0.5,0.2l0,0l0,0c0.2-0.1,0.3-0.3,0.2-0.5l0,0
					c-0.1-0.2-0.3-0.3-0.5-0.2l0,0C88.8,590.9,88.7,591.1,88.8,591.3z M97.3,587.7c0.1,0.2,0.3,0.3,0.5,0.2l0,0l0,0
					c0.2-0.1,0.3-0.3,0.2-0.5l0,0c-0.1-0.2-0.3-0.3-0.5-0.2l0,0C97.3,587.2,97.2,587.5,97.3,587.7L97.3,587.7z M105.9,584
					c0,0.2,0.2,0.3,0.4,0.3l0,0l0,0c0.2-0.1,0.3-0.4,0.2-0.6c-0.1-0.2-0.3-0.3-0.5-0.2l0,0C105.9,583.6,105.8,583.9,105.9,584
					L105.9,584L105.9,584z M116.5,620c0.2,0.1,0.4,0,0.5-0.2l0,0l0,0c0.1-0.2,0-0.4-0.2-0.5s-0.4,0-0.5,0.2l0,0l0,0
					C116.2,619.7,116.3,619.9,116.5,620L116.5,620z M120.1,611.2c0.2,0.1,0.5,0,0.6-0.2c0.1-0.2,0-0.4-0.2-0.5
					c-0.2-0.1-0.4,0-0.5,0.2c0,0,0,0,0,0.1C119.8,610.8,119.9,611.1,120.1,611.2z M123.6,602.4c0.2,0.1,0.4,0,0.5-0.2l0,0l0,0
					c0.1-0.2,0-0.5-0.2-0.6s-0.5,0-0.5,0.2C123.3,602.1,123.4,602.3,123.6,602.4L123.6,602.4z M155.3,619.9c0.1,0.2,0.3,0.3,0.5,0.2
					l0,0l0,0c0.2-0.1,0.3-0.4,0.2-0.6s-0.3-0.3-0.5-0.2C155.3,619.5,155.2,619.7,155.3,619.9L155.3,619.9z M103.1,604.6
					c0.1,0.1,0.4,0.1,0.5,0l0,0c0.2-0.2,0.2-0.4,0-0.6l0,0c-0.1-0.1-0.4-0.1-0.5,0l0,0C103,604.2,103,604.4,103.1,604.6L103.1,604.6
					z M109.7,597.8c0.1,0.1,0.3,0.2,0.5,0.1l0,0h0.1c0.1-0.1,0.1-0.2,0.1-0.4c0-0.1,0-0.2-0.1-0.2c-0.2-0.2-0.4-0.2-0.6,0l0,0
					C109.5,597.4,109.5,597.7,109.7,597.8L109.7,597.8z M116.2,591.2c0.2,0.1,0.4,0.1,0.5,0l0,0c0.2-0.1,0.2-0.4,0-0.5l0,0l0,0
					c-0.1-0.1-0.4-0.1-0.5,0l0,0C116.1,590.8,116.1,591.1,116.2,591.2L116.2,591.2z M135.6,618.6c0,0.2,0.2,0.4,0.4,0.4
					s0.4-0.2,0.4-0.4c0-0.2-0.2-0.4-0.4-0.4S135.6,618.4,135.6,618.6z M65.8,622.4c0.3,0.3,0.7,0.4,1,0.1l0,0c0.3-0.3,0.4-0.7,0.1-1
					c-0.3-0.3-0.7-0.4-1-0.1l0,0C65.6,621.6,65.6,622.1,65.8,622.4z M79.1,610.6c0.3,0.3,0.7,0.4,1,0.1l0,0l0,0
					c0.3-0.3,0.4-0.7,0.1-1l0,0c-0.3-0.3-0.7-0.3-0.9-0.1l0,0C78.9,609.7,78.9,610.2,79.1,610.6L79.1,610.6z M92.4,598.7
					c0.3,0.3,0.7,0.4,1,0.1l0,0l0,0c0.3-0.3,0.3-0.7,0.1-1c-0.3-0.3-0.7-0.4-1-0.1l0,0C92.1,597.9,92.1,598.4,92.4,598.7L92.4,598.7
					L92.4,598.7z M105.7,586.9c0.2,0.2,0.5,0.3,0.7,0.2c0.1,0,0.2-0.1,0.3-0.1c0.1-0.1,0.2-0.3,0.2-0.4l0,0c0.1-0.3,0-0.5-0.2-0.7
					c-0.3-0.3-0.7-0.4-1-0.1l0,0C105.4,586,105.4,586.5,105.7,586.9L105.7,586.9z M118.7,667.6c0,0.4,0.3,0.7,0.7,0.7
					s0.7-0.3,0.7-0.7l0,0c0-0.4-0.3-0.7-0.7-0.7C119.1,667,118.7,667.3,118.7,667.6L118.7,667.6L118.7,667.6z M120,649.6
					c0,0.4,0.3,0.7,0.7,0.7l0,0c0.4,0,0.7-0.3,0.8-0.7l0,0c0-0.4-0.3-0.7-0.7-0.7C120.3,648.9,120,649.3,120,649.6L120,649.6z
					 M121.2,631.6c0,0.4,0.3,0.7,0.7,0.7l0,0l0,0c0.4,0,0.7-0.3,0.7-0.7l0,0l0,0c0-0.4-0.3-0.7-0.7-0.8
					C121.6,630.9,121.2,631.2,121.2,631.6L121.2,631.6z M122.4,613.6c0,0.4,0.3,0.7,0.7,0.7c0.4,0,0.7-0.3,0.8-0.7l0,0
					c0-0.4-0.3-0.7-0.7-0.7C122.9,612.8,122.5,613.1,122.4,613.6L122.4,613.6L122.4,613.6z M57.9,591.3c0.1,0.4,0.5,0.6,0.8,0.5
					c0,0,0,0,0.1,0l0,0c0.4-0.2,0.6-0.6,0.5-0.9c-0.1-0.4-0.6-0.6-0.9-0.5l0,0l0,0C58,590.4,57.7,590.8,57.9,591.3
					C57.9,591.2,57.9,591.2,57.9,591.3L57.9,591.3z M74.6,585.4c0.1,0.4,0.5,0.7,0.9,0.5l0,0c0.4-0.2,0.6-0.6,0.5-0.9
					c-0.1-0.4-0.5-0.6-0.8-0.5l0,0l0,0C74.8,584.6,74.5,585.1,74.6,585.4C74.7,585.4,74.7,585.4,74.6,585.4L74.6,585.4z M85.3,650
					c0.4,0.2,0.7,0,0.9-0.3l0,0c0.2-0.4,0-0.8-0.4-1l0,0c-0.4-0.2-0.7,0-0.9,0.3l0,0C84.8,649.4,84.9,649.8,85.3,650z M93.2,633.8
					c0.4,0.2,0.7,0,0.9-0.3l0,0c0.2-0.4,0-0.8-0.4-1l0,0c-0.4-0.2-0.7,0-0.9,0.3l0,0C92.6,633.2,92.8,633.6,93.2,633.8z M101,617.6
					c0.4,0.2,0.7,0,0.9-0.4c0.2-0.4,0-0.8-0.3-1c-0.4-0.2-0.8,0-1,0.3C100.5,617,100.6,617.4,101,617.6L101,617.6z M108.8,601.4
					c0.4,0.2,0.7,0,0.9-0.3l0,0c0.2-0.4,0-0.8-0.3-1c-0.4-0.2-0.7,0-0.9,0.4l0,0C108.3,600.8,108.5,601.3,108.8,601.4L108.8,601.4z
					 M152,655c0.1,0.4,0.5,0.7,0.8,0.6c0.4-0.1,0.7-0.5,0.6-0.8v-0.1l0,0c-0.1-0.4-0.5-0.6-0.8-0.6l0,0h-0.1
					C152.1,654.1,151.9,654.6,152,655L152,655z M146.5,637.8c0.2,0.4,0.6,0.6,0.9,0.4c0.4-0.1,0.6-0.5,0.5-0.8c0,0,0,0,0-0.1
					c-0.1-0.4-0.5-0.6-0.9-0.5l0,0l0,0C146.6,637,146.3,637.5,146.5,637.8L146.5,637.8z M140.9,620.7c0.1,0.4,0.5,0.6,0.8,0.5h0.1
					c0.4-0.1,0.6-0.6,0.5-0.9l0,0l0,0c-0.1-0.4-0.6-0.6-0.9-0.5l0,0l0,0C141,619.9,140.8,620.3,140.9,620.7L140.9,620.7z
					 M47.9,582.4c0.1-0.2,0.2-0.3,0.1-0.5c0-0.1-0.1-0.2-0.2-0.3C47.8,582,47.8,582.2,47.9,582.4z M62,578.7
					c0.1,0.4,0.4,0.6,0.7,0.5l0,0c0.4-0.1,0.6-0.4,0.5-0.7l0,0c-0.1-0.3-0.4-0.6-0.7-0.5l0,0h-0.1C62.1,577.9,62,578.3,62,578.7
					L62,578.7L62,578.7z M70,641.7c0.3,0.2,0.7,0.1,0.8-0.2l0,0c0.2-0.3,0.2-0.7-0.1-0.9c0,0,0,0-0.1,0l0,0
					c-0.3-0.2-0.7-0.1-0.8,0.2l0,0C69.7,641,69.8,641.4,70,641.7L70,641.7z M78.4,628c0.3,0.2,0.7,0.1,0.8-0.2l0,0l0,0
					c0.2-0.3,0.1-0.7-0.2-0.9c-0.3-0.2-0.7-0.1-0.9,0.2c0,0,0,0,0,0.1l0,0C77.9,627.4,78,627.9,78.4,628C78.3,628,78.4,628,78.4,628
					L78.4,628z M86.4,613.9c0,0.2,0.1,0.3,0.3,0.4c0.3,0.2,0.7,0.1,0.8-0.2l0,0l0,0c0.2-0.3,0.1-0.7-0.2-0.9c-0.2-0.1-0.4-0.1-0.6,0
					l0,0c-0.1,0.1-0.2,0.1-0.3,0.3C86.4,613.6,86.4,613.8,86.4,613.9L86.4,613.9z M95,600.6c0.3,0.2,0.7,0.1,0.9-0.2l0,0
					c0.2-0.3,0.1-0.7-0.2-0.9c-0.3-0.2-0.7-0.1-0.8,0.2l0,0l0,0C94.7,600,94.8,600.4,95,600.6L95,600.6z M103.4,586.9
					c0.3,0.2,0.7,0.1,0.8-0.2l0,0c0.2-0.3,0.1-0.7-0.2-0.9c-0.3-0.2-0.7-0.1-0.9,0.2l0,0C102.9,586.3,103,586.8,103.4,586.9z
					 M135,652.5c0.1,0.4,0.5,0.6,0.8,0.5c0.4-0.1,0.6-0.5,0.5-0.8c-0.1-0.4-0.5-0.6-0.8-0.5l0,0C135.1,651.7,134.9,652.1,135,652.5
					L135,652.5z M131.4,636.7c0.1,0.4,0.5,0.6,0.8,0.4c0.4-0.2,0.6-0.5,0.4-0.8l0,0c-0.1-0.3-0.5-0.5-0.7-0.5
					C131.6,636,131.3,636.3,131.4,636.7z M127.9,621c0.1,0.4,0.4,0.6,0.7,0.5l0,0c0.4-0.1,0.6-0.4,0.5-0.7l0,0
					c-0.1-0.4-0.4-0.6-0.7-0.5l0,0C128,620.2,127.8,620.6,127.9,621L127.9,621z M124.4,605.2c0.1,0.4,0.5,0.6,0.7,0.5l0,0
					c0.4-0.1,0.6-0.5,0.5-0.8c-0.1-0.3-0.4-0.5-0.7-0.5C124.5,604.6,124.3,604.8,124.4,605.2L124.4,605.2z M63.5,603
					c0.2,0.3,0.6,0.4,0.8,0.2l0,0l0,0c0.3-0.2,0.4-0.6,0.2-0.9l0,0l0,0c-0.2-0.3-0.6-0.4-0.8-0.2l0,0l0,0
					C63.4,602.3,63.3,602.7,63.5,603L63.5,603z M76.3,593.6c0.2,0.3,0.6,0.4,0.8,0.2l0,0l0,0c0.3-0.2,0.4-0.7,0.2-0.9
					c-0.2-0.3-0.7-0.4-0.9-0.2C76.1,592.9,76,593.3,76.3,593.6L76.3,593.6L76.3,593.6z M89,584.2c0.2,0.3,0.6,0.4,0.9,0.2l0,0l0,0
					c0.3-0.2,0.4-0.7,0.2-0.9c-0.2-0.3-0.6-0.4-0.8-0.2l0,0l0,0C88.9,583.5,88.9,583.9,89,584.2L89,584.2L89,584.2z M101.3,645.1
					c0,0.4,0.2,0.7,0.6,0.7c0.4,0.1,0.7-0.2,0.7-0.6l0,0c0.1-0.4-0.2-0.7-0.6-0.7C101.7,644.4,101.3,644.7,101.3,645.1L101.3,645.1z
					 M103.8,629.1c-0.1,0.4,0.1,0.7,0.4,0.8c0.4,0.1,0.7-0.1,0.8-0.4c0,0,0-0.1,0-0.2l0,0c0.1-0.4-0.2-0.7-0.6-0.7
					C104.2,628.6,103.9,628.7,103.8,629.1L103.8,629.1L103.8,629.1z M106.5,613.2c-0.1,0.4,0.2,0.7,0.6,0.7c0.4,0.1,0.7-0.2,0.7-0.6
					c0.1-0.4-0.2-0.7-0.6-0.7C106.8,612.5,106.6,612.8,106.5,613.2L106.5,613.2L106.5,613.2z M109.1,597.3c-0.1,0.4,0.2,0.7,0.6,0.7
					c0.2,0,0.4,0,0.6-0.2l0,0c0.1-0.1,0.2-0.3,0.2-0.4c0-0.4-0.2-0.7-0.6-0.7C109.4,596.7,109.1,596.9,109.1,597.3L109.1,597.3z
					 M160.1,632.1c0.2,0.3,0.6,0.4,0.8,0.2l0,0l0,0c0.3-0.2,0.4-0.7,0.2-0.9s-0.7-0.4-0.9-0.2l0,0
					C159.9,631.5,159.8,631.8,160.1,632.1C160,632.1,160,632.1,160.1,632.1L160.1,632.1z M150.9,619c0.2,0.3,0.6,0.4,0.9,0.2l0,0
					l0,0c0.3-0.2,0.4-0.7,0.1-0.9c-0.2-0.3-0.6-0.4-0.8-0.2l0,0C150.8,618.2,150.7,618.7,150.9,619L150.9,619z M71,601.7
					c0.2,0.2,0.4,0.2,0.6,0c0.2-0.2,0.2-0.4,0-0.6s-0.4-0.2-0.6,0C70.9,601.2,70.9,601.5,71,601.7L71,601.7z M77.4,594.6
					c0.2,0.2,0.4,0.2,0.6,0c0.2-0.2,0.2-0.4,0-0.6s-0.4-0.2-0.6,0l0,0C77.2,594.3,77.2,594.5,77.4,594.6L77.4,594.6z M83.7,587.7
					c0.1,0.2,0.4,0.2,0.5,0l0,0l0,0c0.2-0.1,0.2-0.4,0-0.6l0,0l0,0c-0.2-0.2-0.4-0.2-0.6,0l0,0C83.6,587.3,83.6,587.5,83.7,587.7
					L83.7,587.7L83.7,587.7z M90.1,580.8c0.2,0.2,0.4,0.2,0.6,0l0,0c0.2-0.2,0.2-0.4,0-0.6l0,0c-0.2-0.2-0.4-0.2-0.6,0l0,0
					C89.9,580.3,89.9,580.6,90.1,580.8L90.1,580.8z M107.5,615.4c0,0.2,0.2,0.4,0.4,0.4c0.2,0,0.4-0.2,0.4-0.4
					c0-0.2-0.2-0.4-0.4-0.4C107.6,615.1,107.5,615.3,107.5,615.4L107.5,615.4z M107.1,605.9c0,0.2,0.2,0.4,0.5,0.4
					c0.2,0,0.4-0.2,0.4-0.4l0,0c0-0.2-0.2-0.4-0.4-0.4l0,0C107.3,605.5,107.2,605.7,107.1,605.9L107.1,605.9L107.1,605.9z
					 M106.8,596.4c0,0.2,0.2,0.4,0.4,0.4l0,0c0.2,0,0.4-0.2,0.4-0.4l0,0l0,0c0-0.2-0.2-0.4-0.4-0.4l0,0l0,0
					C107,596,106.8,596.2,106.8,596.4L106.8,596.4L106.8,596.4z M106.6,586.9L106.6,586.9c0.1,0.3,0.2,0.4,0.4,0.4
					c0.2,0,0.4-0.2,0.4-0.4l0,0c0-0.2-0.1-0.3-0.3-0.4l0,0h-0.1C106.7,586.5,106.6,586.7,106.6,586.9L106.6,586.9L106.6,586.9z
					 M63.6,582.2c0.1,0.2,0.3,0.3,0.5,0.2c0.2-0.1,0.3-0.4,0.2-0.6c-0.1-0.2-0.3-0.3-0.5-0.2l0,0l0,0
					C63.6,581.8,63.5,582,63.6,582.2L63.6,582.2z M72.1,578.2c0.1,0.2,0.4,0.3,0.6,0.2c0.2-0.1,0.2-0.3,0.2-0.5l0,0
					c-0.1-0.2-0.3-0.3-0.5-0.2h-0.1C72.1,577.9,72,578,72.1,578.2L72.1,578.2L72.1,578.2z M89.5,607.5c0.2,0.1,0.4,0,0.5-0.2
					c0.1-0.2,0-0.5-0.2-0.5l0,0c-0.2-0.1-0.4,0-0.5,0.2l0,0l0,0C89.2,607.2,89.3,607.4,89.5,607.5L89.5,607.5z M92.8,598.6
					c0.2,0.1,0.5,0,0.5-0.3c0.1-0.2,0-0.5-0.2-0.5c-0.2-0.1-0.4,0-0.5,0.2l0,0l0,0C92.5,598.2,92.6,598.5,92.8,598.6L92.8,598.6
					L92.8,598.6z M96,589.7c0.2,0.1,0.4,0,0.5-0.2l0,0c0.1-0.2,0-0.5-0.2-0.5c-0.2-0.1-0.4,0-0.5,0.2
					C95.7,589.4,95.8,589.6,96,589.7L96,589.7z M124.7,606.3c0.1,0.2,0.3,0.3,0.5,0.2l0,0l0,0c0.2-0.1,0.3-0.3,0.2-0.5l0,0l0,0
					c-0.1-0.2-0.3-0.3-0.5-0.2l0,0h-0.1C124.7,605.9,124.7,606.2,124.7,606.3L124.7,606.3z M120.9,597.6c0.1,0.2,0.3,0.3,0.6,0.2
					l0,0l0,0c0.2-0.1,0.3-0.3,0.2-0.5l0,0c-0.1-0.2-0.3-0.3-0.5-0.2c0,0,0,0-0.1,0C120.9,597.3,120.8,597.4,120.9,597.6L120.9,597.6
					z M49.1,570.9c0.1,0.2,0.3,0.4,0.6,0.4l0,0c0.3-0.1,0.4-0.3,0.4-0.6c0-0.2-0.3-0.4-0.5-0.4l0,0l0,0
					C49.3,570.5,49.1,570.6,49.1,570.9C49.2,570.9,49.2,570.9,49.1,570.9L49.1,570.9z M64.5,611c0.2,0.1,0.5,0.1,0.6-0.1l0,0l0,0
					c0.1-0.2,0.1-0.5-0.1-0.7l0,0l0,0c-0.2-0.1-0.5-0.1-0.6,0.1l0,0l0,0C64.2,610.7,64.3,610.9,64.5,611L64.5,611z M70.2,601.9
					c0.2,0.1,0.5,0.1,0.6-0.1l0,0l0,0c0.1-0.2,0.1-0.5-0.1-0.7c-0.2-0.1-0.5-0.1-0.6,0.1l0,0l0,0C69.9,601.5,70,601.8,70.2,601.9
					C70.2,601.8,70.2,601.8,70.2,601.9L70.2,601.9z M75.8,592.8c0.2,0.1,0.4,0.1,0.6-0.1c0,0,0.1,0,0.1-0.1c0.1-0.2,0.1-0.5-0.1-0.7
					c-0.2-0.1-0.5-0.1-0.6,0.1l0,0l0,0C75.6,592.3,75.6,592.6,75.8,592.8L75.8,592.8z M81.5,583.6c0.2,0.1,0.5,0.1,0.6-0.1l0,0l0,0
					c0.1-0.2,0.1-0.5-0.1-0.7c-0.1-0.1-0.3-0.1-0.4,0c-0.1,0-0.1,0-0.1,0l-0.1,0.1C81.3,583.2,81.4,583.5,81.5,583.6L81.5,583.6z
					 M108.1,618.8c0,0.2,0.2,0.4,0.5,0.4l0,0h0.1c0.2-0.1,0.4-0.3,0.3-0.6c-0.1-0.2-0.3-0.4-0.5-0.4
					C108.2,618.3,108.1,618.6,108.1,618.8L108.1,618.8z M105.8,608.2c0.1,0.3,0.3,0.4,0.6,0.3l0,0c0.3-0.1,0.4-0.3,0.4-0.6
					c-0.1-0.3-0.3-0.4-0.6-0.4C105.9,607.8,105.7,607.9,105.8,608.2L105.8,608.2z M103.6,597.5c0,0.2,0.2,0.4,0.4,0.4l0,0l0,0
					c0.2-0.1,0.4-0.3,0.3-0.6c-0.1-0.2-0.3-0.4-0.6-0.4C103.6,597.1,103.5,597.3,103.6,597.5L103.6,597.5z M101.3,586.9
					c0,0.2,0.2,0.4,0.5,0.4h0.1c0.3-0.1,0.4-0.3,0.3-0.6c-0.1-0.3-0.3-0.4-0.6-0.4C101.4,586.5,101.2,586.8,101.3,586.9L101.3,586.9
					z M52.4,591.1c0.1,0.2,0.4,0.3,0.6,0.2l0,0c0.2-0.2,0.3-0.5,0.1-0.7c-0.1-0.2-0.4-0.3-0.6-0.1l0,0
					C52.3,590.6,52.3,590.9,52.4,591.1L52.4,591.1z M61.1,584.8c0.1,0.2,0.4,0.3,0.6,0.1l0,0c0.2-0.1,0.3-0.5,0.1-0.7l0,0l0,0
					c-0.1-0.2-0.4-0.3-0.6-0.1l0,0l0,0C61,584.3,61,584.6,61.1,584.8L61.1,584.8z M69.8,578.6c0.1,0.2,0.4,0.3,0.6,0.1l0,0l0,0
					c0.2-0.1,0.3-0.4,0.1-0.6l0,0l0,0c-0.1-0.2-0.4-0.3-0.7-0.1C69.6,578.1,69.6,578.4,69.8,578.6L69.8,578.6z M86.4,613.8
					c0.1,0,0.1,0.1,0.2,0.1c0.2,0,0.5-0.1,0.5-0.4l0,0c0-0.3-0.1-0.5-0.4-0.6l0,0c-0.2,0-0.5,0.1-0.5,0.4l0,0l0,0
					C86.2,613.6,86.3,613.8,86.4,613.8L86.4,613.8z M88.1,602.7c0,0.3,0.1,0.5,0.4,0.6c0.3,0,0.5-0.1,0.6-0.4c0-0.3-0.1-0.5-0.4-0.6
					C88.4,602.3,88.2,602.5,88.1,602.7L88.1,602.7L88.1,602.7z M90,592c0,0.3,0.1,0.5,0.4,0.5l0,0l0,0c0.2,0,0.5-0.1,0.5-0.4l0,0
					l0,0c0-0.3-0.1-0.5-0.4-0.5l0,0C90.3,591.6,90.1,591.8,90,592C90.1,592,90.1,592,90,592L90,592L90,592z M91.8,581.3
					c0,0.3,0.1,0.5,0.4,0.5l0,0c0.2,0.1,0.5-0.1,0.5-0.3c0,0,0,0,0-0.1c0.1-0.2-0.1-0.5-0.3-0.5l0,0C92.1,580.9,91.9,581,91.8,581.3
					L91.8,581.3L91.8,581.3z M126,605.1c0.1,0.2,0.4,0.3,0.6,0.1l0,0l0,0c0.2-0.2,0.3-0.4,0.1-0.7c-0.1-0.2-0.4-0.3-0.6-0.2l0,0l0,0
					C125.9,604.7,125.9,604.9,126,605.1L126,605.1z M120,596.2c0.1,0.2,0.4,0.3,0.6,0.1l0,0l0,0c0.2-0.1,0.3-0.4,0.1-0.6l0,0l0,0
					c-0.1-0.2-0.4-0.3-0.7-0.1l0,0C119.8,595.8,119.8,596,120,596.2C119.9,596.3,119.9,596.3,120,596.2L120,596.2z M113.9,587.3
					c0.1,0.2,0.4,0.3,0.6,0.1l0,0c0.2-0.1,0.3-0.4,0.1-0.6c-0.1-0.2-0.4-0.3-0.6-0.2l0,0C113.8,586.9,113.8,587.1,113.9,587.3
					L113.9,587.3z M48.7,585.5c0.2,0.3,0.7,0.4,1,0.2l0,0h0.1c0.4-0.3,0.4-0.7,0.2-1.1c-0.3-0.4-0.7-0.4-1-0.2l0,0
					C48.5,584.7,48.5,585.2,48.7,585.5L48.7,585.5z M63.4,574.6c0.2,0.4,0.7,0.4,1,0.2l0,0c0.4-0.3,0.4-0.7,0.2-1l0,0
					c-0.3-0.4-0.7-0.4-1-0.2l0,0C63.2,573.7,63.2,574.2,63.4,574.6L63.4,574.6z M69.7,658.8c-0.1,0.4,0.2,0.8,0.7,0.8
					c0.4,0.1,0.7-0.2,0.8-0.7l0,0l0,0c0.1-0.4-0.2-0.8-0.7-0.8C70.2,658.1,69.8,658.4,69.7,658.8L69.7,658.8z M72.5,640.4
					c-0.1,0.4,0.2,0.8,0.6,0.8l0,0c0.4,0.1,0.7-0.2,0.8-0.6l0,0l0,0c0.1-0.4-0.2-0.8-0.6-0.8C73,639.8,72.6,640,72.5,640.4
					L72.5,640.4L72.5,640.4z M75.4,622c-0.1,0.4,0.2,0.8,0.7,0.8c0.4,0.1,0.7-0.2,0.8-0.7l0,0c0.1-0.4-0.2-0.8-0.7-0.8l0,0
					C75.8,621.2,75.4,621.5,75.4,622L75.4,622z M78.2,603.5c-0.1,0.4,0.2,0.7,0.7,0.8c0.4,0.1,0.7-0.2,0.8-0.7
					c0.1-0.4-0.2-0.7-0.7-0.8C78.6,602.9,78.3,603.2,78.2,603.5L78.2,603.5L78.2,603.5L78.2,603.5z M81,585.2
					c-0.1,0.4,0.2,0.8,0.7,0.8c0.4,0.1,0.7-0.2,0.8-0.6l0,0l0,0c0.1-0.4-0.2-0.7-0.6-0.8h-0.1C81.4,584.5,81.1,584.8,81,585.2
					L81,585.2L81,585.2z M144.1,640.9c0.3,0.4,0.7,0.4,1,0.2l0,0c0.4-0.3,0.4-0.7,0.2-1l0,0l0,0c-0.2-0.4-0.7-0.5-1-0.2l0,0
					C144,640.2,143.9,640.7,144.1,640.9L144.1,640.9z M133.4,625.8c0.3,0.4,0.7,0.4,1,0.2c0.4-0.3,0.4-0.7,0.2-1.1
					c-0.2-0.4-0.7-0.5-1-0.2l0,0C133.3,625,133.2,625.5,133.4,625.8L133.4,625.8z M122.7,610.8c0.2,0.4,0.7,0.4,1,0.2l0,0l0,0
					c0.4-0.3,0.4-0.7,0.2-1.1c-0.2-0.3-0.7-0.4-1-0.2l0,0C122.6,610,122.5,610.5,122.7,610.8C122.8,610.8,122.8,610.8,122.7,610.8
					L122.7,610.8z M112,595.8c0.3,0.4,0.7,0.4,1,0.2l0,0c0.3-0.3,0.4-0.7,0.2-1.1c-0.2-0.3-0.7-0.4-1-0.2l0,0
					C111.9,594.9,111.8,595.4,112,595.8L112,595.8L112,595.8z M49.4,566.5c0.1,0.4,0.5,0.7,0.8,0.6l0,0h0.1c0.4-0.1,0.7-0.6,0.6-0.9
					l0,0l0,0c-0.1-0.4-0.6-0.7-0.9-0.6C49.6,565.7,49.3,566,49.4,566.5L49.4,566.5z M56.1,606.3c0.4,0.2,0.8,0.1,1-0.3
					s0.1-0.8-0.3-1c-0.4-0.2-0.8-0.1-1,0.3l0,0l0,0C55.8,605.6,55.9,606.1,56.1,606.3L56.1,606.3z M65.6,590.3
					c0.4,0.2,0.7,0.2,1-0.2l0,0l0,0c0.2-0.4,0.1-0.8-0.3-1.1c-0.4-0.2-0.7-0.1-1,0.2l0,0l0,0C65.1,589.7,65.2,590.1,65.6,590.3
					L65.6,590.3z M105.3,649.3c0.1,0.4,0.6,0.7,0.9,0.6c0.4-0.1,0.7-0.6,0.6-0.9c-0.1-0.4-0.5-0.7-0.8-0.6l0,0
					C105.5,648.4,105.3,648.9,105.3,649.3L105.3,649.3z M101.1,631.1c0.1,0.4,0.5,0.7,0.8,0.6c0.4-0.1,0.7-0.5,0.6-0.8l0,0l0,0
					c-0.1-0.4-0.5-0.7-0.8-0.6l0,0h-0.1C101.3,630.2,101,630.6,101.1,631.1L101.1,631.1L101.1,631.1z M96.9,613
					c0.1,0.4,0.5,0.7,0.8,0.6l0,0c0.4-0.1,0.7-0.6,0.6-0.9c-0.1-0.4-0.5-0.7-0.8-0.6C97,612.2,96.7,612.6,96.9,613L96.9,613z
					 M92.6,594.8c0.1,0.4,0.5,0.7,0.8,0.6h0.1c0.4-0.1,0.7-0.5,0.6-0.9c-0.1-0.4-0.5-0.7-0.9-0.6S92.5,594.4,92.6,594.8L92.6,594.8
					L92.6,594.8z M50.3,594.1c0.4,0.2,0.8,0.1,1-0.2c0.2-0.4,0.1-0.8-0.2-1c-0.3-0.2-0.7-0.2-0.9,0.1l0,0v0.1
					C50,593.3,50,593.8,50.3,594.1L50.3,594.1z M60.4,578.7c0.4,0.2,0.8,0.1,1-0.2c0.2-0.3,0.1-0.8-0.2-1c-0.3-0.2-0.7-0.2-0.9,0.2
					c0,0,0,0,0,0.1C60.1,577.9,60.2,578.4,60.4,578.7L60.4,578.7z M94.4,655.2c0.1,0.4,0.5,0.7,0.8,0.7c0.4-0.1,0.7-0.5,0.6-0.9l0,0
					c-0.1-0.4-0.5-0.7-0.8-0.7l0,0l0,0C94.6,654.3,94.3,654.8,94.4,655.2L94.4,655.2L94.4,655.2z M90.9,637c0.1,0.4,0.5,0.7,0.9,0.7
					l0,0l0,0c0.4-0.1,0.7-0.6,0.6-0.9c-0.1-0.4-0.5-0.6-0.8-0.6C91.1,636.2,90.8,636.6,90.9,637L90.9,637z M87.4,618.8
					c0.1,0.4,0.5,0.7,0.8,0.7l0,0c0.4-0.1,0.7-0.5,0.6-0.9c-0.1-0.4-0.5-0.7-0.8-0.6l0,0C87.6,618.1,87.4,618.4,87.4,618.8
					L87.4,618.8z M83.9,600.6c0.1,0.4,0.4,0.7,0.8,0.7h0.1c0.4-0.1,0.7-0.5,0.6-0.9l0,0c-0.1-0.4-0.5-0.7-0.8-0.7l0,0
					C84.2,599.8,83.9,600.2,83.9,600.6C84,600.5,84,600.6,83.9,600.6L83.9,600.6z M80.4,582.4c0.1,0.4,0.5,0.7,0.8,0.7l0,0l0,0
					c0.1,0,0.2-0.1,0.2-0.1s0,0,0.1,0c0.3-0.3,0.4-0.7,0.1-1l0,0c-0.2-0.2-0.5-0.3-0.7-0.3C80.6,581.6,80.3,582,80.4,582.4
					L80.4,582.4z M60.4,626.7c-0.1,0.4,0.1,0.8,0.6,0.9c0,0,0,0,0.1,0c0.4,0.1,0.8-0.1,0.9-0.6c0,0,0,0,0-0.1
					c0.1-0.5-0.2-0.8-0.6-0.9C60.8,626,60.5,626.2,60.4,626.7L60.4,626.7L60.4,626.7z M63.9,608.4c-0.1,0.4,0.2,0.8,0.6,0.9l0,0l0,0
					c0.4,0.1,0.7-0.2,0.8-0.7c0.1-0.4-0.2-0.8-0.6-0.9C64.4,607.8,64,608,63.9,608.4L63.9,608.4z M67.5,590.3
					c-0.1,0.4,0.2,0.8,0.6,0.9c0.4,0.1,0.8-0.2,0.8-0.6l0,0c0.1-0.4-0.2-0.8-0.6-0.9l0,0C67.9,589.6,67.6,589.9,67.5,590.3
					L67.5,590.3z M124.8,632.3c0.2,0.4,0.7,0.5,1,0.2l0,0l0,0c0.4-0.3,0.5-0.7,0.2-1c-0.2-0.3-0.6-0.5-0.9-0.3l0,0
					C124.7,631.5,124.7,631.9,124.8,632.3L124.8,632.3z M114.8,616.8c0.2,0.4,0.7,0.5,1,0.2l0,0c0.4-0.3,0.4-0.7,0.2-1
					c-0.2-0.3-0.6-0.5-0.9-0.3H115C114.7,616,114.6,616.5,114.8,616.8L114.8,616.8z M104.8,601.4c0.2,0.4,0.7,0.5,1,0.2l0,0l0,0
					c0.4-0.3,0.5-0.7,0.2-1c-0.2-0.4-0.7-0.5-1-0.3l0,0C104.7,600.5,104.6,601,104.8,601.4L104.8,601.4z M94.8,585.9
					c0.3,0.4,0.7,0.5,1,0.2l0,0c0.4-0.3,0.5-0.7,0.2-1c-0.2-0.4-0.7-0.5-1-0.2C94.7,585.1,94.6,585.5,94.8,585.9L94.8,585.9z
					 M53,585.3c0.3,0.1,0.7,0,0.7-0.3c0.1-0.3,0-0.7-0.3-0.7c-0.3-0.1-0.6,0-0.7,0.3l0,0l0,0C52.6,584.8,52.7,585.1,53,585.3
					L53,585.3z M58,572.2c0.3,0.1,0.6,0,0.7-0.3l0,0l0,0c0.1-0.3,0-0.7-0.3-0.7c-0.3-0.1-0.6,0-0.7,0.3l0,0
					C57.6,571.8,57.7,572,58,572.2L58,572.2L58,572.2z M94.8,623.2c0.1,0.3,0.5,0.4,0.7,0.3l0,0c0.3-0.1,0.4-0.5,0.3-0.7
					c-0.1-0.3-0.4-0.5-0.7-0.3H95C94.8,622.6,94.7,622.9,94.8,623.2L94.8,623.2z M89.4,610.4c0.1,0.3,0.5,0.5,0.7,0.3
					c0.3-0.1,0.4-0.5,0.3-0.7c-0.1-0.3-0.5-0.4-0.7-0.3l0,0C89.5,609.7,89.3,610,89.4,610.4L89.4,610.4z M84.1,597.4
					c0.1,0.3,0.5,0.5,0.7,0.3c0.3-0.1,0.4-0.5,0.3-0.7c-0.1-0.3-0.5-0.5-0.7-0.3S84,597.2,84.1,597.4z M78.7,584.6
					c0.1,0.3,0.4,0.5,0.7,0.3l0,0l0,0c0.3-0.1,0.5-0.5,0.4-0.7c-0.1-0.3-0.5-0.5-0.7-0.4C78.7,583.9,78.5,584.2,78.7,584.6
					C78.6,584.5,78.6,584.5,78.7,584.6C78.6,584.6,78.7,584.6,78.7,584.6z M47.2,571.7c0.1-0.2,0.1-0.4,0-0.6
					C47.2,571.3,47.2,571.5,47.2,571.7z M65.9,621.8c0,0.3,0.3,0.6,0.6,0.6c0.3,0,0.6-0.3,0.6-0.6c0-0.3-0.3-0.6-0.6-0.6l0,0l0,0
					C66.2,621.2,66,621.4,65.9,621.8C66,621.7,66,621.7,65.9,621.8L65.9,621.8L65.9,621.8z M65.7,607.8c0,0.3,0.3,0.6,0.6,0.6
					c0.3,0,0.6-0.3,0.6-0.6l0,0l0,0c0-0.3-0.2-0.6-0.6-0.6l0,0l0,0C66.1,607.2,65.8,607.4,65.7,607.8
					C65.8,607.8,65.8,607.8,65.7,607.8L65.7,607.8z M65.6,593.8c0,0.3,0.3,0.6,0.6,0.6c0.3,0,0.6-0.2,0.6-0.6l0,0l0,0
					c0-0.3-0.3-0.6-0.6-0.6C65.9,593.2,65.6,593.5,65.6,593.8L65.6,593.8z M65.4,579.8c0,0.3,0.3,0.6,0.6,0.6l0,0
					c0.3,0,0.6-0.2,0.6-0.6l0,0l0,0c0-0.3-0.2-0.6-0.6-0.6l0,0l0,0C65.7,579.3,65.4,579.5,65.4,579.8L65.4,579.8z M114.2,601.5
					c0.2,0.2,0.6,0.2,0.7,0l0,0l0,0c0.2-0.2,0.2-0.6,0-0.8l0,0l0,0c-0.2-0.2-0.6-0.2-0.7,0l0,0l0,0C114,600.9,114,601.3,114.2,601.5
					L114.2,601.5L114.2,601.5z M104.4,591.7c0.2,0.2,0.6,0.2,0.7,0l0,0l0,0c0.2-0.2,0.2-0.6,0-0.8c-0.2-0.3-0.6-0.2-0.8,0
					C104.1,591.2,104.1,591.5,104.4,591.7L104.4,591.7z M94.7,582c0.2,0.2,0.6,0.2,0.7,0l0,0c0.2-0.2,0.2-0.6,0-0.8
					c-0.2-0.2-0.6-0.2-0.7,0h-0.1C94.4,581.4,94.4,581.8,94.7,582L94.7,582z M62.5,591c0,0.2,0.2,0.3,0.4,0.3c0.2,0,0.3-0.2,0.3-0.4
					c0-0.2-0.2-0.3-0.4-0.3C62.5,590.6,62.4,590.8,62.5,591z M61.2,583.5c0,0.2,0.2,0.3,0.3,0.3l0,0l0,0c0.2,0,0.3-0.2,0.3-0.3l0,0
					l0,0c0-0.2-0.2-0.3-0.4-0.3l0,0C61.3,583.1,61.2,583.3,61.2,583.5L61.2,583.5z M59.9,576c0,0.2,0.2,0.3,0.4,0.3l0,0
					c0.2,0,0.3-0.2,0.2-0.4c0-0.2-0.2-0.3-0.4-0.3l0,0C60,575.6,59.9,575.8,59.9,576L59.9,576L59.9,576z M48.6,579
					c0,0.2,0.1,0.3,0.2,0.4c0.2,0,0.4-0.1,0.4-0.3c0-0.2-0.1-0.3-0.2-0.4C48.9,578.7,48.8,578.8,48.6,579L48.6,579z M50.3,571.5
					c0,0.2,0.1,0.3,0.2,0.4c0.2,0.1,0.4,0,0.4-0.2l0,0c0-0.2-0.1-0.3-0.2-0.4C50.5,571.2,50.3,571.3,50.3,571.5L50.3,571.5z
					 M75.2,581.8c0.1,0.1,0.3,0.2,0.4,0.1l0,0l0,0c0.2-0.1,0.2-0.3,0.1-0.5c-0.1-0.1-0.3-0.2-0.4-0.1l0,0
					C75.2,581.4,75.1,581.6,75.2,581.8L75.2,581.8z M71.2,575.3c0.1,0.2,0.3,0.2,0.4,0.1l0,0c0.1-0.1,0.2-0.3,0.1-0.5
					c-0.1-0.2-0.3-0.2-0.5-0.1C71.1,574.9,71.1,575.1,71.2,575.3L71.2,575.3L71.2,575.3z M71.2,603.3c0.1,0.2,0.5,0.3,0.7,0.2l0,0
					l0,0c0.2-0.2,0.3-0.5,0.2-0.7l0,0c-0.1-0.2-0.4-0.3-0.7-0.2h-0.1C71.1,602.7,71,603.1,71.2,603.3L71.2,603.3L71.2,603.3z
					 M64.7,592.6c0.1,0.2,0.4,0.3,0.7,0.2h0.1c0.3-0.2,0.3-0.5,0.2-0.7l0,0l0,0c-0.2-0.3-0.5-0.3-0.7-0.2l0,0l0,0
					C64.6,592,64.6,592.3,64.7,592.6L64.7,592.6z M58.1,581.9c0.2,0.3,0.5,0.3,0.7,0.2c0.3-0.2,0.3-0.5,0.2-0.7
					c-0.2-0.3-0.5-0.3-0.7-0.2l0,0l0,0C58,581.2,58,581.6,58.1,581.9L58.1,581.9z M51.5,571.1c0.2,0.2,0.5,0.3,0.7,0.2
					c0.2-0.2,0.3-0.5,0.2-0.7c-0.1-0.3-0.5-0.3-0.7-0.2l0,0C51.5,570.5,51.5,570.8,51.5,571.1L51.5,571.1z M85.1,580.9
					c0.2,0.2,0.6,0.1,0.7-0.1l0,0c0.2-0.2,0.1-0.6-0.1-0.7c-0.2-0.2-0.5-0.1-0.7,0.1l0,0C84.8,580.5,84.9,580.9,85.1,580.9
					L85.1,580.9z"/>
				<path id="sweater-2-i5" class="st4" d="M224.8,399.8L117.3,583.5C77.9,581.1,1.4,543,1.4,543c-8.5-46.1,22.9-63.4,46.7-78.4
					c23.8-15,24.6-33.6,67-57.9c26.7-15.1,55.3-26.8,84.8-35C210,402.7,224.8,399.8,224.8,399.8z"/>
				<path id="R_hand-3-i5" class="st15" d="M257,602.3c0,0,22.4,15.5,40.6,21.5s19.6,4.5,26.4-3.4c6.3-7.5,11.8-15.5,16.6-23.9
					c2.1-3.9,8.2-4.1,6.8,6.1s-14.8,15.9-9.3,21.2c5.5,5.2,25,6.2,39.6,5.4c14.5-0.7,22.5-0.7,9.8,17.6
					c-12.7,18.4-27.9,29.2-68.8,11.9s-69.6-14.2-84-12.8L257,602.3z"/>
				<path id="R_sleeve-i5" class="st4" d="M224.1,400c0,0-17,54.8-16.4,92c0.6,37.2,7.3,43.5,36.6,54.3s36,11.2,36,11.2L249.5,675
					c0,0-32,5.4-54.7-20.7s-31.7-32.8-47.6-38.9c-15.9-6.1-48-29.2-36.7-84.8c11.2-55.6,34.2-104.7,89.6-158.9l0,0"/>
				<path id="neck-2-i5" class="st15" d="M244.7,364.4c0,0-17.5,18.7-19.9,35.5c0,0-14.8,2.9-24.8-28.2c7.4-6.3,13.9-13.6,19.3-21.7
					L244.7,364.4z"/>
				<path id="face-2-i5" class="st15" d="M292,350.9c1.9,8.9,3.9,15-11.1,14.1c0,0-29.3,33.9-62.2-5.4c0,0-0.7-0.9-1.7-2.5
					c2.1,1.7,4.4,2.8,7,3.4c0,0,7.1-9.5,0.3-15.7c-6.8-6.2-11.4-14.8-3.5-20.5s9.2,5.1,18,3.8c8.8-1.2,19-12.1,19-12.1
					c6.8,5.2,14.6,9.2,22.9,11.7c4,1.6,8.2,2.5,12.6,2.8l0.1,0.3C293.4,330.7,290.1,342,292,350.9z"/>
				
					<linearGradient id="hair-2-i5_1_" gradientUnits="userSpaceOnUse" x1="191.6915" y1="850.9636" x2="335.756" y2="850.9636" gradientTransform="matrix(1 0 0 -1 0 1170)">
					<stop  offset="0" style="stop-color:#EEEEEE"/>
					<stop  offset="1" style="stop-color:#D6D7D8"/>
				</linearGradient>
				<path id="hair-2-i5" class="st16" d="M334.2,301.2c-4.5,13.6-15.8,23.8-29.8,27c11.1-3.3,22.1-12.5,30.5-32.5l-138.7-17.9
					c0,0-8.2,21.4-2.3,43.8c5.9,22.4,22.9,37.8,30.2,38.8c0,0,7.1-9.6,0.3-15.7c-6.8-6.1-11.4-14.8-3.5-20.5s9.2,5.1,18,3.8
					c8.8-1.2,19-12.1,19-12.1c6.8,5.2,14.6,9.2,22.9,11.7c21.3,8.6,46.5-2,55-26.1C336,300.7,334.6,300.2,334.2,301.2z"/>
			</g>
		</g>
	</g>
</g>
<text transform="matrix(1 0 0 1 535.8867 419.851)" class="st6 st17 st18">Congratulations,</text>
<text transform="matrix(1 0 0 1 546.2637 468.8056)" class="st6 st17 st18">You won a new </text>
<text transform="matrix(1 0 0 1 653.2217 519.5087)" class="st6 st17 st18">iPad!</text>
</svg>
