<?xml version="1.0" encoding="utf-8"?>
<!-- Generator: Adobe Illustrator 25.1.0, SVG Export Plug-In . SVG Version: 6.00 Build 0)  -->
<svg version="1.1" id="Layer_1" xmlns="http://www.w3.org/2000/svg" xmlns:xlink="http://www.w3.org/1999/xlink" x="0px" y="0px"
	 viewBox="0 0 1125 2436" style="enable-background:new 0 0 1125 2436;" xml:space="preserve">
<style type="text/css">
	.st0{fill:#E6DCFD;}
	.st1{clip-path:url(#SVGID_2_);}
	.st2{clip-path:url(#SVGID_4_);}
	.st3{fill:#D8C4FA;}
	.st4{fill:#B796F7;}
	.st5{fill:#EDEDED;}
	.st6{fill:#FFFFFF;}
	.st7{clip-path:url(#SVGID_6_);}
	.st8{fill:#D9D8D9;}
	.st9{fill:#36154C;}
	.st10{fill:#DABA4E;}
	.st11{fill:#D6D7D8;}
	.st12{fill:#EEEEEE;}
	.st13{clip-path:url(#SVGID_8_);}
	.st14{clip-path:url(#SVGID_10_);}
	.st15{clip-path:url(#SVGID_12_);}
</style>
<rect x="-53" y="-168" class="st0" width="1258" height="2794"/>
<g>
	<defs>
		
			<rect id="SVGID_1_" x="-219.7" y="2115" transform="matrix(0.4626 -0.8866 0.8866 0.4626 -1961.0598 1270.371)" width="574.2" height="275.5"/>
	</defs>
	<clipPath id="SVGID_2_">
		<use xlink:href="#SVGID_1_"  style="overflow:visible;"/>
	</clipPath>
	<g class="st1">
		<g>
			<defs>
				
					<rect id="SVGID_3_" x="-219.6" y="2110.3" transform="matrix(0.4626 -0.8866 0.8866 0.4626 -1961.5243 1271.4707)" width="575.3" height="286.9"/>
			</defs>
			<clipPath id="SVGID_4_">
				<use xlink:href="#SVGID_3_"  style="overflow:visible;"/>
			</clipPath>
			<g class="st2">
				<path class="st3" d="M24.6,2555.5l-179.8-93.8c-18.4-9.6-25.6-32.2-16.1-50.5l231.6-443.8c9.5-18.3,32.2-25.3,50.6-15.7
					l179.8,93.8c18.4,9.6,25.6,32.2,16.1,50.5L75.2,2539.8C65.7,2558.1,43,2565.1,24.6,2555.5z"/>
				
					<ellipse transform="matrix(0.4626 -0.8866 0.8866 0.4626 -1703.9894 1213.1172)" class="st0" cx="148.7" cy="2012.1" rx="6.5" ry="6.6"/>
				<path class="st4" d="M290.7,2045.5l-34.5-18c-2.3,0.2-4.7,0.4-7,0.6c-60.9,6.4-122,28.7-164.2,72.6
					c-17,17.7-30.5,38.4-46.3,57.3c-36,43.2-83.1,75.8-132.1,103.7l-78,149.5c-9.5,18.3-2.3,40.9,16.1,50.5l179.8,93.8
					c18.4,9.6,41.1,2.6,50.6-15.7L306.8,2096C316.4,2077.7,309.1,2055.1,290.7,2045.5z"/>
				
					<ellipse transform="matrix(0.4626 -0.8866 0.8866 0.4626 -2224.228 1290.0784)" class="st3" cx="-48" cy="2479.7" rx="23.2" ry="23.4"/>
				<polygon class="st0" points="165.4,2018.7 209.6,2035.2 206.8,2042.8 162.6,2026.2 				"/>
				
					<rect x="-155.2" y="2125.8" transform="matrix(0.4626 -0.8866 0.8866 0.4626 -1961.8417 1271.1514)" class="st5" width="445.6" height="256.1"/>
				
					<ellipse transform="matrix(0.4626 -0.8866 0.8866 0.4626 -2221.5867 1287.0469)" class="st4" cx="-49.1" cy="2476" rx="17.7" ry="17.9"/>
				<path class="st4" d="M201.2,2039.1l-34.1-17.8c-0.7-0.3-0.9-1.2-0.6-1.8s1.2-0.9,1.8-0.6l34.1,17.8c0.7,0.3,0.9,1.2,0.6,1.8
					S201.8,2039.4,201.2,2039.1L201.2,2039.1L201.2,2039.1z"/>
				
					<ellipse transform="matrix(0.4626 -0.8866 0.8866 0.4626 -1703.158 1213.2351)" class="st4" cx="149.2" cy="2011.5" rx="4.5" ry="4.5"/>
				<polygon class="st6" points="148.9,2000.9 151.4,2009.9 142.4,2012.3 139.9,2003.3 				"/>
				<polygon class="st4" points="144.6,1999.4 146.3,2005.8 139.9,2007.5 138.2,2001.2 				"/>
			</g>
		</g>
	</g>
</g>
<g>
	<defs>
		
			<rect id="SVGID_5_" x="-147.4" y="214.1" transform="matrix(0.9144 -0.4048 0.4048 0.9144 -139.7916 76.1504)" width="515" height="309"/>
	</defs>
	<clipPath id="SVGID_6_">
		<use xlink:href="#SVGID_5_"  style="overflow:visible;"/>
	</clipPath>
	<g class="st7">
		<path class="st8" d="M363.7,425.3l-382,169.2c-24.4,10.8-53.4-0.6-64.4-25.4l-85.2-192.4c-11-24.8,0-53.9,24.5-64.8l382-169.2
			c24.4-10.8,53.4,0.6,64.4,25.4l85.2,192.4C399.2,385.3,388.2,414.5,363.7,425.3z"/>
		
			<rect x="-172.5" y="281.9" transform="matrix(0.9144 -0.4048 0.4048 0.9144 -118.9589 61.113)" class="st9" width="515" height="59.9"/>
		
			<rect x="-54.9" y="517.9" transform="matrix(0.9144 -0.4048 0.4048 0.9144 -217.0221 26.1059)" class="st6" width="16.2" height="16.4"/>
		
			<rect x="181.9" y="452.7" transform="matrix(0.9144 -0.4048 0.4048 0.9144 -170.3194 116.3666)" class="st6" width="16.2" height="16.4"/>
		<path class="st10" d="M-1.2,539.2c-10.7,4.9-23.4,0.2-28.3-10.5c-4.9-10.7-0.2-23.4,10.5-28.3c10.7-4.9,23.4-0.2,28.3,10.5
			c0,0.1,0.1,0.2,0.1,0.3C14.3,521.8,9.5,534.4-1.2,539.2z M-15.1,507.7c-6.7,2.9-9.8,10.6-6.9,17.3c2.9,6.7,10.6,9.8,17.3,6.9
			c6.7-2.9,9.8-10.6,6.9-17.3c0,0,0-0.1-0.1-0.1C-0.8,507.8-8.5,504.8-15.1,507.7C-15.1,507.7-15.1,507.7-15.1,507.7z"/>
		<path class="st10" d="M223.8,459.4c-10.7,5-23.4,0.3-28.4-10.4c-5-10.7-0.3-23.4,10.4-28.4c10.7-5,23.4-0.3,28.4,10.4
			c0.1,0.1,0.1,0.2,0.2,0.3C239.2,442,234.5,454.5,223.8,459.4z M209.9,427.8c-6.7,2.8-9.8,10.6-7,17.2c2.8,6.7,10.6,9.8,17.2,7
			c6.7-2.8,9.8-10.6,7-17.2c0-0.1-0.1-0.1-0.1-0.2C224.2,428,216.5,424.9,209.9,427.8L209.9,427.8z"/>
		
			<rect x="4.2" y="542.2" transform="matrix(0.9144 -0.4048 0.4048 0.9144 -219.6176 54.4251)" class="st10" width="29.4" height="8.5"/>
		
			<rect x="85.1" y="456.4" transform="matrix(0.9144 -0.4048 0.4048 0.9144 -177.8568 79.7221)" class="st5" width="28.9" height="8"/>
		
			<rect x="93.2" y="474.6" transform="matrix(0.9144 -0.4048 0.4048 0.9144 -184.5371 84.5441)" class="st11" width="28.9" height="8"/>
		
			<rect x="221" y="396.1" transform="matrix(0.9144 -0.4048 0.4048 0.9144 -141.8037 129.67)" class="st12" width="29.4" height="8"/>
		<path class="st12" d="M55.8,533.8c-7.9,3.4-17-0.2-20.4-8.1l-11.3-25.5c-3.6-7.7-0.4-16.9,7.3-20.5c7.7-3.6,16.9-0.4,20.5,7.3
			c0.1,0.2,0.2,0.5,0.3,0.7l11.3,25.5C67,521.1,63.6,530.2,55.8,533.8z M35.1,487.2c-3.7,1.7-5.3,6-3.7,9.7l11.3,25.5
			c1.6,3.7,5.9,5.4,9.7,3.8l0,0c3.7-1.7,5.3-6,3.7-9.7L44.8,491C43.2,487.3,38.9,485.6,35.1,487.2z"/>
		<path class="st5" d="M148.7,483.6c-3.7,1.7-8,1.8-11.8,0.2c-8-3.2-11.9-12.2-8.9-20.2l10.6-28.1c3-7.9,11.8-11.9,19.7-8.9
			c0.1,0,0.2,0.1,0.2,0.1c8,3.2,11.9,12.1,8.9,20.2l-10.6,28.1C155.4,478.9,152.4,482,148.7,483.6z M150,434.5
			c-1.8,0.8-3.2,2.2-3.8,4.1l-10.6,28.1c-1.4,3.8,0.5,8.1,4.2,9.6c3.7,1.5,7.9-0.3,9.4-4.1c0,0,0-0.1,0-0.1l10.6-28
			c1.4-3.8-0.5-8.1-4.2-9.6C153.7,433.7,151.7,433.8,150,434.5z"/>
		
			<rect x="69.3" y="486.3" transform="matrix(0.9144 -0.4048 0.4048 0.9144 -193.5959 73.6625)" class="st6" width="16.2" height="16.4"/>
	</g>
</g>
<g>
	<defs>
		<rect id="SVGID_7_" x="575.7" y="2002.2" width="675.9" height="312.1"/>
	</defs>
	<clipPath id="SVGID_8_">
		<use xlink:href="#SVGID_7_"  style="overflow:visible;"/>
	</clipPath>
	<g class="st13">
		<rect x="575.7" y="2297.5" class="st9" width="304.5" height="16.8"/>
		<polygon class="st9" points="1251.6,2002.2 873.2,2002.2 785.9,2314.3 1164.4,2314.3 		"/>
		<ellipse class="st10" cx="1030.1" cy="2163.6" rx="32.5" ry="32.3"/>
	</g>
</g>
<g>
	<defs>
		
			<rect id="SVGID_9_" x="987.4" y="178" transform="matrix(0.7558 -0.6548 0.6548 0.7558 -29.8081 850.3473)" width="275.5" height="574.2"/>
	</defs>
	<clipPath id="SVGID_10_">
		<use xlink:href="#SVGID_9_"  style="overflow:visible;"/>
	</clipPath>
	<g class="st14">
		<g>
			<defs>
				
					<rect id="SVGID_11_" x="982.8" y="177.2" transform="matrix(0.7558 -0.6548 0.6548 0.7558 -29.3489 851.0082)" width="286.9" height="575.3"/>
			</defs>
			<clipPath id="SVGID_12_">
				<use xlink:href="#SVGID_11_"  style="overflow:visible;"/>
			</clipPath>
			<g class="st15">
				<path class="st3" d="M1391,616l-153.3,132.8c-15.7,13.6-39.4,12-52.9-3.6L857,367c-13.5-15.6-11.7-39.2,4-52.9l153.3-132.8
					c15.7-13.6,39.4-12,52.9,3.6L1395,563.2C1408.5,578.8,1406.7,602.4,1391,616z"/>
				
					<ellipse transform="matrix(0.7558 -0.6548 0.6548 0.7558 30.1961 683.2554)" class="st0" cx="931.1" cy="301.1" rx="6.6" ry="6.5"/>
				<path class="st4" d="M1014.3,181.3l-29.4,25.5c-0.7,2.2-1.4,4.5-2,6.7c-16.4,59-18.1,124,7.3,179.4
					c10.2,22.3,24.6,42.5,36.3,64.1c26.9,49.3,39.9,105.2,47.9,160.9l110.4,127.4c13.5,15.6,37.2,17.2,52.9,3.6L1391,616
					c15.7-13.6,17.5-37.3,4-52.9l-327.8-378.3C1053.7,169.3,1030,167.7,1014.3,181.3z"/>
				
					<ellipse transform="matrix(0.7558 -0.6548 0.6548 0.7558 -113.401 1007.3852)" class="st3" cx="1293.9" cy="655.7" rx="23.4" ry="23.2"/>
				<polygon class="st0" points="943.4,288 975,252.9 981,258.3 949.4,293.4 				"/>
				
					<rect x="998.2" y="242.5" transform="matrix(0.7558 -0.6548 0.6548 0.7558 -29.6452 851.0739)" class="st5" width="256.1" height="445.6"/>
				
					<ellipse transform="matrix(0.7558 -0.6548 0.6548 0.7558 -114.1765 1004.7881)" class="st4" cx="1290" cy="655.5" rx="17.9" ry="17.7"/>
				<path class="st4" d="M975.5,262.2l-29.1,25.2c-0.6,0.5-1.4,0.4-1.9-0.1c-0.5-0.6-0.4-1.4,0.1-1.9l29.1-25.2
					c0.6-0.5,1.4-0.4,1.9,0.1S976,261.7,975.5,262.2L975.5,262.2L975.5,262.2z"/>
				
					<ellipse transform="matrix(0.7558 -0.6548 0.6548 0.7558 30.5628 682.8242)" class="st4" cx="930.7" cy="300.4" rx="4.5" ry="4.5"/>
				<polygon class="st6" points="920.8,296.8 930,297.8 929,307.1 919.7,306.1 				"/>
				<polygon class="st4" points="917.8,300.3 924.4,301 923.6,307.6 917.1,306.9 				"/>
			</g>
		</g>
	</g>
</g>
</svg>
