<?xml version="1.0" encoding="utf-8"?>
<!-- Generator: Adobe Illustrator 25.1.0, SVG Export Plug-In . SVG Version: 6.00 Build 0)  -->
<svg version="1.1" xmlns="http://www.w3.org/2000/svg" xmlns:xlink="http://www.w3.org/1999/xlink" x="0px" y="0px"
	 viewBox="0 0 1132 1101.8" style="enable-background:new 0 0 1132 1101.8;" xml:space="preserve">
<style type="text/css">
	.st0{clip-path:url(#SVGID_2_);}
	.st1{clip-path:url(#SVGID_4_);}
	.st2{fill:#F8AFA9;}
	.st3{fill:#F2A19C;}
	.st4{fill:url(#SVGID_5_);}
	.st5{opacity:0.51;fill:#FFFFFF;enable-background:new    ;}
	.st6{clip-path:url(#SVGID_7_);}
	.st7{clip-path:url(#SVGID_9_);}
	.st8{fill:#D8C4FA;}
	.st9{fill:#E6DCFD;}
	.st10{fill:#B796F7;}
	.st11{fill:#FFFFFF;}
	.st12{clip-path:url(#SVGID_11_);}
	.st13{clip-path:url(#SVGID_13_);}
	.st14{fill:#DABA4E;}
	.st15{clip-path:url(#SVGID_15_);}
	.st16{clip-path:url(#SVGID_17_);}
	.st17{fill:#36154C;}
	.st18{fill:#F3C2C0;}
	.st19{fill:#FFDFDA;}
	.st20{fill:#23286B;}
	.st21{fill:url(#SVGID_18_);}
</style>
<g id="Layer_1">
	<g>
		<g>
			<defs>
				<rect id="SVGID_1_" y="-115.8" width="1090" height="1309"/>
			</defs>
			<clipPath id="SVGID_2_">
				<use xlink:href="#SVGID_1_"  style="overflow:visible;"/>
			</clipPath>
			<g class="st0">
				<g>
					<g>
						<defs>
							<rect id="SVGID_3_" x="-139" y="-115.8" width="1230" height="1553"/>
						</defs>
						<clipPath id="SVGID_4_">
							<use xlink:href="#SVGID_3_"  style="overflow:visible;"/>
						</clipPath>
						<g class="st1">
							<path class="st2" d="M679.9,661.2c44.6-12.4,82-41,127.2-52.8c28.1-7.4,37.5,7.7,61.4,23.7c35.7,23.8,72.6,49.8,107.2,75.7
								c19.4,14.5,36.1,24.2,14.5,44.8c-13.1,12.4-37,18.7-53.8,21.3c-44.5,7.1-72.6-9-108.3-33.1c-7-4.7-20.2-17.4-27.9-17.5
								c-11.9-0.1-25.4,17.1-33.3,24.3c-16.9,15.3-40,48.1-63.8,53.2c-16.8,3.5-14.2-0.3-17.3-18c-2.4-13.5-4.4-26.6-7.3-40.1
								c-6.1-28.4-3.8-48.6-0.7-76.8C679.8,665.3,677.7,660.7,679.9,661.2z"/>
							<path class="st2" d="M707.9,343.2c93,11.1,190.7,8.7,284.1,13.4c16.5,0.8,76.7,3.4,80.7,20.1c11.7,49.7-102,89.2-141.6,85.9
								c-79.7-6.6-160.6-14.7-241.8-15.5c0-17.2,3.6-34.5,7-51.2c3.1-15.5,13-34,11.3-49.4C709.5,345.2,706.5,340.4,707.9,343.2z"/>
							<path class="st2" d="M492,336.3c72.7-22.1,122.1-101,190.5-133c32.7-15.3,78.8-5.6,113.2-2.1c42.1,4.2,85.5,4.8,128.5,4.9
								c20.7,0,42.6-3.8,64.1-4.9c20.5-1.1,40.8-6.6,47,15.5c10.6,37.8-29.7,73.3-58.1,90.3c-37.2,22.3-72,26.7-115.2,26.7
								c-34.3,0-79.2-21.2-112.9-13c-24.8,6-50.7,42-70.8,57.1c-26.8,20.2-51,37.9-74.8,60.9c-30.2,29.2-71.1,48.5-90.9,0
								C501.1,411,456.6,347,492,336.3z"/>
							<path class="st2" d="M490.8,478.6c75.4,9.4,152.7-42.6,228.1-44c36.2-0.7,74.2,27,104.2,44.1c36.8,21,76.2,39.2,115.4,56.7
								c18.9,8.5,40.4,13.8,60.6,21.6c19.2,7.4,40,10.6,36.6,33.3c-5.7,38.8-56.9,54.8-89.8,58.8c-43,5.2-76.6-4.9-116.2-22.5
								c-31.3-14-63.7-51.5-97.9-57.8c-25-4.6-63.4,17.7-87.9,23.4c-32.7,7.6-62.1,13.9-93.1,25.2c-39.4,14.4-84.7,15.3-83.1-37
								C468.8,550.6,454.1,474,490.8,478.6z"/>
							<path class="st3" d="M389.4,472.5c30.6-18.3,38.8-73.9,56.1-102.3c18.5-30.3,35.2-64.9,58.9-92
								c55.9-63.9,136.8,39.6,179.4,73.1c64.4,50.7,28.4,95.8,90.6,149.5c25.4,21.9,67.5,88.2,67.9,124.6
								c0.4,37.2-48.1,127.7-71.7,154.8c-51.5,59-32.2,68.4-103.8,101.4c-68.9,31.8-124.2,68.5-173.5,126.8
								c-27.8,32.9-51.7,68.9-71.3,107.2c-16.3,32-195.2,297.7-223.5,321.3c-11.1,9.3-307.4-234-337.5-260.5
								c59.9-41.2,305.6-275.1,320.9-351c8.2-40.8,1.8-81.6,20.6-120.5c20.9-43.2,48.1-85.2,73.6-125.9
								c28.6-45.7,76.6-82.4,121.5-111.6L389.4,472.5z"/>
							
								<linearGradient id="SVGID_5_" gradientUnits="userSpaceOnUse" x1="-151.7492" y1="834.0045" x2="-196.8792" y2="852.3944" gradientTransform="matrix(5.66 0.11 -0.11 5.66 1398.8003 -4129.9194)">
								<stop  offset="0" style="stop-color:#FFBEB6"/>
								<stop  offset="1" style="stop-color:#F2A19C"/>
							</linearGradient>
							<path class="st4" d="M341.5,232.8c-14.5,18.1-6.7,62.3-7,70c-3.9,122.3-103.7,204.8-125.2,269.4
								c-45.1,135.2-41.6,287.6,78.2,383.3c39.1,31.2,111.6,55.2,143.5-12c53.2-112,4-251.7-7.8-275c-14.8-29.4-15.5-60-36.3-83.3
								c25.6-77.4,73.6-119,67.4-187.3c-3.2-35.5-4.1-74.7-19-108c-12.9-28.9-23.9-64.4-56.2-69.8
								C356,216.1,341.5,232.8,341.5,232.8z"/>
							<path id="texure_9_-i0" class="st5" d="M397.1,812.1c-0.1,0.9,0.6,1.6,1.5,1.7c0.9,0.1,1.6-0.6,1.7-1.5s-0.6-1.6-1.5-1.7l0,0
								l0,0C397.9,810.6,397.2,811.2,397.1,812.1z M435.6,814.4c0,0.9,0.6,1.7,1.5,1.8c0.9,0,1.6-0.7,1.6-1.6
								c0.1-0.8-0.5-1.6-1.3-1.7h-0.2C436.4,812.9,435.6,813.5,435.6,814.4L435.6,814.4z M450.6,964.2c-0.7,0.6-0.8,1.6-0.2,2.3l0,0
								l0,0c0.5,0.6,1.4,0.7,2.1,0.2l0,0c0.1,0,0.1-0.1,0.2-0.2c0.7-0.5,0.8-1.5,0.2-2.2C452.3,963.7,451.3,963.7,450.6,964.2
								L450.6,964.2z M437.8,739.2c-0.4,0.8-0.1,1.7,0.7,2.1c0.8,0.4,1.7,0.1,2.1-0.7s0.1-1.7-0.7-2.1c-0.7-0.4-1.6-0.1-2,0.6
								C437.8,739.1,437.8,739.2,437.8,739.2L437.8,739.2z M428.5,885.4c-0.8,0.4-1.2,1.2-1,2.1c0.3,0.9,1.2,1.3,2.1,1
								s1.3-1.2,1-2.1l0,0C430.2,885.6,429.3,885.2,428.5,885.4L428.5,885.4z M464.9,872.9c-0.8,0.3-1.2,1.2-0.9,2l0,0
								c0.2,0.8,1,1.3,1.9,1.1h0.1c0.8-0.3,1.3-1.2,1-2.1C466.7,873,465.8,872.6,464.9,872.9L464.9,872.9z M318.9,617.2
								c-0.8,1.4-0.4,3.2,1.1,4.1h0.1c1.4,0.8,3.2,0.3,4-1.1l0,0c0.8-1.4,0.4-3.3-1.1-4.1h-0.1C321.5,615.4,319.8,615.8,318.9,617.2
								L318.9,617.2L318.9,617.2z M382.3,653.4c-0.8,1.5-0.3,3.3,1.1,4.1c1.5,0.8,3.3,0.3,4.1-1.1l0,0c0.8-1.4,0.3-3.2-1.1-4l0,0
								C385.1,651.5,383.2,651.9,382.3,653.4L382.3,653.4z M218.2,884.4c-1.6,0.4-2.5,2.1-2.1,3.7c0,0,0,0,0,0.1
								c0.4,1.6,1.9,2.5,3.5,2.2c0.1,0,0.1,0,0.2,0c1.6-0.5,2.5-2.1,2.1-3.7C221.4,885,219.8,884,218.2,884.4L218.2,884.4z
								 M359.3,846c-1.6,0.4-2.5,2-2.1,3.6v0.1c0.4,1.6,1.9,2.5,3.5,2.2h0.2c1.6-0.5,2.6-2.1,2.2-3.8
								C362.5,846.5,360.9,845.6,359.3,846L359.3,846z M429.8,826.8c-1.6,0.5-2.5,2.1-2.1,3.7s2.1,2.5,3.7,2.1s2.6-2,2.2-3.6l0,0
								c-0.4-1.6-2-2.6-3.6-2.2c0,0,0,0-0.1,0H429.8L429.8,826.8z M240,729.8c-0.2,1.6,1,3.1,2.7,3.3c1.6,0.2,3.1-1,3.3-2.7
								c0.2-1.6-1-3.1-2.6-3.3C241.7,727,240.2,728.2,240,729.8z M312.5,739c-0.2,1.6,1,3.1,2.7,3.3c1.6,0.2,3.1-1,3.3-2.7
								c0.2-1.6-1-3.1-2.6-3.3C314.2,736.2,312.7,737.4,312.5,739z M385,748.3c0,1.8,1.5,3.2,3.3,3.1c1.8,0,3.2-1.5,3.1-3.3
								s-1.5-3.2-3.3-3.1c-1.7,0-3.1,1.4-3.1,3.1C385,748.2,385,748.3,385,748.3z M312.2,998c-1.3,1-1.5,3-0.5,4.3s2.8,1.5,4.1,0.6
								l0,0c1.3-0.9,1.7-2.7,0.8-4c0-0.1-0.1-0.1-0.1-0.2C315.4,997.3,313.5,997,312.2,998L312.2,998z M427.9,908.7
								c-1.3,0.9-1.5,2.7-0.6,4l0.1,0.1c1,1.3,2.8,1.6,4.2,0.7l0,0l0.1-0.1c1.3-1,1.5-2.9,0.5-4.3S429.3,907.6,427.9,908.7
								L427.9,908.7z M251,659.1c-0.3,1.5,0.6,2.9,2.1,3.2c1.4,0.3,2.8-0.6,3.1-2c0.3-1.4-0.6-2.9-2-3.2l0,0l0,0
								C252.8,656.7,251.4,657.6,251,659.1L251,659.1z M314.6,673.4c-0.3,1.5,0.6,2.9,2,3.3s2.9-0.6,3.3-2c0.3-1.4-0.5-2.9-1.9-3.3
								h-0.2C316.5,671.1,315,671.9,314.6,673.4C314.7,673.4,314.7,673.4,314.6,673.4L314.6,673.4z M379.4,686.3
								c-0.6,0.3-1,0.9-1.1,1.6c-0.3,1.4,0.6,2.9,2,3.2c1.5,0.4,3-0.5,3.3-2l0,0c0.2-0.9,0-1.8-0.6-2.5v-0.1
								c-0.3-0.4-0.8-0.6-1.3-0.7C380.8,685.6,380,685.8,379.4,686.3L379.4,686.3z M298.6,927.6c-1.3,0.8-1.6,2.5-0.8,3.8
								c0.8,1.2,2.4,1.6,3.6,0.8l0.1-0.1c1.3-0.8,1.7-2.4,0.9-3.6l0,0c0,0,0,0,0-0.1C301.5,927.3,299.9,926.9,298.6,927.6
								L298.6,927.6z M409,858.2c-1.3,0.8-1.7,2.4-0.9,3.7l0,0c0.7,1.2,2.3,1.6,3.5,0.9l0.2-0.1c1.3-0.8,1.7-2.4,0.9-3.7l0,0
								C411.9,857.7,410.2,857.4,409,858.2z M464.1,823.4c-1.3,0.8-1.6,2.5-0.8,3.8s2.5,1.6,3.8,0.8c1.2-0.8,1.6-2.4,0.9-3.7
								C467.1,823,465.4,822.6,464.1,823.4L464.1,823.4z M280.6,785.9c-1.5,0.3-2.4,1.7-2.1,3.2c0.2,1.4,1.6,2.4,3,2.2l0,0
								c1.5-0.2,2.5-1.6,2.3-3.1S282.2,785.7,280.6,785.9C280.7,785.9,280.6,785.9,280.6,785.9L280.6,785.9z M345,774.9
								c-1.4,0.2-2.4,1.5-2.2,2.9l0,0c0,0,0,0.1,0,0.2c0.2,1.4,1.6,2.4,3,2.2l0,0c1.5-0.3,2.5-1.6,2.3-3.1
								C347.8,775.6,346.4,774.7,345,774.9L345,774.9z M409.3,763.9c-1.4,0.2-2.4,1.6-2.2,3.1s1.6,2.4,3.1,2.2s2.4-1.6,2.2-3.1
								c-0.2-1.4-1.6-2.4-3-2.2H409.3L409.3,763.9z M448,945.8c-0.9,1.2-0.6,2.9,0.6,3.8s2.9,0.6,3.8-0.6s0.6-2.9-0.6-3.8
								S449,944.5,448,945.8C448.1,945.7,448,945.8,448,945.8z M402.3,770.7c-0.8,0.3-1.2,1.2-0.9,2c0.3,0.8,1.2,1.2,2,0.9
								s1.2-1.2,0.9-2l0,0l0,0C404,770.9,403.1,770.5,402.3,770.7z M438.1,756.7c-0.8,0.4-1.2,1.3-0.8,2.1c0.3,0.8,1.2,1.2,2,0.9
								l0,0c0.8-0.3,1.2-1.1,0.9-1.9v-0.1C439.9,756.9,439,756.5,438.1,756.7L438.1,756.7z M407.8,689.7c0,0.9,0.7,1.5,1.6,1.6
								c0.9,0,1.6-0.6,1.6-1.5v-0.1c0.1-0.8-0.6-1.6-1.4-1.6l0,0h-0.2C408.6,688.2,407.8,688.9,407.8,689.7z M460.5,826.2
								c-0.6,0.6-0.7,1.6-0.1,2.2l0,0c0.6,0.6,1.6,0.7,2.2,0.1l0,0c0.6-0.5,0.7-1.4,0.2-2.1l0,0c0-0.1-0.1-0.1-0.2-0.2
								C462.1,825.6,461.2,825.6,460.5,826.2L460.5,826.2L460.5,826.2z M360,596.5c-0.2,0.9,0.4,1.9,1.3,2.1l0,0
								c0.9,0.3,1.9-0.3,2.2-1.2v-0.1c0.2-0.9-0.3-1.9-1.3-2.1l0,0l0,0C361.2,594.9,360.2,595.5,360,596.5L360,596.5z M390,777.7
								c-0.8,0.4-1.1,1.5-0.7,2.3l0,0c0,0.1,0.1,0.1,0.1,0.2c0.5,0.8,1.6,1.1,2.5,0.6c0.8-0.6,1.1-1.6,0.7-2.5
								C392,777.4,390.9,777.2,390,777.7L390,777.7z M427.4,754.6c-0.8,0.6-1.1,1.7-0.5,2.5l0,0l0,0c0.5,0.8,1.6,1.1,2.5,0.6l0,0
								c0.9-0.6,1.1-1.7,0.6-2.6S428.2,754.1,427.4,754.6L427.4,754.6L427.4,754.6z M379.4,686.3c-0.1,0.2-0.1,0.5-0.1,0.8
								c0.1,1,1,1.6,2,1.5h0.1c1-0.2,1.6-1,1.5-2v-0.1c-0.2-1-1-1.6-2-1.5h-0.1C380.1,685,379.5,685.5,379.4,686.3L379.4,686.3z
								 M466.5,829.3c-0.6,0.8-0.4,1.9,0.4,2.5l0,0c0.8,0.6,1.9,0.4,2.5-0.4c0.6-0.7,0.5-1.8-0.2-2.4l-0.1-0.1
								C468.3,828.3,467.1,828.5,466.5,829.3L466.5,829.3z M185.1,680.6c-1.7,0.4-2.8,2-2.5,3.7s1.9,2.8,3.6,2.5
								c1.7-0.4,2.8-2,2.5-3.7C188.4,681.5,186.8,680.3,185.1,680.6z M259.3,667.2c-1.7,0.3-2.8,1.9-2.5,3.6
								c0.3,1.7,1.9,2.8,3.6,2.5s2.8-1.9,2.5-3.6l0,0C262.6,668,261,666.9,259.3,667.2z M333.4,653.6c-1.7,0.4-2.8,2-2.5,3.7
								c0.4,1.7,2,2.7,3.7,2.4c1.7-0.4,2.7-2,2.4-3.7C336.6,654.4,335,653.3,333.4,653.6z M397.8,886.2c-1,1.4-0.6,3.3,0.8,4.3
								s3.3,0.6,4.3-0.8c1-1.4,0.6-3.3-0.8-4.3l0,0l0,0C400.7,884.5,398.8,884.8,397.8,886.2z M440.7,824.3c-1,1.4-0.6,3.3,0.8,4.3
								c1.5,1,3.4,0.6,4.4-0.8c0.9-1.5,0.5-3.4-0.9-4.3C443.5,822.6,441.7,823,440.7,824.3L440.7,824.3z M333.7,766.8
								c-1.5,0.9-1.9,2.9-0.9,4.3l0,0c0.9,1.4,2.7,1.8,4.1,0.9c0,0,0,0,0.1,0l0,0c1.5-0.8,2-2.7,1.2-4.2s-2.7-2-4.2-1.2
								C333.9,766.7,333.8,766.7,333.7,766.8L333.7,766.8L333.7,766.8z M397,726c-1.4,0.9-1.9,2.8-1,4.2l0,0c0.9,1.5,2.8,2,4.3,1.1
								s2-2.8,1.1-4.3S398.6,725.1,397,726C397.1,726,397.1,726,397,726L397,726z M297.1,734.6c-1.5,0.9-2,2.8-1.1,4.3
								c0.9,1.4,2.7,1.9,4.2,1.1c1.5-0.9,2-2.8,1.2-4.4C300.5,734.2,298.6,733.7,297.1,734.6L297.1,734.6z M361.9,696.6
								c-1.5,0.9-2,2.8-1.1,4.3c0.9,1.4,2.8,1.9,4.3,0.9c1.4-0.9,1.8-2.6,1.1-4l0,0C365.2,696.3,363.4,695.8,361.9,696.6z
								 M294.9,601.2c-1.7,0.3-2.8,1.8-2.6,3.5l0,0c0.2,1.7,1.7,2.9,3.5,2.7c1.7-0.1,3-1.7,2.9-3.4s-1.7-3-3.4-2.9
								C295.1,601.1,295,601.1,294.9,601.2L294.9,601.2z M369.3,590.8c-1.7,0.2-2.9,1.7-2.7,3.4s1.7,2.9,3.4,2.7h0.1
								c1.7-0.3,2.9-1.8,2.7-3.6C372.5,591.8,371,590.6,369.3,590.8L369.3,590.8L369.3,590.8z M361.7,861.3c-1,1.4-0.7,3.3,0.7,4.4
								c1.4,1,3.3,0.7,4.3-0.6c1.1-1.3,0.9-3.2-0.4-4.2l0,0l-0.1-0.1c-1.3-1.1-3.3-0.9-4.3,0.5C361.7,861.2,361.7,861.2,361.7,861.3
								C361.7,861.2,361.7,861.3,361.7,861.3L361.7,861.3z M407,801.5c-1,1.4-0.7,3.4,0.7,4.4c1.4,1,3.3,0.7,4.3-0.6
								c1.1-1.3,0.9-3.2-0.4-4.2l0,0l-0.1-0.1C410.1,799.8,408.1,800,407,801.5C407,801.4,407,801.4,407,801.5z M355.3,731.4
								c-1,0.9-1,2.3-0.2,3.3s2.3,1,3.3,0.2c0.9-0.8,1.1-2.2,0.3-3.2l-0.2-0.2C357.7,730.6,356.2,730.5,355.3,731.4L355.3,731.4z
								 M397,693.3c-0.9,0.9-1,2.4-0.1,3.3c0.9,0.9,2.3,1,3.3,0.1s1-2.3,0.2-3.3l-0.1-0.1C399.4,692.5,398,692.4,397,693.3
								L397,693.3z M321.1,616.4c-1.2,0.5-1.8,1.8-1.4,3c0.5,1.2,1.8,1.7,3,1.4c1.2-0.4,1.8-1.8,1.4-3l0,0l0,0
								c-0.4-1.2-1.7-1.8-2.9-1.4H321.1z M374.4,597c-1.2,0.5-1.9,1.8-1.5,3.1c0.4,1.2,1.8,1.8,3,1.4l0,0l0,0
								c1.2-0.4,1.8-1.7,1.5-2.8v-0.1C377,597.3,375.7,596.6,374.4,597L374.4,597z"/>
						</g>
					</g>
				</g>
			</g>
		</g>
	</g>
	<g>
		<g>
			<defs>
				<rect id="SVGID_6_" x="452.4" width="491.1" height="1023.6"/>
			</defs>
			<clipPath id="SVGID_7_">
				<use xlink:href="#SVGID_6_"  style="overflow:visible;"/>
			</clipPath>
			<g class="st6">
				<g>
					<g>
						<defs>
							<rect id="SVGID_8_" x="444.1" width="511.3" height="1025.4"/>
						</defs>
						<clipPath id="SVGID_9_">
							<use xlink:href="#SVGID_8_"  style="overflow:visible;"/>
						</clipPath>
						<g class="st7">
							<path class="st8" d="M880,1025.4H518.4c-37,0-67.1-29.8-67.1-66.5V66.5c0-36.7,30-66.5,67.1-66.5H880c37,0,67,29.8,67,66.5
								v892.4C947.1,995.6,917,1025.4,880,1025.4z"/>
							<ellipse class="st9" cx="628" cy="64.3" rx="11.7" ry="11.6"/>
							<path class="st10" d="M880,0h-69.4c-3.6,2.2-7.1,4.5-10.5,6.7c-90.9,60.4-169.2,145.9-199.6,250.2
								c-12.3,42-16.5,85.9-25.9,128.7c-21.3,97.9-68.9,188.3-123.3,272.8V959c0,36.7,30,66.5,67.1,66.5H880
								c37,0,67.1-29.8,67.1-66.5V66.5C947.1,29.7,917,0,880,0z"/>
							<ellipse class="st8" cx="702.8" cy="965.5" rx="41.7" ry="41.3"/>
							<polygon class="st9" points="659.8,60.9 743.3,50.6 745.1,64.8 661.6,75.2 							"/>
							<rect x="470.9" y="116" class="st11" width="456.5" height="794.3"/>
							<ellipse class="st10" cx="697.9" cy="960.6" rx="31.8" ry="31.6"/>
							<path class="st10" d="M733.1,63.7h-68.6c-1.3,0-2.4-1.1-2.4-2.4c0-1.3,1.1-2.4,2.4-2.4h68.6c1.3,0,2.4,1.1,2.4,2.4
								C735.6,62.6,734.5,63.7,733.1,63.7L733.1,63.7L733.1,63.7z"/>
							<ellipse class="st10" cx="628.2" cy="62.9" rx="8.1" ry="8"/>
							<polygon class="st11" points="619,46.4 630.4,58.6 618.1,69.8 606.7,57.7 							"/>
							<polygon class="st10" points="611,47.7 619,56.3 610.3,64.3 602.3,55.7 							"/>
						</g>
					</g>
				</g>
			</g>
		</g>
	</g>
	<g>
		<g>
			<defs>
				<rect id="SVGID_10_" x="767" y="83.3" width="365" height="220"/>
			</defs>
			<clipPath id="SVGID_11_">
				<use xlink:href="#SVGID_10_"  style="overflow:visible;"/>
			</clipPath>
			<g class="st12">
				<g>
					<g>
						<defs>
							<rect id="SVGID_12_" x="671" y="83.3" width="461" height="220"/>
						</defs>
						<clipPath id="SVGID_13_">
							<use xlink:href="#SVGID_12_"  style="overflow:visible;"/>
						</clipPath>
						<g class="st13">
							<ellipse class="st14" cx="1011.3" cy="174.6" rx="120.7" ry="91.4"/>
							<path class="st14" d="M750,303.3c-7.2,0-13-4.6-18.6-9.1c-4.1-3.3-8.4-6.8-13.2-8.2c-6.5-2-13.8-0.5-20.8,1
								c-8.8,1.9-18,3.8-25.7-1.1c-0.8-0.4-1.1-1.3-0.7-2.1s1.3-1.1,2.1-0.7c0.1,0,0.1,0.1,0.2,0.1c6.7,4.2,14.8,2.5,23.4,0.7
								c7.5-1.6,15.2-3.2,22.4-0.9c5.3,1.7,9.8,5.3,14.2,8.8c5.8,4.6,11.3,9,17.9,8.4c7.8-0.8,12.3-7.7,17.2-15.1
								c2.4-3.9,5.1-7.6,8.2-11c5-4.9,11.5-8,18.5-8.7c-3.1-4.7-4.6-10.3-4.4-16c0.1-2.9,1.3-3.8,2.4-4.1c2.9-0.9,6.6,3,9.2,6.4
								c0.4,0.5,8.8,11.5,6,15.9c-0.5,0.7-1.6,1.9-4.2,1.3c-0.9-0.2-1.8-0.3-2.7-0.4c2.2,2.2,4.7,4.1,7.3,5.6
								c13.9,8.3,33,8.9,45.5,1.4c8.5-5.2,15.2-12.7,19.2-21.8c-18.3-13.3-30.9-32-34.2-52c-0.7-3.9-1.2-9.7,1.3-14.4
								c2-3.5,5.3-6.1,9.2-7.1c5.2-1.4,10.8-0.6,15.4,2c6.5,3.9,11.4,11.2,14.5,21.7c4.6,16,3.8,33.1-2.5,48.6
								c5.2,3.5,10.6,6.6,16.4,9.1c40.4,17.7,164.4,14.3,191.1-17.3c17.8-21,23.6-57.1,14.3-87.8c-7.9-25.8-27.8-49.6-119.1-48.7
								c-0.9,0.1-1.6-0.6-1.7-1.4c-0.1-0.9,0.6-1.6,1.4-1.7c0.1,0,0.2,0,0.2,0c93.4-0.9,113.9,23.9,122.2,50.9
								c9.7,31.7,3.6,69-14.9,90.8c-18,21.3-71.2,26.8-93.2,28.2c-41.1,2.6-81.9-1.5-101.5-10c-5.7-2.5-11.2-5.5-16.4-9
								c-4.3,9.4-11.4,17.3-20.2,22.6c-13.6,8.1-33.7,7.6-48.8-1.4c-3.8-2.2-7.2-5.1-10-8.5c-6.9,0.3-13.5,3.1-18.4,8
								c-2.9,3.2-5.6,6.8-7.8,10.5c-5,7.7-10.2,15.6-19.5,16.5C751.1,303.3,750.5,303.3,750,303.3z M798.8,265
								c2.1,0,4.1,0.2,6.1,0.7c0.3,0.1,0.6,0.1,1,0c0.3-0.4,0-3.1-3-8c-3.5-5.8-7.4-9.6-8.7-9.7c-0.2,0.4-0.3,0.9-0.2,1.3
								C793.7,255,795.4,260.6,798.8,265L798.8,265z M855.3,182.6c-1.5,0-2.9,0.2-4.4,0.6c-3.1,0.8-5.7,2.7-7.3,5.5
								c-2.1,3.9-1.6,8.7-1,12.5c3.2,19,15,36.8,32.4,49.5c5.7-14.7,6.4-30.8,2.1-45.9c-2.9-9.7-7.3-16.5-13.2-19.9
								C861.3,183.3,858.3,182.6,855.3,182.6L855.3,182.6z"/>
						</g>
					</g>
				</g>
			</g>
		</g>
	</g>
	<g>
		<g>
			<defs>
				<rect id="SVGID_14_" x="968.3" y="140" width="74" height="74"/>
			</defs>
			<clipPath id="SVGID_15_">
				<use xlink:href="#SVGID_14_"  style="overflow:visible;"/>
			</clipPath>
			<g class="st15">
				<path class="st11" d="M1020.9,145.2c-5.9,0-11.6,2.5-15.6,6.8c-8.1-8.6-21.6-9-30.2-1c-4.3,4-6.8,9.7-6.8,15.6
					c0,18.4,25.6,38.3,37,42.2c12.3-4.4,37-24.7,37-42.2C1042.3,154.8,1032.8,145.2,1020.9,145.2L1020.9,145.2z"/>
			</g>
		</g>
	</g>
	<g>
		<g>
			<defs>
				<rect id="SVGID_16_" x="519" y="296.3" width="557" height="503"/>
			</defs>
			<clipPath id="SVGID_17_">
				<use xlink:href="#SVGID_16_"  style="overflow:visible;"/>
			</clipPath>
			<g class="st16">
				<path class="st17" d="M731.6,306.1c-5.7-1.3-11.5-2.6-17.3-1.9c-8.7,1.1-16,6.7-22.6,12.5c-8,7.1-15.5,14.9-21.3,23.9
					c-13.9,21.3-17.8,47.8-16.9,73.2s6.1,50.5,8.9,75.8c2.9,26.2,3.1,52.7,0.7,79c58.7-8.4,118.3-6.5,176.4,5.6
					c-38.2-55.5-60.7-124.9-47.2-190.9c4-19.6,10.2-42.7-3.3-57.4c-7.4-8.1-18.8-10.9-29.4-13.4L731.6,306.1z"/>
				<path class="st18" d="M728.4,411c0.6,0,1.1,0.2,1.6,0.5c1.5,1,1.3,3.6,1,5.7c-6.5,36.6-3.9,74.2,7.4,109.6
					c-21.1-15.7-49.1-0.1-73.5-6.3c7-16,5.4-35.2,5.3-53.2c-0.1-21.3-4.6-49.9,0-70.4C687.3,399.1,711.2,408.7,728.4,411z"/>
				<path class="st19" d="M769.5,347.1c1.8,18.6-2.6,34.7-9.7,52c-8.3,20.1-23.3,38.4-43.9,45.5s-41.8,4.4-51.8-14.9
					c-4.1-7.9-6.1-21-6-29.9c0.4-24.6,6.2-50.2,24.2-67c10.7-10,21.8-24,36.3-25.3s35,5.2,43.3,17.2
					C768.8,334.5,768.4,335.3,769.5,347.1z"/>
				<path class="st11" d="M684.4,408.8c2.9,3.2,7.1,5,11.3,6.2c6.5,1.9,13.4,2.6,20,1.2s12.8-5.2,16.3-11c-4,0.6-8,0.7-12,0.2
					c-19.3-2.3-34.8-16.9-46.9-32c0.6,7,1.7,13.9,3.6,20.7C678.2,399.5,680.9,404.5,684.4,408.8z"/>
				<path class="st14" d="M788.3,378.6c-20.4-32.5-53.6-54.8-91.3-61.3l-18.9,16.9c42.1,5.8,77,35.8,103.1,69.3
					c5.2-7.4,10.7-16.9,6.4-24.9C789.4,391.4,783.8,366.7,788.3,378.6z"/>
				<path class="st17" d="M778.4,593.7c-16.3-68.3-13.8-81.5-13.4-151.8c0.1-15.6-6.7-78.5-18-97.6c-15.7-26.7-29.9-31.2-44.7-36.3
					c34.8-29.2,77.9,2.7,88,20.6s11.6,39.4,13.1,60.1c5,68.2,13.7,136.1,25.9,203.4C812.4,591.6,795.4,592.2,778.4,593.7z"/>
				<path class="st20" d="M754.4,422.9L754.4,422.9c0.6,0,1.1-0.5,1.1-1.1l0,0c-0.2-24.1-5.2-46.7-16.2-73.4
					c-7-16.9-22.3-34.9-31.3-39.9c-0.5-0.3-1.2-0.1-1.5,0.5c-0.3,0.5-0.1,1.2,0.4,1.5l0,0c8.5,4.6,23.6,22.6,30.3,38.7
					c11,26.5,15.9,48.8,16.1,72.6C753.3,422.4,753.8,422.9,754.4,422.9L754.4,422.9z"/>
				<path class="st20" d="M746.4,412.9h0.2c0.6-0.1,1.1-0.6,1-1.2l0,0c-5-36.8-21.3-76.3-42.6-103.1c-0.4-0.5-1.1-0.6-1.6-0.2
					s-0.6,1.1-0.2,1.6l0,0c21,26.5,37.1,65.6,42,102C745.3,412.5,745.8,412.9,746.4,412.9z"/>
				<path class="st20" d="M842.7,589.3L842.7,589.3c0.7-0.1,1.1-0.6,1.1-1.2c-4.4-70.9-14-132.3-32.2-205.4l-0.4-1.7
					c-4.3-17.5-10.9-44.1-23.6-55.9c-0.5-0.4-1.2-0.3-1.6,0.2c-0.3,0.4-0.3,1,0.1,1.4c12.2,11.3,18.7,37.5,23,54.8l0.4,1.7
					c18.1,73,27.8,134.2,32.1,205C841.6,588.8,842.1,589.2,842.7,589.3z"/>
				<path class="st11" d="M654.7,482.9l2,37.6c0,0.5,0.1,1.2,0.6,1.4c0.3,0.1,0.7,0.2,1,0.1c13.1-1.8,20.7,59.2,33.8,59
					c14-0.2,33.5-61.4,47.4-59.8c0-7.6-0.1-15.1-0.1-22.7c0-2.7,0.3-9.7,0.3-9.7s-3.5-3.3-6-4.5c-8.4-3.9-17,9.8-25.8,7
					c-4.8-1.5-7.3-7.3-12.2-8.3c-6.9-1.3-11.3,7.5-18,9.6c-4.1,1.3-8.6-0.2-12.3-2.5S658.5,485,654.7,482.9z"/>
				
					<linearGradient id="SVGID_18_" gradientUnits="userSpaceOnUse" x1="-5497.1733" y1="1031.1324" x2="-4998.6133" y2="1031.1324" gradientTransform="matrix(-0.42 0 0 0.42 -1222.0499 148.5919)">
					<stop  offset="0" style="stop-color:#FFDFDA"/>
					<stop  offset="1" style="stop-color:#F3C2C0"/>
				</linearGradient>
				<path class="st21" d="M948.2,485.8c5.6-22.1,14.6-23,30.9-39.2c2.6-2.6,5.5-6.8,8.4-4.5c2.9,8.1-17.4,21.9-19.2,40.8
					c26.5-15.3,66-22.7,89.9-21.2c8.4,0.6-6.2,7.3-25.2,10.1c-17.4,2.6-28.1,9.5-43.7,17.6c-0.9,2.7,9.5-1.8,12.3-2.5
					c26-6.2,44.3-11.2,72.1-13.3c8.2,1-5.9,14.9-13.4,17.8c-18.6,7.2-39.6,12.7-58.2,19.9c4.9,9,54-21.3,44.3-9.3
					c-17.6,19.5-42.9,30.1-69.1,29c-4.3-0.2-8.7-0.7-12.7,0.8c-4.9,2-8.8,6.1-10.4,11.2c-19.1,69.3-40.2,134.9-56.4,178.9
					c-4.8-6.6-21.8-68.2-29.4-71.3c14.7-39.7,41.6-60.5,55.8-100.3c6.2-17.4,14-30.2,19.1-43.2C944.2,504.3,949.2,483,948.2,485.8z"
					/>
				<path class="st20" d="M697,355c0.6,0,1.1-0.5,1.1-1.1s-0.5-1.1-1.1-1.2c-14.9-0.5-28.6-13.5-29.9-28.3c-0.1-0.6-0.6-1-1.2-1
					c-0.6,0.1-1.1,0.6-1,1.2C666.4,340.9,680.7,354.5,697,355L697,355z"/>
				<path class="st14" d="M528.6,799.3c-11.9-55-13.5-134.9-0.2-185.9c4.9-18.8,11.8-37.6,24.8-52c8.9-9.8,20.3-17,32-23.2
					c22.3-11.9,46.2-20.8,70.9-26.3c11.4,19,22.8,38,34.2,57c12.2-15,49-55,49-55s74.5,21.3,94.6,49c23.3,32.3,28.6,73.9,30.6,113.7
					c1.7,32.9-15,83.3-23,122.8L528.6,799.3z"/>
				<path class="st14" d="M811.2,799.3c-1.8-13.4-2.6-27.4-1.9-31.6c5.6-32.3,29-70.8,44.9-99.5c30.7-55.3,34.8-75.9,67.3-125.8
					c15.6,11.8,34,19.2,53.5,21.4c-32.9,81-71.2,159.7-114.8,235.4L811.2,799.3L811.2,799.3z"/>
			</g>
		</g>
	</g>
	<g>
		<path class="st11" d="M942.5,151.2h11.8L944.2,202h-11.8L942.5,151.2z"/>
		<path class="st11" d="M1059.1,198.1c-3.6-3.2-5.4-7.5-5.4-13c0-1.6,0.2-3.4,0.6-5.4l5.7-28.4h11.8l-5.7,28.2
			c-0.3,1.6-0.4,3-0.4,4.3c0,3,0.8,5.3,2.5,6.9c1.7,1.5,4.1,2.3,7.3,2.3c3.6,0,6.4-1.1,8.6-3.2c2.1-2.1,3.7-5.5,4.6-10.2l5.7-28.2
			h11.5l-5.7,28.9c-3.1,15.1-11.8,22.7-26,22.7C1067.7,202.8,1062.7,201.3,1059.1,198.1z"/>
	</g>
</g>
<g id="Layer_2">
</g>
</svg>
