<?xml version="1.0" encoding="utf-8"?>
<!-- Generator: Adobe Illustrator 25.1.0, SVG Export Plug-In . SVG Version: 6.00 Build 0)  -->
<svg version="1.1" id="Layer_1" xmlns="http://www.w3.org/2000/svg" xmlns:xlink="http://www.w3.org/1999/xlink" x="0px" y="0px"
	 viewBox="0 0 820 1180" style="enable-background:new 0 0 820 1180;" xml:space="preserve">
<style type="text/css">
	.st0{fill:#E6DCFD;}
	.st1{clip-path:url(#SVGID_2_);}
	.st2{fill:#D9D8D9;}
	.st3{fill:#36154C;}
	.st4{fill:#FFFFFF;}
	.st5{fill:#DABA4E;}
	.st6{fill:#EDEDED;}
	.st7{fill:#D6D7D8;}
	.st8{fill:#EEEEEE;}
	.st9{clip-path:url(#SVGID_4_);}
	.st10{clip-path:url(#SVGID_6_);}
	.st11{clip-path:url(#SVGID_8_);}
	.st12{fill:#D8C4FA;}
	.st13{fill:#B796F7;}
	.st14{clip-path:url(#SVGID_10_);}
	.st15{clip-path:url(#SVGID_12_);}
</style>
<rect x="-76" y="-48" class="st0" width="932" height="1530.7"/>
<g>
	<defs>
		
			<rect id="SVGID_1_" x="-54.3" y="161.9" transform="matrix(0.9144 -0.4048 0.4048 0.9144 -92.4002 56.2531)" width="282.1" height="169.3"/>
	</defs>
	<clipPath id="SVGID_2_">
		<use xlink:href="#SVGID_1_"  style="overflow:visible;"/>
	</clipPath>
	<g class="st1">
		<path class="st2" d="M225.7,277.7L16.4,370.3C3,376.3-12.8,370-18.9,356.4L-65.5,251c-6-13.6,0-29.6,13.4-35.5l209.3-92.7
			c13.4-5.9,29.3,0.3,35.3,13.9l46.7,105.4C245.1,255.8,239.1,271.7,225.7,277.7z"/>
		
			<rect x="-68" y="199.1" transform="matrix(0.9144 -0.4048 0.4048 0.9144 -80.9867 48.0147)" class="st3" width="282.1" height="32.8"/>
		
			<rect x="-3.6" y="328.4" transform="matrix(0.9144 -0.4048 0.4048 0.9144 -134.7119 28.8357)" class="st4" width="8.9" height="9"/>
		
			<rect x="126.1" y="292.6" transform="matrix(0.9144 -0.4048 0.4048 0.9144 -109.1252 78.2861)" class="st4" width="8.9" height="9"/>
		<path class="st5" d="M25.8,340.1c-5.9,2.7-12.8,0.1-15.5-5.7c-2.7-5.9-0.1-12.8,5.7-15.5c5.9-2.7,12.8-0.1,15.5,5.7
			c0,0.1,0,0.1,0.1,0.2C34.3,330.5,31.7,337.4,25.8,340.1z M18.2,322.8c-3.7,1.6-5.3,5.8-3.8,9.5c1.6,3.7,5.8,5.3,9.5,3.8
			c3.7-1.6,5.3-5.8,3.8-9.5c0,0,0-0.1,0-0.1C26,322.9,21.8,321.2,18.2,322.8C18.2,322.8,18.2,322.8,18.2,322.8z"/>
		<path class="st5" d="M149.1,296.3c-5.9,2.7-12.8,0.2-15.5-5.7s-0.2-12.8,5.7-15.5s12.8-0.2,15.5,5.7c0,0.1,0.1,0.1,0.1,0.2
			C157.5,286.8,154.9,293.7,149.1,296.3z M141.4,279c-3.7,1.6-5.4,5.8-3.8,9.4c1.6,3.7,5.8,5.4,9.4,3.8c3.7-1.6,5.4-5.8,3.8-9.4
			c0,0,0-0.1,0-0.1C149.3,279.1,145.1,277.5,141.4,279L141.4,279z"/>
		
			<rect x="28.7" y="341.7" transform="matrix(0.9144 -0.4048 0.4048 0.9144 -136.1339 44.3507)" class="st5" width="16.1" height="4.6"/>
		
			<rect x="73.1" y="294.7" transform="matrix(0.9144 -0.4048 0.4048 0.9144 -113.2547 58.21)" class="st6" width="15.9" height="4.4"/>
		
			<rect x="77.5" y="304.7" transform="matrix(0.9144 -0.4048 0.4048 0.9144 -116.9146 60.8517)" class="st7" width="15.9" height="4.4"/>
		
			<rect x="147.5" y="261.7" transform="matrix(0.9144 -0.4048 0.4048 0.9144 -93.5025 85.5745)" class="st8" width="16.1" height="4.4"/>
		<path class="st8" d="M57,337.1c-4.3,1.9-9.3-0.1-11.2-4.4l-6.2-14c-2-4.2-0.2-9.2,4-11.2c4.2-2,9.2-0.2,11.2,4
			c0.1,0.1,0.1,0.3,0.2,0.4l6.2,14C63.2,330.1,61.3,335.2,57,337.1z M45.7,311.6c-2,0.9-2.9,3.3-2,5.3l6.2,14c0.9,2,3.3,3,5.3,2.1
			l0,0c2-0.9,2.9-3.3,2-5.3l-6.2-14C50.1,311.6,47.8,310.7,45.7,311.6z"/>
		<path class="st6" d="M107.9,309.6c-2,0.9-4.4,1-6.5,0.1c-4.4-1.7-6.5-6.7-4.9-11.1l5.8-15.4c1.6-4.3,6.4-6.5,10.8-4.9
			c0,0,0.1,0,0.1,0.1c4.4,1.7,6.5,6.7,4.9,11.1l-5.8,15.4C111.6,307,110,308.7,107.9,309.6z M108.6,282.7c-1,0.4-1.7,1.2-2.1,2.2
			l-5.8,15.4c-0.8,2.1,0.3,4.4,2.3,5.2c2,0.8,4.3-0.2,5.1-2.2c0,0,0,0,0-0.1l5.8-15.4c0.8-2.1-0.3-4.4-2.3-5.2
			C110.7,282.3,109.6,282.3,108.6,282.7z"/>
		
			<rect x="64.4" y="311.1" transform="matrix(0.9144 -0.4048 0.4048 0.9144 -121.8776 54.8901)" class="st4" width="8.9" height="9"/>
	</g>
</g>
<g>
	<defs>
		<rect id="SVGID_3_" x="446.3" y="893.6" width="428.8" height="198"/>
	</defs>
	<clipPath id="SVGID_4_">
		<use xlink:href="#SVGID_3_"  style="overflow:visible;"/>
	</clipPath>
	<g class="st9">
		<rect x="446.3" y="1080.9" class="st3" width="193.2" height="10.7"/>
		<polygon class="st3" points="875.2,893.6 635.1,893.6 579.7,1091.6 819.8,1091.6 		"/>
		<ellipse class="st5" cx="734.6" cy="996" rx="20.6" ry="20.5"/>
	</g>
</g>
<g>
	<defs>
		
			<rect id="SVGID_5_" x="703.9" y="61.3" transform="matrix(0.7558 -0.6548 0.6548 0.7558 26.9073 584.7687)" width="187.2" height="390.1"/>
	</defs>
	<clipPath id="SVGID_6_">
		<use xlink:href="#SVGID_5_"  style="overflow:visible;"/>
	</clipPath>
	<g class="st10">
		<g>
			<defs>
				
					<rect id="SVGID_7_" x="700.8" y="60.7" transform="matrix(0.7558 -0.6548 0.6548 0.7558 27.2193 585.2177)" width="194.9" height="390.8"/>
			</defs>
			<clipPath id="SVGID_8_">
				<use xlink:href="#SVGID_7_"  style="overflow:visible;"/>
			</clipPath>
			<g class="st11">
				<path class="st12" d="M978,358.8L873.9,449c-10.7,9.2-26.8,8.2-35.9-2.4l-222.7-257c-9.2-10.6-8-26.7,2.7-35.9l104.1-90.2
					c10.7-9.2,26.8-8.2,35.9,2.4l222.7,257C989.9,333.5,988.7,349.6,978,358.8z"/>
				
					<ellipse transform="matrix(0.7558 -0.6548 0.6548 0.7558 67.6679 471.2674)" class="st0" cx="665.7" cy="144.9" rx="4.5" ry="4.4"/>
				<path class="st13" d="M722.2,63.5l-20,17.3c-0.5,1.5-0.9,3-1.3,4.6c-11.1,40.1-12.3,84.2,4.9,121.8c7,15.2,16.7,28.9,24.7,43.5
					c18.3,33.5,27.1,71.4,32.5,109.3l75,86.6c9.2,10.6,25.3,11.7,35.9,2.4L978,358.8c10.7-9.2,11.9-25.3,2.7-35.9l-222.7-257
					C748.9,55.3,732.8,54.2,722.2,63.5z"/>
				
					<ellipse transform="matrix(0.7558 -0.6548 0.6548 0.7558 -29.875 691.4448)" class="st12" cx="912.1" cy="385.8" rx="15.9" ry="15.7"/>
				<polygon class="st0" points="674,136 695.5,112.2 699.5,115.8 678.1,139.6 				"/>
				
					<rect x="711.2" y="105.1" transform="matrix(0.7558 -0.6548 0.6548 0.7558 27.018 585.2624)" class="st6" width="173.9" height="302.7"/>
				
					<ellipse transform="matrix(0.7558 -0.6548 0.6548 0.7558 -30.4018 689.6807)" class="st13" cx="909.4" cy="385.6" rx="12.1" ry="12"/>
				<path class="st13" d="M695.8,118.5L676,135.6c-0.4,0.3-1,0.3-1.3-0.1s-0.3-1,0.1-1.3l19.8-17.1c0.4-0.3,1-0.3,1.3,0.1
					S696.2,118.1,695.8,118.5L695.8,118.5L695.8,118.5z"/>
				
					<ellipse transform="matrix(0.7558 -0.6548 0.6548 0.7558 67.9171 470.9745)" class="st13" cx="665.4" cy="144.4" rx="3.1" ry="3"/>
				<polygon class="st4" points="658.6,142 664.9,142.6 664.2,148.9 657.9,148.3 				"/>
				<polygon class="st13" points="656.6,144.4 661.1,144.8 660.6,149.3 656.1,148.8 				"/>
			</g>
		</g>
	</g>
</g>
<g>
	<defs>
		
			<rect id="SVGID_9_" x="-146.8" y="998.3" transform="matrix(0.4859 -0.874 0.874 0.4859 -929.5338 603.4708)" width="390.1" height="187.2"/>
	</defs>
	<clipPath id="SVGID_10_">
		<use xlink:href="#SVGID_9_"  style="overflow:visible;"/>
	</clipPath>
	<g class="st14">
		<g>
			<defs>
				
					<rect id="SVGID_11_" x="-146.7" y="995.1" transform="matrix(0.4859 -0.874 0.874 0.4859 -929.8712 604.1887)" width="390.8" height="194.9"/>
			</defs>
			<clipPath id="SVGID_12_">
				<use xlink:href="#SVGID_11_"  style="overflow:visible;"/>
			</clipPath>
			<g class="st15">
				<path class="st12" d="M13.7,1296.6l-120.4-66.9c-12.3-6.9-16.8-22.3-10-34.6L48.5,897.9c6.8-12.2,22.3-16.6,34.7-9.7l120.4,66.9
					c12.3,6.9,16.8,22.3,10,34.6L48.4,1286.9C41.6,1299.1,26.1,1303.5,13.7,1296.6z"/>
				
					<ellipse transform="matrix(0.4859 -0.874 0.874 0.4859 -757.3614 572.2373)" class="st0" cx="107.7" cy="929.9" rx="4.4" ry="4.5"/>
				<path class="st13" d="M203.6,955.1l-23.1-12.9c-1.6,0.1-3.2,0.2-4.7,0.3c-41.5,3.3-83.4,17.3-112.8,46.4
					c-11.9,11.7-21.4,25.6-32.4,38.1c-25.2,28.7-57.8,50-91.6,68l-55.7,100.1c-6.8,12.2-2.3,27.7,10,34.6l120.4,66.9
					c12.3,6.9,27.9,2.5,34.7-9.7l165.2-297.2C220.4,977.5,215.9,962,203.6,955.1z"/>
				
					<ellipse transform="matrix(0.4859 -0.874 0.874 0.4859 -1104.7677 609.6224)" class="st12" cx="-34.2" cy="1243.9" rx="15.7" ry="15.9"/>
				<polygon class="st0" points="119,934.7 148.7,946.7 146.7,951.7 116.9,939.7 				"/>
				
					<rect x="-103" y="1005.6" transform="matrix(0.4859 -0.874 0.874 0.4859 -930.0734 603.9683)" class="st6" width="302.7" height="173.9"/>
				
					<ellipse transform="matrix(0.4859 -0.874 0.874 0.4859 -1102.9343 607.6794)" class="st13" cx="-34.9" cy="1241.4" rx="12" ry="12.1"/>
				<path class="st13" d="M142.9,949.1L120,936.4c-0.4-0.2-0.6-0.8-0.4-1.3c0.2-0.4,0.8-0.6,1.3-0.4l22.9,12.7
					c0.4,0.2,0.6,0.8,0.4,1.3C143.9,949.2,143.3,949.4,142.9,949.1L142.9,949.1L142.9,949.1z"/>
				
					<ellipse transform="matrix(0.4859 -0.874 0.874 0.4859 -756.8126 572.3376)" class="st13" cx="108.1" cy="929.5" rx="3" ry="3.1"/>
				<polygon class="st4" points="108.1,922.3 109.6,928.4 103.4,929.9 101.9,923.7 				"/>
				<polygon class="st13" points="105.2,921.2 106.2,925.6 101.9,926.6 100.8,922.3 				"/>
			</g>
		</g>
	</g>
</g>
</svg>
